<svg width="19" height="12" viewBox="0 0 19 12" fill="none" xmlns="http://www.w3.org/2000/svg">
<path d="M16.944 12H1.37172C0.614115 12 0 11.3858 0 10.6283V1.37172C0 0.614152 0.614115 0 1.37172 0H16.944C17.7016 0 18.3158 0.614116 18.3158 1.37172V10.6283C18.3158 11.3858 17.7017 12 16.944 12Z" fill="#FF4B55"/>
<path d="M12.6116 7.49521C12.439 7.38667 12.3354 7.55935 12.3354 7.55935L11.8321 7.61856L12.0837 7.40639C12.2663 7.42119 12.291 7.36692 12.3403 7.29291C12.3896 7.21889 12.5968 7.25345 12.5968 7.25345C12.5672 7.02647 12.2811 7.15475 12.2811 7.15475C12.0491 7.13008 12.0097 7.31759 12.0097 7.31759L11.6495 7.5939L10.8568 7.35902C10.939 7.26844 11.0035 7.17919 11.013 7.12513C11.0287 7.03438 10.4275 6.8817 10.2432 6.69092C10.059 6.50011 9.99324 6.19751 10.0788 6.11856C10.1643 6.0396 10.2367 6.26325 10.3288 6.44748C10.4209 6.63172 10.5919 6.77642 10.7038 6.68434C10.8156 6.59226 10.5854 6.4541 10.4801 6.25671C10.3748 6.05935 10.559 5.98695 10.6446 6.0067C10.7301 6.02644 10.7827 6.43436 10.9867 6.64484C11.1906 6.85537 11.3748 6.81587 11.3946 6.68431C11.4143 6.55273 11.058 6.39061 10.9856 6.27875C10.9132 6.16692 10.8945 5.94745 11.013 5.94091C11.1314 5.93432 11.5656 6.58146 11.9341 6.82907C12.3354 7.0988 12.6578 6.783 12.6052 6.65142C12.5525 6.51982 12.309 6.57248 12.0262 6.50007C11.7433 6.4277 11.4538 6.04611 11.3683 5.83563C11.2828 5.62514 11.3535 5.62511 11.4028 5.64485C11.4522 5.66459 11.6397 5.94091 11.9999 6.15308C12.3601 6.36525 12.6117 6.16295 12.6413 6.11362C12.671 6.06428 12.7848 5.84278 12.4143 5.89487C11.9933 5.95407 11.7532 5.70408 11.5805 5.57087C11.4078 5.43765 11.3387 5.25507 11.4176 5.18105C11.4966 5.10704 11.7565 5.44091 12.1512 5.54619C12.5138 5.64285 12.6611 5.48698 12.6512 5.34389C12.6413 5.2008 12.5574 5.26 12.1479 5.22055C11.7384 5.18108 11.4522 4.79621 11.4374 4.77152C11.4226 4.74684 11.4275 4.60868 11.6347 4.74191C11.8419 4.87512 12.212 4.95408 12.4291 4.9442C12.6462 4.93432 12.6906 4.64321 12.5871 4.59388C12.4834 4.54455 12.4587 4.61856 12.2219 4.66789C11.985 4.71722 11.541 4.47546 11.4324 4.36195C11.3239 4.24848 11.4423 4.17447 11.4966 4.18431C11.5508 4.19414 11.9061 4.40142 12.2219 4.39154C12.5378 4.38167 12.671 4.09055 12.6611 4.00173C12.6512 3.9129 12.5623 3.83889 12.4291 3.92771C12.2959 4.01653 12.1183 4.12014 11.8222 4.07081C11.5261 4.02147 11.388 3.82408 11.4275 3.75006C11.4669 3.67605 11.7531 3.80432 12.2071 3.75499C12.6611 3.70566 12.6807 3.30598 12.6364 3.22702C12.592 3.14807 12.4834 3.17276 12.3304 3.31585C12.1775 3.45894 11.8814 3.48856 11.6495 3.48856C11.4176 3.48856 11.4127 3.37509 11.4472 3.29613C11.4818 3.21719 11.7285 3.23694 12.0739 3.12836C12.4193 3.01982 12.6166 2.74349 12.671 2.57081C12.7252 2.39809 12.592 2.26487 12.5377 2.26487C12.4834 2.26487 12.518 2.18592 12.2811 2.52637C12.0443 2.86682 11.4226 3.00004 11.4226 3.00004C11.3782 2.91616 11.3091 2.88657 11.3091 2.88657C10.8897 2.97046 10.3838 3.33259 10.3838 3.33259C10.3838 3.33259 10.473 3.61863 10.3616 3.84157C10.2181 4.12854 9.72627 3.94929 9.86002 3.49607C9.97138 3.11867 10.4024 2.89051 10.7665 2.84962C11.1306 2.80876 11.1492 2.6713 11.1492 2.6713C11.1492 2.6713 10.7669 2.79578 10.76 2.6249C10.839 2.64092 10.9554 2.64789 11.1529 2.6304C11.4464 2.60443 11.6099 2.39634 11.4799 2.35177C11.3499 2.30719 11.4056 2.44095 11.1827 2.54498C11.0236 2.61917 10.8568 2.58576 10.7732 2.56039C10.8504 2.39191 11.1753 2.47808 11.1753 2.47808C11.179 2.18456 10.7895 2.28956 10.7895 2.28956C10.6185 1.9211 9.61845 2.34876 9.61845 2.34876L9.8553 2.53953C9.27631 2.86189 9.15787 3.47371 9.15787 3.47371C9.15787 3.47371 9.03946 2.86189 8.46048 2.53951L8.69733 2.34872C8.69733 2.34872 7.6973 1.92106 7.52626 2.28952C7.52626 2.28952 7.13677 2.18456 7.14052 2.47804C7.14052 2.47804 7.46535 2.39187 7.54254 2.56037C7.45901 2.58576 7.29213 2.61913 7.13312 2.54494C6.91022 2.44087 6.96595 2.30719 6.83588 2.35174C6.70585 2.39631 6.86933 2.60436 7.16284 2.63037C7.36042 2.64787 7.47679 2.64092 7.55574 2.62486C7.5489 2.79575 7.16657 2.67126 7.16657 2.67126C7.16657 2.67126 7.18516 2.80869 7.54923 2.84958C7.91333 2.89048 8.34439 3.11863 8.45575 3.49603C8.58947 3.94929 8.0977 4.12846 7.95422 3.84153C7.84275 3.61863 7.93197 3.33256 7.93197 3.33256C7.93197 3.33256 7.42607 2.97043 7.00666 2.88653C7.00666 2.88653 6.93758 2.91616 6.89319 3C6.89319 3 6.27149 2.86679 6.03464 2.52633C5.79778 2.18589 5.83234 2.26483 5.77807 2.26483C5.72381 2.26483 5.59059 2.39806 5.64486 2.57077C5.69912 2.74349 5.89648 3.01979 6.2419 3.12833C6.5873 3.23686 6.83403 3.21716 6.86855 3.2961C6.90306 3.37505 6.89817 3.48852 6.66624 3.48852C6.43433 3.48852 6.13827 3.4589 5.98535 3.31582C5.83241 3.17272 5.72385 3.14803 5.67941 3.22699C5.63502 3.30594 5.65474 3.7056 6.10869 3.75497C6.56265 3.8043 6.84884 3.67602 6.88829 3.75002C6.92774 3.82404 6.78959 4.0214 6.49357 4.07077C6.19752 4.1201 6.0199 4.01649 5.88665 3.92767C5.7534 3.83885 5.6646 3.91286 5.65474 4.00169C5.64486 4.09051 5.77807 4.38164 6.09387 4.3915C6.40969 4.40138 6.76494 4.19414 6.81921 4.18428C6.87348 4.1744 6.99192 4.24842 6.88336 4.36193C6.77482 4.4754 6.33073 4.71718 6.09387 4.66785C5.85703 4.61852 5.83237 4.54451 5.72874 4.59384C5.62511 4.64317 5.66953 4.9343 5.88665 4.94416C6.10375 4.95404 6.47383 4.87509 6.68105 4.74187C6.88829 4.60865 6.89322 4.7468 6.87841 4.77149C6.8636 4.79617 6.57742 5.18102 6.16789 5.22051C5.75837 5.25996 5.67448 5.20077 5.6646 5.34386C5.65474 5.48694 5.80201 5.64285 6.1646 5.54615C6.55933 5.44087 6.81925 5.107 6.89817 5.18102C6.97707 5.25503 6.90803 5.43758 6.73533 5.57083C6.56261 5.70408 6.32247 5.95403 5.90146 5.89484C5.53107 5.84278 5.64489 6.06426 5.67448 6.11359C5.7041 6.16292 5.95572 6.36521 6.31592 6.15304C6.67612 5.94087 6.8636 5.66456 6.91297 5.64481C6.9623 5.62507 7.03306 5.62507 6.94753 5.83559C6.862 6.04611 6.57253 6.4277 6.28963 6.50004C6.00674 6.57245 5.7633 6.51978 5.71068 6.65139C5.65806 6.78297 5.9804 7.09873 6.38175 6.82904C6.7502 6.58142 7.18442 5.93429 7.30282 5.94087C7.42123 5.94741 7.40256 6.16689 7.33022 6.27871C7.25787 6.39057 6.90149 6.55269 6.92123 6.68427C6.94098 6.81584 7.12514 6.8553 7.32911 6.64481C7.5331 6.43428 7.58568 6.02637 7.67125 6.00666C7.75675 5.98691 7.94098 6.05931 7.8357 6.25667C7.73046 6.45403 7.50018 6.59219 7.61204 6.68431C7.72388 6.77639 7.89494 6.63168 7.98705 6.44745C8.07913 6.26321 8.1515 6.03957 8.23704 6.11852C8.32257 6.19747 8.25678 6.50007 8.07255 6.69089C7.88835 6.88166 7.28701 7.03435 7.30282 7.12509C7.31224 7.17915 7.37677 7.26841 7.45901 7.35898L6.66631 7.59387L6.30612 7.31755C6.30612 7.31755 6.26666 7.13007 6.03475 7.15472C6.03475 7.15472 5.74856 7.02643 5.71894 7.25341C5.71894 7.25341 5.92618 7.21886 5.97551 7.29288C6.02484 7.36689 6.04953 7.42116 6.23207 7.40635L6.48369 7.61852L5.9804 7.55931C5.9804 7.55931 5.87677 7.38659 5.70409 7.49517C5.70409 7.49517 5.48699 7.42609 5.43272 7.63332C5.43272 7.63332 5.6202 7.59876 5.66957 7.62345C5.66957 7.62345 5.74359 7.79123 5.98044 7.69253L6.4788 7.71722L6.19755 7.85537C6.19755 7.85537 5.84229 7.7419 5.8571 8.03791C5.8571 8.03791 5.75346 8.15633 5.84722 8.27477C5.84722 8.27477 5.86697 8.14649 5.96069 8.09223C5.96069 8.09223 6.14324 8.16623 6.2617 7.94913L6.62189 7.73202L6.97715 7.90473C6.97715 7.90473 6.96728 8.09716 7.22878 8.01821C7.22878 8.01821 7.3176 8.07742 7.34225 8.15636C7.34225 8.15636 7.45572 8.03302 7.27316 7.88992C7.27316 7.88992 7.22878 7.72215 7.01166 7.78629L6.80937 7.68266L7.55793 7.46054C7.68753 7.58399 7.82736 7.68516 7.8763 7.6682C7.97289 7.63476 8.04723 7.53449 8.11405 7.39325C8.18091 7.25206 8.48187 6.76168 8.63047 6.76543C8.77907 6.76916 8.84596 6.88799 8.80879 7.09981C8.77166 7.31155 8.48204 7.71722 8.29453 7.8011C8.10703 7.88499 8.07742 7.92444 7.9047 7.90963C7.732 7.89483 7.67279 7.96884 7.71228 8.06754C7.75174 8.16623 7.94602 8.22898 8.13662 8.15636C8.34386 8.07742 8.42281 7.96888 8.50176 8.03302C8.5807 8.09716 8.41788 8.32907 8.19583 8.39815C7.97378 8.46722 7.80601 8.42284 7.84056 8.56099C7.87512 8.69915 8.11194 8.70902 8.2649 8.6202C8.41788 8.53136 8.59054 8.28468 8.63498 8.36363C8.67938 8.44258 8.64979 8.64487 8.50176 8.75345C8.35373 8.86199 8.18535 8.79813 8.15143 8.89654C8.1021 9.03963 8.27478 9.13345 8.408 9.07912C8.54121 9.02479 8.69417 8.85704 8.76326 8.70902C8.83234 8.56099 8.96062 8.68927 8.92116 8.82742C8.8817 8.96558 8.91457 9.07899 8.63168 9.29622L9.15802 10.1054L9.68434 9.29622C9.40144 9.07899 9.43433 8.96558 9.39483 8.82742C9.35534 8.68927 9.48366 8.56099 9.55273 8.70902C9.62181 8.85704 9.77477 9.02482 9.908 9.07912C10.0412 9.13333 10.2139 9.03963 10.1646 8.89654C10.1306 8.79813 9.96226 8.86199 9.81423 8.75345C9.6662 8.64491 9.63658 8.44258 9.68102 8.36363C9.72541 8.28468 9.89812 8.5314 10.0511 8.6202C10.2041 8.70902 10.4409 8.69915 10.4754 8.56099C10.51 8.42284 10.3422 8.46722 10.1202 8.39815C9.89812 8.32907 9.73528 8.09716 9.81423 8.03302C9.89319 7.96888 9.97214 8.07742 10.1794 8.15636C10.37 8.22898 10.5643 8.16623 10.6037 8.06754C10.6432 7.96884 10.584 7.89483 10.4113 7.90963C10.2386 7.92444 10.209 7.88495 10.0215 7.8011C9.83398 7.71722 9.54436 7.31158 9.50719 7.09981C9.47006 6.88803 9.53692 6.76912 9.68552 6.76543C9.83412 6.76168 10.135 7.25206 10.2019 7.39325C10.2688 7.53445 10.3431 7.63476 10.4397 7.6682C10.4887 7.68516 10.6285 7.58396 10.7581 7.46054L11.5066 7.68266L11.3043 7.78629C11.0872 7.72215 11.0428 7.88992 11.0428 7.88992C10.8603 8.03302 10.9737 8.15636 10.9737 8.15636C10.9984 8.07742 11.0872 8.01821 11.0872 8.01821C11.3487 8.09716 11.3388 7.90473 11.3388 7.90473L11.6941 7.73202L12.0543 7.94913C12.1727 8.16623 12.3553 8.09223 12.3553 8.09223C12.4491 8.14649 12.4688 8.27477 12.4688 8.27477C12.5625 8.15636 12.4589 8.03791 12.4589 8.03791C12.4736 7.74186 12.1184 7.85537 12.1184 7.85537L11.8372 7.71722L12.3355 7.69253C12.5724 7.79123 12.6464 7.62345 12.6464 7.62345C12.6958 7.59876 12.8833 7.63332 12.8833 7.63332C12.8287 7.42613 12.6116 7.49521 12.6116 7.49521Z" fill="#464655"/>
</svg>
