<svg width="16" height="16" viewBox="0 0 16 16" fill="none" xmlns="http://www.w3.org/2000/svg">
<path d="M8 1.66663C5.42267 1.66663 3.33333 3.75596 3.33333 6.33329V9.31277C3.33333 9.71664 3.05847 10.0687 2.66667 10.1666C2.27486 10.2646 2 10.6166 2 11.0205V11.2102C2 11.8305 2.50283 12.3333 3.12311 12.3333H12.8769C13.4972 12.3333 14 11.8305 14 11.2102V11.0205C14 10.6166 13.7251 10.2646 13.3333 10.1666C12.9415 10.0687 12.6667 9.71664 12.6667 9.31277V6.33329C12.6667 3.75596 10.5773 1.66663 8 1.66663Z" stroke="white" stroke-width="1.2"/>
<path d="M8.00001 14.6667C9.28867 14.6667 10.3333 13.831 10.3333 12.8C10.3333 12.6389 10.3078 12.4825 10.2598 12.3334H5.74018C5.69219 12.4825 5.66667 12.6389 5.66667 12.8C5.66667 13.831 6.71134 14.6667 8.00001 14.6667Z" stroke="white" stroke-width="1.2"/>
</svg>
