<svg width="16" height="16" viewBox="0 0 16 16" fill="none" xmlns="http://www.w3.org/2000/svg">
<path fill-rule="evenodd" clip-rule="evenodd" d="M4.36364 0C4.7653 0 5.09091 0.321551 5.09091 0.718204V1.79551H10.9091V0.718204C10.9091 0.321551 11.2347 0 11.6364 0C12.038 0 12.3636 0.321551 12.3636 0.718204V1.79551H12.8485C14.589 1.79551 16 3.1889 16 4.90773V12.8878C16 14.6066 14.589 16 12.8485 16H3.15152C1.41098 16 0 14.6066 0 12.8878V4.90773C0 3.1889 1.41098 1.79551 3.15152 1.79551H3.63636V0.718204C3.63636 0.321551 3.96197 0 4.36364 0ZM14.5455 5.62593H1.45455V12.8878C1.45455 13.8133 2.2143 14.5636 3.15152 14.5636H12.8485C13.7857 14.5636 14.5455 13.8133 14.5455 12.8878V5.62593Z" fill="white"/>
<path d="M4.246 13C4.246 12.756 4.262 12.542 4.294 12.358C4.326 12.17 4.376 12.004 4.444 11.86C4.516 11.712 4.608 11.582 4.72 11.47C4.832 11.358 4.97 11.252 5.134 11.152C5.274 11.072 5.418 10.994 5.566 10.918C5.718 10.842 5.858 10.762 5.986 10.678C6.118 10.594 6.224 10.498 6.304 10.39C6.388 10.282 6.43 10.15 6.43 9.994C6.43 9.874 6.404 9.772 6.352 9.688C6.304 9.6 6.232 9.532 6.136 9.484C6.044 9.436 5.932 9.412 5.8 9.412C5.648 9.412 5.506 9.44 5.374 9.496C5.246 9.548 5.13 9.614 5.026 9.694C4.926 9.77 4.84 9.846 4.768 9.922L4.264 9.394C4.32 9.33 4.396 9.258 4.492 9.178C4.592 9.098 4.71 9.02 4.846 8.944C4.986 8.868 5.144 8.806 5.32 8.758C5.496 8.71 5.69 8.686 5.902 8.686C6.214 8.686 6.476 8.742 6.688 8.854C6.9 8.962 7.06 9.112 7.168 9.304C7.28 9.492 7.336 9.71 7.336 9.958C7.336 10.138 7.306 10.298 7.246 10.438C7.19 10.574 7.112 10.694 7.012 10.798C6.912 10.902 6.8 10.996 6.676 11.08C6.552 11.16 6.424 11.238 6.292 11.314C6.084 11.426 5.916 11.524 5.788 11.608C5.66 11.692 5.558 11.77 5.482 11.842C5.41 11.914 5.354 11.986 5.314 12.058C5.278 12.126 5.246 12.198 5.218 12.274H7.342V13H4.246ZM9.57109 13V12.034H7.77709V11.314L9.82309 8.74H10.3751V11.308H10.9031V12.034H10.3751V13H9.57109ZM8.58709 11.308H9.66109V9.952L8.58709 11.308Z" fill="white"/>
</svg>
