<svg width="16" height="17" viewBox="0 0 16 17" fill="none" xmlns="http://www.w3.org/2000/svg">
<path fill-rule="evenodd" clip-rule="evenodd" d="M14.6004 7.18164C14.5036 7.76969 14.3025 8.33073 14.0131 8.85191C14.0484 9.02324 14.0666 9.19725 14.0666 9.37245C14.0666 9.88765 13.9173 10.38 13.6419 10.8261C13.5162 11.0297 13.4824 11.2715 13.4693 11.438C13.4544 11.6267 13.4593 11.8346 13.473 12.0362C13.4907 12.297 13.525 12.5732 13.5631 12.827C13.2772 12.7419 12.9582 12.654 12.656 12.5858C12.4334 12.5356 12.2072 12.4932 12.0034 12.4721C11.8234 12.4535 11.574 12.4407 11.3543 12.5117C10.8362 12.6792 10.2666 12.7725 9.66665 12.7725C8.89647 12.7725 8.1917 12.6242 7.58263 12.369C7.49984 12.3713 7.4167 12.3725 7.33323 12.3725C6.5731 12.3725 5.83998 12.2778 5.15051 12.1022C6.1925 13.2579 7.87034 13.9725 9.66665 13.9725C10.3856 13.9725 11.0752 13.8615 11.7099 13.6578C11.7098 13.6579 11.7098 13.658 11.7098 13.658C11.7098 13.6583 11.7123 13.6583 11.7174 13.6581C11.7352 13.6575 11.7853 13.656 11.8801 13.6658C12.0175 13.68 12.1923 13.7114 12.3919 13.7564C12.7896 13.8461 13.2354 13.9782 13.582 14.0882C14.267 14.3057 14.9316 13.7075 14.8091 13.0119C14.7526 12.6906 14.6935 12.297 14.6703 11.9548C14.6586 11.7829 14.6571 11.6395 14.6656 11.5324C14.6702 11.4737 14.6767 11.4419 14.6794 11.4296C15.0524 10.8155 15.2666 10.1165 15.2666 9.37245C15.2666 8.5645 15.0229 7.82277 14.6004 7.18164ZM11.7099 13.6578C11.7144 13.6564 11.7189 13.655 11.7234 13.6535C11.7202 13.6546 11.7175 13.6554 11.7153 13.656C11.7123 13.657 11.7105 13.6575 11.7099 13.6578Z" fill="white"/>
<path d="M13 6.3724C13 8.76563 10.463 10.7057 7.33337 10.7057C6.50156 10.7057 5.71162 10.5687 5.00004 10.3225C4.59839 10.1835 3.33829 10.598 2.4069 10.9465C1.99673 11.1 1.5714 10.6957 1.70227 10.2777C1.97017 9.42219 2.26003 8.33068 2.101 8.03906C1.82121 7.526 1.6667 6.963 1.6667 6.3724C1.6667 3.97916 4.20376 2.03906 7.33337 2.03906C10.463 2.03906 13 3.97916 13 6.3724Z" stroke="white" stroke-width="1.2"/>
</svg>
