<svg width="19" height="19" viewBox="0 0 19 19" fill="none" xmlns="http://www.w3.org/2000/svg">
<g clip-path="url(#clip0)">
<path d="M9.07 18.14C4.07 18.14 0 14.07 0 9.07C0 4.07 4.07 0 9.07 0C14.07 0 18.14 4.07 18.14 9.07C18.14 14.07 14.07 18.14 9.07 18.14ZM9.07 1.5C4.9 1.5 1.5 4.9 1.5 9.07C1.5 13.24 4.9 16.64 9.07 16.64C13.24 16.64 16.64 13.24 16.64 9.07C16.64 4.9 13.24 1.5 9.07 1.5Z" fill="black"/>
<path d="M11.69 9.62007C11.58 9.34007 11.42 9.09007 11.21 8.88007C11 8.67007 10.73 8.50007 10.41 8.36007C10.27 8.29007 10 8.21007 9.60002 8.11007V5.85007C9.73002 5.91007 9.85002 5.99007 9.94002 6.09007C10.09 6.25007 10.19 6.50007 10.24 6.83007L10.27 7.05007L11.69 6.84007L11.66 6.62007C11.57 5.97007 11.29 5.44007 10.83 5.06007C10.52 4.79007 10.1 4.62007 9.60002 4.55007V4.07007H8.59002V4.55007C8.01002 4.63007 7.56002 4.81007 7.24002 5.09007C6.72002 5.55007 6.45002 6.16007 6.45002 6.90007C6.45002 7.32007 6.54002 7.69007 6.72002 8.03007C6.90002 8.36007 7.17002 8.63007 7.51002 8.82007C7.87002 9.02007 8.24002 9.17007 8.59002 9.26007V11.8201C8.38002 11.7501 8.20002 11.6101 8.03002 11.4001C7.87002 11.1901 7.75002 10.8501 7.69002 10.3801L7.66002 10.1501L6.27002 10.4001L6.28002 10.6001C6.32002 11.1301 6.46002 11.5801 6.69002 11.9501C6.93002 12.3201 7.22002 12.6001 7.55002 12.7701C7.83002 12.9101 8.17002 13.0201 8.59002 13.0801V14.0601H9.60002V13.0801C10.23 13.0101 10.75 12.7501 11.16 12.3201C11.62 11.8401 11.85 11.2301 11.85 10.5201C11.85 10.2101 11.8 9.90007 11.69 9.62007ZM10.43 10.6001C10.43 10.9501 10.33 11.2401 10.13 11.4701C9.98002 11.6401 9.81002 11.7501 9.61002 11.8201V9.53007C9.98002 9.68007 10.15 9.82007 10.23 9.91007C10.36 10.0801 10.43 10.3101 10.43 10.6001ZM8.59002 5.82007V7.84007C8.35002 7.74007 8.18002 7.63007 8.07002 7.50007C7.92002 7.32007 7.85002 7.10007 7.85002 6.83007C7.85002 6.56007 7.94002 6.33007 8.11002 6.13007C8.24002 5.99007 8.40002 5.88007 8.59002 5.82007Z" fill="black"/>
</g>
<defs>
<clipPath id="clip0">
<rect width="18.14" height="18.14" fill="white"/>
</clipPath>
</defs>
</svg>
