<svg width="16" height="13" viewBox="0 0 16 13" fill="none" xmlns="http://www.w3.org/2000/svg">
<g clip-path="url(#clip0)">
<path fill-rule="evenodd" clip-rule="evenodd" d="M0.475985 1.18756C0.675982 0.900163 1.06645 0.833103 1.35216 1.03428L7.31398 5.23033L13.2758 1.03428C13.5615 0.833103 13.952 0.900163 14.152 1.18756C14.352 1.47496 14.2853 1.86775 13.9996 2.06893L7.6854 6.52364C7.46636 6.67692 7.18065 6.67692 6.96161 6.52364L0.628363 2.06893C0.342653 1.86775 0.275988 1.47496 0.475985 1.18756Z" fill="#9C9B9E"/>
<path d="M15.4282 8.66992C15.4758 8.66992 15.5235 8.70824 15.5235 8.76572V12.3774C15.5235 12.4253 15.4854 12.4732 15.4282 12.4732H8.56165C8.51404 12.4732 8.46642 12.4349 8.46642 12.3774V8.76572C8.46642 8.71782 8.50451 8.66992 8.56165 8.66992H15.4282ZM15.4282 8.19092H8.56165C8.24737 8.19092 7.99023 8.44958 7.99023 8.76572V12.3774C7.99023 12.6935 8.24737 12.9522 8.56165 12.9522H15.4282C15.7425 12.9522 15.9996 12.6935 15.9996 12.3774V8.76572C15.9996 8.44958 15.7425 8.19092 15.4282 8.19092Z" fill="#9C9B9E"/>
<path d="M6.90435 11.9173C6.77102 11.9173 6.66626 11.8119 6.66626 11.6778V8.37264C6.66626 7.63498 7.25673 7.04102 7.99005 7.04102H14.3709C14.5042 7.04102 14.609 7.1464 14.609 7.28052C14.609 7.41464 14.5042 7.52002 14.3709 7.52002H7.99005C7.52339 7.52002 7.14244 7.90322 7.14244 8.37264V11.6778C7.14244 11.8119 7.02816 11.9173 6.90435 11.9173Z" fill="#9C9B9E"/>
<path d="M11.5808 10.0016C11.5808 9.83874 11.7046 9.73336 11.876 9.7142V10.289C11.857 10.289 11.8379 10.2794 11.8284 10.2794C11.657 10.2219 11.5808 10.1357 11.5808 10.0016ZM12.4665 11.1225C12.4665 11.2949 12.3332 11.4099 12.1427 11.429V10.8159C12.1522 10.8159 12.1713 10.8255 12.1808 10.8255C12.3808 10.8734 12.4665 10.9692 12.4665 11.1225ZM12.1522 12.0421V11.8122C12.6379 11.7643 12.9522 11.4961 12.9522 11.0746C12.9522 10.6435 12.6665 10.4614 12.3046 10.3848L12.1522 10.3561V9.73336C12.3427 9.7621 12.4475 9.9058 12.4475 10.0495H12.9046C12.8951 9.67588 12.6094 9.39805 12.1618 9.35015V9.10107H11.876V9.33099C11.4475 9.36932 11.1046 9.60882 11.1046 10.0399C11.1046 10.4423 11.3999 10.653 11.7237 10.7297L11.876 10.768V11.429C11.6475 11.4003 11.5332 11.2566 11.5237 11.0937H11.0475C11.0475 11.429 11.2761 11.7739 11.857 11.8122V12.0326H12.1522V12.0421Z" fill="#9C9B9E"/>
<path fill-rule="evenodd" clip-rule="evenodd" d="M5.17135 10.7105H1.99997C1.63807 10.7105 1.33331 10.4135 1.33331 10.0399V2.01181C1.33331 1.64776 1.62855 1.3412 1.99997 1.3412H12.6474C13.0093 1.3412 13.3141 1.63818 13.3141 2.01181V5.72886C13.3141 6.08332 13.5998 6.3803 13.9617 6.3803H13.9998C14.3522 6.3803 14.6474 6.0929 14.6474 5.72886V2.01181C14.6474 0.910102 13.7522 0 12.6474 0H1.99997C0.895225 0 0 0.900522 0 2.01181V10.0399C0 11.1416 0.895225 12.0517 1.99997 12.0517H5.18088C5.53325 12.0517 5.82849 11.7643 5.82849 11.4002V11.3619C5.81896 10.9979 5.53325 10.7105 5.17135 10.7105Z" fill="#9C9B9E"/>
</g>
<defs>
<clipPath id="clip0">
<rect width="15.9998" height="12.9522" fill="white"/>
</clipPath>
</defs>
</svg>
