<svg width="26" height="29" viewBox="0 0 26 29" fill="none" xmlns="http://www.w3.org/2000/svg">
<path d="M24.4315 25.463H0.86048C0.384143 25.463 0 25.0789 0 24.6025V24.3105C0 23.8341 0.384143 23.45 0.86048 23.45H24.4315C24.9078 23.45 25.292 23.8341 25.292 24.3105V24.6025C25.2766 25.0789 24.9078 25.463 24.4315 25.463Z" fill="#FFEE00"/>
<path fill-rule="evenodd" clip-rule="evenodd" d="M8.40503 17.0112C8.40503 18.9321 8.40503 20.8529 8.40503 22.7738H8.48186H10.2796V21.0834H13.5218V22.7738H15.3196C15.3657 22.6201 15.3964 22.4665 15.3964 22.2974V21.8518C15.3964 21.1142 14.8586 20.4995 14.1518 20.3919C14.0904 20.3766 14.0135 20.3766 13.9367 20.3766C14.0135 20.3766 14.075 20.3766 14.1518 20.3612C14.8586 20.2536 15.3964 19.6389 15.3964 18.9013V18.4557C15.3964 17.6412 14.7357 16.9805 13.9367 16.9805C12.0774 17.0112 10.2336 17.0112 8.40503 17.0112ZM10.2643 19.7773V18.302H12.7843C13.1838 18.302 13.5218 18.6247 13.5218 19.0396C13.5218 19.4392 13.1991 19.7773 12.7843 19.7773H10.2643Z" fill="white"/>
<path fill-rule="evenodd" clip-rule="evenodd" d="M20.7437 20.8683L20.5439 20.4534L19.9293 19.0858L19.7295 18.6248L18.992 17.0112H18.0547H17.5015H16.1801V22.7738H18.0547V18.6248L19.9293 22.7738H20.7437H21.5581L23.4173 18.6248V22.7738H25.2919V17.0112H23.9705H23.4173H22.48L21.7424 18.6248L21.5581 19.0858L20.9281 20.4534L20.7437 20.8683Z" fill="white"/>
<path fill-rule="evenodd" clip-rule="evenodd" d="M1.87463 17.0118H1.64415C0.860496 17.0118 0.19977 17.565 0.0461123 18.3026C0.0153809 18.4102 0.0153809 18.5332 0.0153809 18.6407V21.1148C0.0153809 21.2377 0.0307466 21.3453 0.0461123 21.4529C0.19977 22.1905 0.860496 22.7437 1.64415 22.7437C3.07316 22.7437 4.48681 22.7437 5.91582 22.7437C6.8224 22.7437 7.55995 22.0061 7.55995 21.0994V20.5155H5.68533V20.7306C5.68533 21.1302 5.36265 21.4529 4.96314 21.4529H2.59682C2.19731 21.4529 1.87463 21.1302 1.87463 20.7306C1.87463 20.1928 1.87463 19.5474 1.87463 19.0095C1.87463 18.61 2.19731 18.2873 2.59682 18.2873H4.96314C5.36265 18.2873 5.68533 18.61 5.68533 19.0095V19.2247H7.55995V18.6407C7.55995 17.7341 6.8224 16.9965 5.91582 16.9965C4.579 17.0118 3.22682 17.0118 1.87463 17.0118Z" fill="white"/>
<path d="M1.18311 24.9407V24.0033H1.38286V24.787H1.84383V24.9407H1.18311ZM4.13332 24.9407H3.9182L3.84138 24.7255H3.45723L3.3804 24.9407H3.18065L3.54943 23.9879H3.74918L4.13332 24.9407ZM3.79528 24.5565L3.65699 24.2031L3.53406 24.5565H3.79528ZM5.54697 24.9407V23.9879H5.73136L6.13087 24.618V23.9879H6.29989V24.9407H6.10014L5.71599 24.3106V24.9407H5.54697ZM7.80573 23.9879H8.15914C8.23597 23.9879 8.29744 23.9879 8.34353 24.0033C8.405 24.0186 8.45109 24.0494 8.48182 24.0955C8.52792 24.1416 8.54329 24.1877 8.57402 24.2492C8.58938 24.3106 8.60475 24.3875 8.60475 24.4797C8.60475 24.5565 8.58938 24.618 8.57402 24.6794C8.54329 24.7409 8.51256 24.8024 8.46646 24.8485C8.43573 24.8792 8.38963 24.9099 8.32817 24.9253C8.28207 24.9407 8.23597 24.9407 8.15914 24.9407H7.80573V23.9879ZM8.00549 24.1416V24.7716H8.14378C8.18988 24.7716 8.23597 24.7716 8.2667 24.7563C8.29744 24.7409 8.32817 24.7409 8.34353 24.7102C8.3589 24.6948 8.37426 24.6641 8.38963 24.618C8.405 24.5719 8.405 24.5104 8.405 24.4489C8.405 24.3875 8.405 24.3106 8.38963 24.2799C8.37426 24.2338 8.3589 24.2184 8.34353 24.1877C8.3128 24.1723 8.29744 24.157 8.25134 24.1416C8.22061 24.1416 8.17451 24.1262 8.09768 24.1262H8.00549V24.1416ZM10.0645 24.9407V23.9879H10.2642V24.9407H10.0645ZM11.7394 24.9407V23.9879H11.9237L12.3233 24.618V23.9879H12.5076V24.9407H12.3079L11.9237 24.3106V24.9407H11.7394ZM14.4437 24.5872V24.4336H14.8586V24.8177C14.8125 24.8638 14.7664 24.8946 14.6896 24.9253C14.6127 24.956 14.5359 24.9714 14.4591 24.9714C14.3669 24.9714 14.2747 24.956 14.1979 24.9099C14.121 24.8638 14.0749 24.8024 14.0289 24.7255C13.9981 24.6487 13.9674 24.5565 13.9674 24.4797C13.9674 24.3875 13.9828 24.2953 14.0289 24.2184C14.0749 24.1416 14.1364 24.0801 14.2132 24.034C14.2747 24.0033 14.3515 23.9879 14.4437 23.9879C14.5667 23.9879 14.6588 24.0186 14.7203 24.0647C14.7818 24.1108 14.8279 24.1877 14.8432 24.2645L14.6588 24.2953C14.6435 24.2492 14.6127 24.2184 14.582 24.1877C14.5513 24.1569 14.5052 24.1416 14.4437 24.1416C14.3669 24.1416 14.2901 24.1723 14.244 24.2184C14.1979 24.2645 14.1671 24.3567 14.1671 24.4489C14.1671 24.5565 14.1979 24.6487 14.244 24.7102C14.2901 24.7716 14.3669 24.787 14.4437 24.787C14.4898 24.787 14.5206 24.7716 14.5667 24.7563C14.6127 24.7409 14.6435 24.7255 14.6742 24.6948V24.5872H14.4437ZM16.7025 24.9407V23.9879H17.0098C17.1327 23.9879 17.2096 23.9879 17.2403 24.0033C17.2864 24.0186 17.3478 24.0494 17.3786 24.0955C17.4093 24.1416 17.44 24.2031 17.44 24.2799C17.44 24.3414 17.4247 24.3875 17.4093 24.4336C17.3939 24.4797 17.3632 24.5104 17.3325 24.5258C17.3018 24.5411 17.271 24.5719 17.2403 24.5719C17.1942 24.5872 17.1327 24.5872 17.0405 24.5872H16.9022V24.9407H16.7025ZM16.8869 24.1416V24.4182H16.9944C17.0713 24.4182 17.1174 24.4182 17.1481 24.4028C17.1788 24.3875 17.1942 24.3721 17.2096 24.3567C17.2249 24.3414 17.2249 24.3106 17.2249 24.2799C17.2249 24.2492 17.2096 24.2184 17.1942 24.1877C17.1788 24.1569 17.1481 24.157 17.1174 24.1416C17.0866 24.1416 17.0559 24.1416 16.9791 24.1416H16.8869ZM19.6527 24.9407H19.4376L19.3608 24.7255H18.9766L18.8998 24.9407H18.7L19.0688 23.9879H19.2686L19.6527 24.9407ZM19.2993 24.5565L19.161 24.2031L19.0381 24.5565H19.2993ZM21.4966 24.5872V24.4336H21.9115V24.8177C21.8654 24.8638 21.8193 24.8946 21.7424 24.9253C21.6656 24.956 21.5888 24.9714 21.512 24.9714C21.4198 24.9714 21.3276 24.956 21.2507 24.9099C21.1739 24.8638 21.1278 24.8024 21.0817 24.7255C21.051 24.6487 21.0203 24.5565 21.0203 24.4797C21.0203 24.3875 21.0356 24.2953 21.0817 24.2184C21.1278 24.1416 21.1893 24.0801 21.2661 24.034C21.3276 24.0033 21.4044 23.9879 21.4966 23.9879C21.6195 23.9879 21.7117 24.0186 21.7732 24.0647C21.8346 24.1108 21.8807 24.1877 21.8961 24.2645L21.7117 24.2953C21.6963 24.2492 21.6656 24.2184 21.6349 24.1877C21.6042 24.1569 21.5581 24.1416 21.4966 24.1416C21.4198 24.1416 21.3429 24.1723 21.2968 24.2184C21.2507 24.2645 21.22 24.3567 21.22 24.4489C21.22 24.5565 21.2507 24.6487 21.2968 24.7102C21.3429 24.7716 21.4198 24.787 21.4966 24.787C21.5427 24.787 21.5734 24.7716 21.6195 24.7563C21.6656 24.7409 21.6963 24.7255 21.7271 24.6948V24.5872H21.4966ZM23.3866 24.9407V23.9879H24.0934V24.1416H23.5863V24.3567H24.0627V24.5104H23.5863V24.7716H24.1088V24.9253H23.3866V24.9407Z" fill="black"/>
<path d="M11.2016 27.7681L10.8635 26.7231H11.0633L11.2477 27.3225L11.3091 27.553C11.3091 27.5376 11.3245 27.4761 11.3706 27.3378L11.555 26.7231H11.7547L11.9238 27.3378L11.9699 27.5376L12.0313 27.3378L12.2311 26.7385H12.4155L12.0621 27.7835H11.8623L11.6779 27.1534L11.6318 26.969L11.4013 27.7835H11.2016V27.7681ZM12.7535 27.7681L12.4155 26.7231H12.6152L12.7996 27.3225L12.8611 27.553C12.8611 27.5376 12.8764 27.4761 12.9225 27.3378L13.0916 26.7231H13.2913L13.4603 27.3378L13.5064 27.5376L13.5679 27.3378L13.7676 26.7385H13.952L13.5986 27.7835H13.3989L13.2145 27.1534L13.1684 26.969L12.9379 27.7835H12.7535V27.7681ZM14.3054 27.7681L13.9674 26.7231H14.1672L14.3515 27.3225L14.413 27.553C14.413 27.5376 14.4284 27.4761 14.4745 27.3378L14.6589 26.7231H14.8586L15.0276 27.3378L15.0737 27.5376L15.1352 27.3378L15.335 26.7385H15.5193L15.1659 27.7835H14.9662L14.7818 27.1534L14.7357 26.969L14.5052 27.7835H14.3054V27.7681ZM15.5962 27.7681V27.5683H15.8113V27.7681H15.5962ZM16.134 27.7681V26.3236H16.3184V27.7681H16.134ZM16.6103 28.1676V26.7078H16.7793V26.8461C16.8254 26.8 16.8715 26.7539 16.9176 26.7231C16.9637 26.6924 17.0252 26.677 17.102 26.677C17.1942 26.677 17.2864 26.7078 17.3479 26.7385C17.4247 26.7846 17.4708 26.8461 17.5169 26.9383C17.563 27.0151 17.5783 27.1073 17.5783 27.2149C17.5783 27.3225 17.563 27.4147 17.5169 27.5069C17.4708 27.5991 17.4093 27.6605 17.3325 27.7066C17.2557 27.7527 17.1788 27.7681 17.0866 27.7681C17.0252 27.7681 16.9637 27.7527 16.9176 27.722C16.8715 27.6913 16.8254 27.6605 16.7947 27.6298V28.1369H16.6103V28.1676ZM16.7793 27.2456C16.7793 27.3839 16.8101 27.4761 16.8715 27.553C16.933 27.6144 16.9944 27.6452 17.0866 27.6452C17.1635 27.6452 17.2403 27.6144 17.3018 27.5376C17.3632 27.4761 17.394 27.3686 17.394 27.2303C17.394 27.092 17.3632 26.9998 17.3018 26.9229C17.2403 26.8615 17.1788 26.8307 17.0866 26.8307C16.9944 26.8307 16.933 26.8615 16.8715 26.9383C16.8101 26.9998 16.7793 27.1073 16.7793 27.2456ZM17.732 27.3225V27.1381H18.3159V27.3225H17.732ZM19.2532 27.3839L19.4376 27.4147C19.4222 27.5376 19.3608 27.6298 19.2839 27.6913C19.2071 27.7527 19.0996 27.7988 18.9766 27.7988C18.823 27.7988 18.7 27.7527 18.6079 27.6605C18.5157 27.5683 18.4696 27.43 18.4696 27.261C18.4696 27.1534 18.4849 27.0459 18.531 26.969C18.5771 26.8768 18.6386 26.8154 18.7154 26.7846C18.7922 26.7385 18.8844 26.7231 18.9766 26.7231C19.0996 26.7231 19.1917 26.7539 19.2686 26.8154C19.3454 26.8768 19.3915 26.9537 19.4222 27.0612L19.2378 27.092C19.2225 27.0151 19.1917 26.969 19.1456 26.9383C19.0996 26.9076 19.0535 26.8922 18.992 26.8922C18.8998 26.8922 18.823 26.9229 18.7615 26.9844C18.7 27.0459 18.6693 27.1534 18.6693 27.2917C18.6693 27.43 18.7 27.5376 18.7615 27.5991C18.823 27.6605 18.8998 27.6913 18.992 27.6913C19.0688 27.6913 19.1303 27.6759 19.1764 27.6298C19.2071 27.5376 19.2378 27.4608 19.2532 27.3839ZM19.6066 27.7681V26.7231H19.7756V26.8768C19.8217 26.8 19.8525 26.7539 19.8986 26.7231C19.9447 26.6924 19.9754 26.6924 20.0215 26.6924C20.083 26.6924 20.1444 26.7078 20.2213 26.7539L20.1598 26.9229C20.1137 26.8922 20.0676 26.8922 20.0215 26.8922C19.9754 26.8922 19.9447 26.9076 19.9139 26.9229C19.8832 26.9537 19.8525 26.9844 19.8371 27.0151C19.8217 27.0766 19.8064 27.1534 19.8064 27.2303V27.7835H19.6066V27.7681ZM20.3134 27.7681V26.7231H20.4825V26.8768C20.5132 26.8307 20.5593 26.7846 20.6208 26.7539C20.6822 26.7232 20.7437 26.7078 20.8205 26.7078C20.8973 26.7078 20.9742 26.7232 21.0203 26.7539C21.0664 26.7846 21.1125 26.8307 21.1278 26.8922C21.22 26.7692 21.3276 26.7078 21.4812 26.7078C21.5888 26.7078 21.681 26.7385 21.7425 26.8C21.8039 26.8615 21.8347 26.9383 21.8347 27.0612V27.7835H21.6503V27.1227C21.6503 27.0459 21.6503 26.9998 21.6349 26.969C21.6195 26.9383 21.6042 26.9076 21.5734 26.8922C21.5427 26.8768 21.4966 26.8615 21.4659 26.8615C21.389 26.8615 21.3276 26.8922 21.2661 26.9383C21.22 26.9844 21.1893 27.0612 21.1893 27.1688V27.7835H21.0049V27.1073C21.0049 27.0305 20.9895 26.969 20.9588 26.9229C20.9281 26.8768 20.882 26.8615 20.8051 26.8615C20.7591 26.8615 20.6976 26.8768 20.6515 26.9076C20.6054 26.9383 20.5747 26.969 20.5593 27.0305C20.5439 27.0766 20.5286 27.1534 20.5286 27.2456V27.7835L20.3134 27.7681ZM22.1727 27.7681V27.5683H22.3878V27.7681H22.1727ZM22.8795 27.7681H22.7105V26.3236H22.8949V26.8461C22.9717 26.7539 23.0793 26.7078 23.2022 26.7078C23.2637 26.7078 23.3405 26.7232 23.402 26.7539C23.4634 26.7846 23.5095 26.8154 23.5556 26.8615C23.6017 26.9076 23.6324 26.969 23.6478 27.0305C23.6785 27.092 23.6785 27.1688 23.6785 27.2456C23.6785 27.43 23.6324 27.5683 23.5402 27.6605C23.4481 27.7527 23.3251 27.8142 23.2022 27.8142C23.0639 27.8142 22.9717 27.7681 22.8949 27.6605L22.8795 27.7681ZM22.8795 27.2303C22.8795 27.3532 22.8949 27.4454 22.9256 27.5069C22.9871 27.5991 23.0639 27.6452 23.1715 27.6452C23.2483 27.6452 23.3251 27.6144 23.3866 27.5376C23.4481 27.4608 23.4788 27.3686 23.4788 27.2303C23.4788 27.092 23.4481 26.9998 23.3866 26.9229C23.3251 26.8615 23.2637 26.8307 23.1715 26.8307C23.0946 26.8307 23.0178 26.8615 22.9563 26.9383C22.9103 26.9998 22.8795 27.1073 22.8795 27.2303ZM23.909 26.5234V26.3236H24.0934V26.5234H23.909ZM23.909 27.7681V26.7231H24.0934V27.7681H23.909ZM24.2778 27.7681V27.6298L24.9846 26.8615C24.9078 26.8615 24.831 26.8615 24.7695 26.8615H24.3239V26.7231H25.2305V26.8461L24.6312 27.5069L24.5083 27.6298C24.6005 27.6298 24.6773 27.6144 24.7541 27.6144H25.2766V27.7681H24.2778Z" fill="white"/>
<path fill-rule="evenodd" clip-rule="evenodd" d="M10.6638 3.21177C10.5409 3.76498 10.4641 4.33355 10.4026 4.90213C10.8789 3.36544 11.3553 2.01314 11.9238 1.67507C12.5538 1.30626 13.0148 2.12071 13.3528 3.1964C13.9367 5.13264 14.0904 7.13034 13.9367 9.12804C13.8752 10.0193 13.5065 13.8918 12.1696 13.6459C11.5397 13.5384 11.0172 12.1553 10.5255 10.4189C10.5562 11.3409 10.6484 12.1553 10.8328 12.8622C11.0172 13.5845 11.6779 15.3056 12.5999 15.2595C14.6128 15.1519 15.0277 9.02047 14.9969 7.52988C14.9662 6.19296 14.413 0.0461749 12.6153 7.40096e-05C11.6011 -0.0152929 10.8328 2.36658 10.6638 3.21177Z" fill="#FFEE00"/>
<path fill-rule="evenodd" clip-rule="evenodd" d="M15.5962 3.70363C15.2735 3.79583 14.9508 3.91877 14.6281 4.0417L14.6435 4.16464C15.9496 3.91877 17.0559 3.79583 17.5322 4.07244C18.1622 4.44124 17.6705 5.25569 16.8869 6.05477C15.4732 7.49926 13.7984 8.59032 11.9699 9.4355C11.1555 9.8043 7.60599 11.3564 7.16038 10.0655C6.96063 9.45086 7.9133 8.34444 9.20402 7.06899C8.405 7.53 7.74428 8.02174 7.20648 8.51348C6.66868 9.02059 5.47015 10.419 5.96185 11.2181C7.02209 12.9238 12.5998 10.3268 13.8906 9.58917C15.043 8.92839 20.1598 5.47083 19.33 3.88803C18.8691 2.96602 16.4105 3.45776 15.5962 3.70363Z" fill="#FF0483"/>
<path fill-rule="evenodd" clip-rule="evenodd" d="M9.69562 3.70363C9.98757 3.79583 10.2334 3.87267 10.5254 3.98023C10.5254 3.98023 10.51 4.10317 10.51 4.1339C9.26538 3.9034 8.23588 3.79583 7.75954 4.07244C7.12954 4.44124 7.62125 5.25569 8.4049 6.05477C9.81854 7.49926 11.4934 8.59032 13.3219 9.4355C14.1363 9.8043 17.6858 11.3564 18.1314 10.0655C18.3004 9.55843 17.6551 8.68252 16.6717 7.65293L16.8253 7.53C17.3016 7.8527 17.7165 8.17541 18.0853 8.51348C18.6231 9.02059 19.8216 10.419 19.3299 11.2181C18.2697 12.9238 12.6919 10.3268 11.4012 9.58917C10.2488 8.92839 5.132 5.47083 5.96175 3.88803C6.42272 2.96602 8.88124 3.45776 9.69562 3.70363ZM10.679 4.05707C10.8941 4.1339 11.0939 4.22611 11.309 4.30294C11.0785 4.25684 10.848 4.21074 10.6329 4.16464L10.679 4.05707Z" fill="#6A91CC"/>
</svg>
