<svg width="12" height="12" viewBox="0 0 12 12" fill="none" xmlns="http://www.w3.org/2000/svg">
<path fill-rule="evenodd" clip-rule="evenodd" d="M6 0C9.31348 0 12 2.68652 12 6C12 9.31348 9.31348 12 6 12C2.68652 12 0 9.31348 0 6C0 2.68652 2.68652 0 6 0Z" fill="black" fill-opacity="0.7"/>
<path fill-rule="evenodd" clip-rule="evenodd" d="M1.14844 9.09961C0.794922 8.56348 0.530273 7.96289 0.375 7.31934L1.43164 7.8291L1.4375 8.14453C1.4375 8.26074 1.24023 8.50684 1.17676 8.60059L1.14844 9.09961ZM7.64746 0.634766C9.66113 1.30371 11.1719 3.07617 11.4629 5.23437L11.2725 5.21387C11.2383 5.36035 11.207 5.36328 11.207 5.53906C11.207 5.69434 11.4023 5.79785 11.4023 6.125C11.4023 6.21289 11.1963 6.3877 11.1875 6.41895L10.8818 6.06055V6.5166L10.8359 6.51465L10.7539 5.67285L10.583 5.72656L10.3799 5.10059L9.71094 5.7998L9.70313 6.31152L9.48438 6.45801L9.25195 5.14551L9.11328 5.24707L8.79883 4.82227L8.3291 4.83594L8.14941 4.62988L7.96484 4.68066L7.60254 4.26563L7.53223 4.31348L7.75684 4.8877H8.01758V4.75781H8.14746C8.24121 5.01758 8.34277 4.86328 8.34277 5.01855C8.34277 5.56055 7.67383 5.95898 7.23535 6.06055C7.25879 6.1582 7.25 6.25586 7.36524 6.25586C7.61035 6.25586 7.48828 6.21289 7.75586 6.19043C7.74316 6.74414 7.12109 7.40527 6.85547 7.81641L6.97461 8.66504C7.00586 8.84961 6.5918 9.04394 6.45117 9.25195L6.51856 9.57715L6.32813 9.6543C6.29492 9.98828 5.9707 10.3584 5.60645 10.3584H5.21582C5.21582 9.90137 4.88965 9.24805 4.88965 8.9248C4.88965 8.65039 5.01953 8.61328 5.01953 8.27344C5.01953 7.95898 4.69434 7.50879 4.69434 7.42676V6.90527H4.43359C4.39453 6.75977 4.41895 6.70996 4.23828 6.70996H4.17285C3.88867 6.70996 3.93652 6.83984 3.65137 6.83984H3.39063C3.15527 6.83984 2.73926 6.08594 2.73926 5.99316V5.21191C2.73926 4.875 3.04785 4.50781 3.26074 4.36523V4.04004L3.55371 3.74219L3.7168 3.71484C4.06641 3.71484 4.02441 3.51953 4.23828 3.51953H4.82422V3.97559L5.46875 4.25098L5.5293 3.97266C5.82129 4.04102 5.89746 4.1709 6.25684 4.1709H6.38672C6.63379 4.1709 6.64746 3.84277 6.64746 3.58496L6.12598 3.63672L5.89844 3.14258L5.67285 3.20215C5.71387 3.37891 5.73535 3.30566 5.73535 3.45508C5.73535 3.54297 5.66309 3.55273 5.60449 3.58496L5.37891 3.0127L4.89356 2.66602L4.8291 2.72949L5.24219 3.16406C5.1875 3.32031 5.18066 3.77051 4.95313 3.45508L5.16602 3.35254L4.63477 2.7959L4.31641 2.91992L4.00195 3.2207C3.96875 3.46289 3.90332 3.58496 3.64941 3.58496C3.48047 3.58496 3.58203 3.54102 3.32324 3.51953V2.86816H3.90918L3.71875 2.43457L3.64844 2.47754V2.34668L4.60059 1.9082C4.58301 1.77148 4.56055 1.84473 4.56055 1.69531C4.56055 1.68652 4.62402 1.56641 4.62598 1.56445L4.87207 1.71777L4.81348 1.4375L4.43359 1.51562L4.36328 1.1748C4.66406 1.0166 5.32715 0.458008 5.53809 0.458008H5.7334C5.93945 0.458008 6.49023 0.661133 6.58008 0.783203L6.05762 0.730469L6.44531 1.0498L6.48242 0.913086L6.77148 0.833984L6.77539 0.65332H6.90625V0.848633L7.64746 0.634766Z" fill="white"/>
</svg>
