<svg width="15" height="15" viewBox="0 0 15 15" fill="none" xmlns="http://www.w3.org/2000/svg">
<path d="M6.86768 4.25977H8.1716V5.56369H6.86768V4.25977Z" fill="white"/>
<path d="M7.51964 10.7792C7.87822 10.7792 8.1716 10.4858 8.1716 10.1273V7.5194C8.1716 7.16082 7.87822 6.86743 7.51964 6.86743C7.16106 6.86743 6.86768 7.16082 6.86768 7.5194V10.1273C6.86768 10.4858 7.16106 10.7792 7.51964 10.7792Z" fill="white"/>
<path d="M7.51964 1C3.9208 1 1 3.9208 1 7.51964C1 11.1185 3.9208 14.0393 7.51964 14.0393C11.1185 14.0393 14.0393 11.1185 14.0393 7.51964C14.0393 3.9208 11.1185 1 7.51964 1Z" stroke="white" stroke-width="0.869285"/>
</svg>
