<svg width="17" height="17" viewBox="0 0 17 17" fill="none" xmlns="http://www.w3.org/2000/svg">
<circle cx="8.49996" cy="8.50002" r="7.08333" stroke="white" stroke-opacity="0.5" stroke-width="1.275"/>
<path d="M8.7303 3.52052C8.99521 3.52052 9.20795 3.61685 9.36851 3.80952C9.53709 4.00219 9.61335 4.23901 9.5973 4.51998C9.58927 4.79292 9.49695 5.02573 9.32034 5.2184C9.14373 5.40303 8.92296 5.49535 8.65805 5.49535C8.3851 5.49535 8.16434 5.40303 7.99576 5.2184C7.8352 5.02573 7.75894 4.79292 7.76696 4.51998C7.78302 4.23901 7.88738 4.00219 8.08005 3.80952C8.27271 3.61685 8.48946 3.52052 8.7303 3.52052ZM8.30884 6.55502C8.72628 6.55502 9.01528 6.68346 9.17584 6.94035C9.34442 7.18921 9.42871 7.52638 9.42871 7.95185C9.42871 8.14452 9.40864 8.40542 9.36851 8.73456C9.32837 9.0637 9.28421 9.4089 9.23605 9.77015C9.18788 10.1314 9.14373 10.4605 9.10359 10.7576C9.06345 11.0546 9.04338 11.2713 9.04338 11.4078C9.04338 11.5363 9.06345 11.6205 9.10359 11.6607C9.14373 11.7008 9.18387 11.7209 9.22401 11.7209C9.32034 11.7209 9.41667 11.6527 9.51301 11.5162C9.60934 11.3797 9.70969 11.1309 9.81405 10.7696L10.4643 10.9623C10.4322 11.1309 10.368 11.3235 10.2716 11.5403C10.1833 11.757 10.0629 11.9657 9.91038 12.1664C9.75785 12.3591 9.57321 12.5197 9.35646 12.6481C9.14774 12.7765 8.90691 12.8408 8.63396 12.8408C8.19244 12.8408 7.88738 12.7204 7.7188 12.4795C7.55824 12.2387 7.47796 11.9055 7.47796 11.4801C7.47796 11.2473 7.49803 10.9703 7.53817 10.6492C7.57831 10.3281 7.62246 9.99894 7.67063 9.66177C7.72683 9.3246 7.77499 9.01152 7.81513 8.72252C7.85527 8.42549 7.87534 8.18065 7.87534 7.98798C7.87534 7.85151 7.85527 7.76722 7.81513 7.7351C7.77499 7.69497 7.73084 7.6749 7.68267 7.6749C7.59437 7.6749 7.50205 7.74313 7.40571 7.8796C7.30938 8.01608 7.20903 8.26494 7.10467 8.62619L6.45442 8.43352C6.48653 8.26494 6.55076 8.07227 6.64709 7.85552C6.74342 7.63877 6.86785 7.43406 7.02038 7.2414C7.18094 7.0407 7.36558 6.87613 7.5743 6.74769C7.79105 6.61924 8.03589 6.55502 8.30884 6.55502Z" fill="white" fill-opacity="0.5"/>
</svg>
