<svg width="12" height="12" viewBox="0 0 12 12" fill="none" xmlns="http://www.w3.org/2000/svg">
<path d="M6.07835 4.329C5.6442 4.329 5.29688 3.98268 5.29688 3.54978V0.779221C5.29688 0.34632 5.6442 0 6.07835 0C6.5125 0 6.85983 0.34632 6.85983 0.779221V3.54978C6.85983 3.98268 6.49514 4.329 6.07835 4.329Z" fill="#229FFF"/>
<path d="M4.22008 5.48931C4.11588 5.9049 3.68173 6.14732 3.26494 6.04343L0.573191 5.33347C0.156403 5.22957 -0.0867225 4.79667 0.0174743 4.38109C0.121671 3.9655 0.555824 3.72308 0.972612 3.82698L3.66436 4.53693C4.08115 4.64083 4.32428 5.07373 4.22008 5.48931Z" fill="#229FFF"/>
<path d="M7.7629 5.4544C7.8671 5.86999 8.30125 6.11241 8.71804 6.00851L11.4098 5.29856C11.8266 5.19466 12.0697 4.76176 11.9655 4.34618C11.8613 3.93059 11.4272 3.68817 11.0104 3.79206L8.31862 4.50202C7.90183 4.60592 7.64134 5.03882 7.7629 5.4544Z" fill="#229FFF"/>
<path d="M2.29252 11.1166C1.94519 10.8569 1.8931 10.372 2.15359 10.0257L3.85547 7.84389C4.11596 7.49757 4.60221 7.44562 4.94954 7.70536C5.29686 7.9651 5.34896 8.44995 5.08846 8.79627L3.38658 10.9781C3.12609 11.3244 2.63984 11.3764 2.29252 11.1166Z" fill="#229FFF"/>
<path d="M9.81184 11.0995C10.1592 10.8398 10.2113 10.3549 9.95077 10.0086L8.24889 7.80946C7.9884 7.46314 7.50214 7.4112 7.15482 7.67094C6.8075 7.93068 6.7554 8.41553 7.01589 8.76185L8.71777 10.9437C8.97827 11.3073 9.46452 11.3592 9.81184 11.0995Z" fill="#229FFF"/>
</svg>
