<svg width="19" height="12" viewBox="0 0 19 12" fill="none" xmlns="http://www.w3.org/2000/svg">
<path d="M16.944 0H1.37172C0.614115 0 0 0.614116 0 1.37172V10.6284C0 11.3859 0.614115 12 1.37172 12H16.944C17.7016 12 18.3158 11.3859 18.3158 10.6284V1.37172C18.3158 0.614116 17.7017 0 16.944 0Z" fill="#82C3D2"/>
<path d="M2.12915 1.4371C2.10056 1.31612 2.09344 1.27148 2.14776 1.2172C2.17423 1.19073 2.17423 1.14785 2.14776 1.12137C2.12128 1.0949 2.07839 1.0949 2.05191 1.12137C1.94202 1.23131 1.96824 1.34538 1.99667 1.46615C1.91004 1.43786 1.82017 1.45885 1.77203 1.5196C1.74813 1.54989 1.70191 1.63489 1.78852 1.77062C1.80866 1.80213 1.8503 1.81139 1.8821 1.79144C1.91369 1.77129 1.92289 1.72934 1.90274 1.69786C1.87026 1.64673 1.86929 1.61522 1.87838 1.6037C1.88911 1.59006 1.92239 1.58288 1.95722 1.59522C1.97973 1.60302 2.03202 1.63003 2.03202 1.71159C2.03202 1.77672 2.0019 1.83643 1.94938 1.87525C1.89677 1.91417 1.82866 1.92516 1.76301 1.90476C1.68195 1.88001 1.62532 1.79461 1.62532 1.69706C1.62532 1.62727 1.64027 1.55673 1.66775 1.49491C1.67211 1.48579 1.77571 1.27119 1.80239 1.19119C1.85517 1.03297 1.80154 0.953419 1.76494 0.920182C1.71597 0.875577 1.64439 0.864453 1.58279 0.891463C1.57341 0.895602 1.56569 0.901622 1.55757 0.907202C1.54945 0.901585 1.54169 0.895602 1.53235 0.891463C1.47078 0.864453 1.39924 0.87554 1.35019 0.920182C1.31359 0.953419 1.25997 1.03301 1.31274 1.19119C1.33942 1.27119 1.44299 1.48579 1.44646 1.49294C1.47482 1.55676 1.48982 1.6273 1.48982 1.6971C1.48982 1.79469 1.43322 1.88004 1.35212 1.9048C1.28623 1.92516 1.21833 1.91431 1.16575 1.87529C1.11323 1.83647 1.08311 1.7768 1.08311 1.71162C1.08311 1.63006 1.13541 1.60309 1.15791 1.59525C1.19286 1.58294 1.22595 1.59006 1.23675 1.60374C1.24584 1.61525 1.24487 1.64677 1.21239 1.69788C1.19225 1.72941 1.20145 1.7714 1.23303 1.79148C1.26487 1.81161 1.30666 1.8022 1.32662 1.77064C1.41322 1.63492 1.367 1.54996 1.34311 1.51963C1.29492 1.45889 1.2051 1.43786 1.11845 1.46619C1.14693 1.34545 1.17311 1.23131 1.06322 1.12141C1.03675 1.09494 0.993857 1.09494 0.967385 1.12141C0.940912 1.14788 0.940912 1.19077 0.967385 1.21724C1.02165 1.27151 1.01461 1.31612 0.985986 1.43714C0.968779 1.50964 0.947459 1.60009 0.947459 1.71156C0.947459 1.78575 0.973502 1.85664 1.0174 1.91492H1.01521C0.977759 1.91492 0.947423 1.94522 0.947423 1.98272C0.947423 2.0202 0.977723 2.0505 1.01521 2.0505H1.0174C0.973502 2.10874 0.947459 2.17967 0.947459 2.25384C0.947459 2.36531 0.968779 2.45574 0.985915 2.52828C1.0145 2.6493 1.02162 2.69392 0.967313 2.74818C0.940842 2.77465 0.940842 2.81755 0.967313 2.84402C0.980549 2.85726 0.997899 2.86388 1.01525 2.86388C1.03256 2.86388 1.04995 2.85726 1.06318 2.84402C1.17308 2.73409 1.14686 2.61997 1.11842 2.49923C1.20506 2.52743 1.29492 2.50653 1.34307 2.44579C1.36697 2.41549 1.41318 2.3305 1.32659 2.19478C1.30651 2.16326 1.26462 2.15388 1.233 2.17396C1.20141 2.19409 1.19222 2.23606 1.21236 2.26754C1.24484 2.31865 1.2458 2.35017 1.23672 2.36169C1.22595 2.37517 1.19283 2.38233 1.15788 2.37017C1.13537 2.36237 1.08307 2.33536 1.08307 2.2538C1.08307 2.18866 1.1132 2.12895 1.16571 2.09017C1.21833 2.05125 1.28638 2.04013 1.35208 2.06066C1.43315 2.08542 1.48978 2.17081 1.48978 2.26836C1.48978 2.33815 1.47482 2.40869 1.44642 2.47252L1.00244 3.4713C0.965954 3.55339 0.947423 3.64065 0.947423 3.7305C0.947423 3.84616 1.00001 3.95176 1.08279 4.01623C1.00005 4.08069 0.947423 4.18629 0.947423 4.30194C0.947423 4.39184 0.965989 4.47909 1.00244 4.56116L1.44635 5.55991C1.47471 5.62372 1.48971 5.69427 1.48971 5.76405C1.48971 5.86165 1.43311 5.947 1.35202 5.97176C1.28612 5.99229 1.21823 5.9813 1.16564 5.94224C1.11312 5.90342 1.083 5.84376 1.083 5.77862C1.083 5.69705 1.1353 5.67008 1.1578 5.66224C1.19275 5.65004 1.22585 5.65707 1.23664 5.67073C1.24573 5.68224 1.24476 5.71376 1.21229 5.76488C1.19215 5.7964 1.20134 5.83832 1.23293 5.85847C1.26476 5.8786 1.30655 5.8693 1.32651 5.83765C1.41311 5.70193 1.36689 5.61695 1.343 5.58662C1.29481 5.52585 1.20499 5.50496 1.11835 5.53318C1.14682 5.41244 1.17301 5.2983 1.06311 5.1884C1.03664 5.16193 0.99375 5.16193 0.967277 5.1884C0.940805 5.21487 0.940805 5.25777 0.967277 5.28423C1.02154 5.33851 1.0145 5.38311 0.985879 5.50413C0.968744 5.57661 0.947423 5.66704 0.947423 5.77851C0.947423 5.85267 0.973466 5.92361 1.01736 5.98188H1.01518C0.977723 5.98188 0.947388 6.01218 0.947388 6.04967C0.947388 6.08712 0.977687 6.11746 1.01518 6.11746H1.01736C0.973466 6.17573 0.947423 6.24664 0.947423 6.32083C0.947423 6.4323 0.968744 6.52273 0.985879 6.59528C1.01446 6.7163 1.02158 6.76091 0.967277 6.81517C0.940805 6.84164 0.940805 6.88454 0.967277 6.91101C0.980514 6.92425 0.997863 6.93087 1.01521 6.93087C1.03253 6.93087 1.04991 6.92425 1.06315 6.91101C1.17304 6.80108 1.14682 6.68696 1.11838 6.56624C1.20502 6.59442 1.29489 6.57353 1.34303 6.51279C1.36693 6.48248 1.41315 6.39749 1.32655 6.26177C1.30648 6.23025 1.26458 6.22087 1.23297 6.24095C1.20138 6.26108 1.19218 6.30305 1.21232 6.33453C1.2448 6.38565 1.24576 6.41717 1.23668 6.42868C1.22591 6.44231 1.19279 6.44943 1.15784 6.43716C1.13534 6.42937 1.08304 6.40236 1.08304 6.32079C1.08304 6.25565 1.11316 6.19594 1.16567 6.15717C1.2183 6.11824 1.28634 6.10712 1.35206 6.12766C1.43311 6.15241 1.48974 6.2378 1.48974 6.33535C1.48974 6.40514 1.47479 6.47569 1.44638 6.53951L1.00244 7.53844C0.965954 7.62049 0.947423 7.70778 0.947423 7.79764C0.947423 7.9133 1.00001 8.0189 1.08279 8.08337C1.00005 8.14779 0.947423 8.25342 0.947423 8.36908C0.947423 8.45897 0.965989 8.54623 1.00244 8.6283L1.44635 9.62701C1.47471 9.69087 1.48971 9.76145 1.48971 9.83117C1.48971 9.92873 1.43311 10.0142 1.35202 10.0389C1.28612 10.0594 1.21823 10.0483 1.16564 10.0094C1.11312 9.97061 1.083 9.9109 1.083 9.8457C1.083 9.76413 1.1353 9.73727 1.1578 9.72933C1.19275 9.71724 1.22585 9.7242 1.23664 9.73788C1.24573 9.74936 1.24476 9.78086 1.21229 9.83202C1.19215 9.86352 1.20134 9.90553 1.23293 9.92555C1.26476 9.9457 1.30655 9.93642 1.32651 9.9048C1.41311 9.76902 1.36689 9.68415 1.343 9.65375C1.29481 9.59282 1.20499 9.57206 1.11835 9.60027C1.14682 9.47963 1.17301 9.36546 1.06311 9.25556C1.03664 9.22907 0.99375 9.22907 0.967277 9.25556C0.940805 9.28206 0.940805 9.32492 0.967277 9.35142C1.02154 9.40563 1.0145 9.4502 0.985879 9.57133C0.968744 9.64374 0.947423 9.73409 0.947423 9.84558C0.947423 9.95181 0.998329 10.053 1.08343 10.1168C0.998329 10.1805 0.947423 10.2817 0.947423 10.388C0.947423 10.4994 0.968744 10.5898 0.985879 10.6623C1.01446 10.7833 1.02158 10.828 0.967277 10.8822C0.940805 10.9087 0.940805 10.9517 0.967277 10.9781C0.980514 10.9914 0.997863 10.998 1.01521 10.998C1.03253 10.998 1.04991 10.9914 1.06315 10.9781C1.17304 10.8682 1.14682 10.754 1.11838 10.6333C1.20502 10.6615 1.29489 10.6406 1.34303 10.5798C1.36693 10.5495 1.41315 10.4645 1.32655 10.3289C1.30648 10.2974 1.26458 10.2881 1.23297 10.308C1.20138 10.3281 1.19218 10.3701 1.21232 10.4016C1.2448 10.4527 1.24576 10.4842 1.23668 10.4958C1.22591 10.5093 1.19279 10.5164 1.15784 10.5042C1.13534 10.4964 1.08304 10.4694 1.08304 10.3878C1.08304 10.3228 1.11316 10.2631 1.16567 10.2242C1.2183 10.1853 1.28634 10.1743 1.35206 10.1947C1.43311 10.2195 1.48974 10.3048 1.48974 10.4024C1.48974 10.4722 1.47479 10.5427 1.44731 10.6046C1.44295 10.6136 1.33935 10.8283 1.31267 10.9083C1.2599 11.0665 1.31352 11.146 1.35012 11.1792C1.38142 11.2078 1.42174 11.2227 1.46295 11.2227C1.48631 11.2227 1.50999 11.2178 1.53231 11.208C1.54169 11.2039 1.54942 11.1979 1.55754 11.1923C1.56566 11.1979 1.57341 11.2039 1.58275 11.208C1.60503 11.2178 1.6288 11.2227 1.65212 11.2227C1.69322 11.2227 1.73361 11.2078 1.76494 11.1792C1.80154 11.146 1.85517 11.0664 1.80239 10.9083C1.77571 10.8283 1.67214 10.6137 1.66868 10.6065C1.64031 10.5427 1.62532 10.4721 1.62532 10.4024C1.62532 10.3048 1.68191 10.2195 1.76301 10.1947C1.82894 10.1743 1.8968 10.1853 1.94938 10.2241C2.0019 10.2629 2.03202 10.3226 2.03202 10.3878C2.03202 10.4694 1.97973 10.4964 1.95722 10.5042C1.92241 10.5164 1.88908 10.5093 1.87838 10.4957C1.86929 10.4842 1.87026 10.4527 1.90274 10.4015C1.92289 10.37 1.91369 10.3281 1.8821 10.308C1.85044 10.2881 1.80869 10.2974 1.78852 10.3287C1.70191 10.4645 1.74813 10.5495 1.77203 10.5798C1.82021 10.6406 1.91004 10.6615 1.99667 10.6333C1.9682 10.754 1.94202 10.8682 2.05191 10.9781C2.06515 10.9913 2.0825 10.9979 2.09985 10.9979C2.1172 10.9979 2.13456 10.9913 2.14778 10.9781C2.17425 10.9516 2.17425 10.9086 2.14778 10.8822C2.09352 10.828 2.10056 10.7833 2.12918 10.6623C2.14631 10.5898 2.16763 10.4993 2.16763 10.3878C2.16763 10.2816 2.11674 10.1805 2.03167 10.1168C2.11674 10.053 2.16763 9.95181 2.16763 9.84558C2.16763 9.73409 2.14631 9.64361 2.12918 9.57108C2.1006 9.4502 2.09348 9.40551 2.14778 9.35117C2.17425 9.3248 2.17425 9.28182 2.14778 9.25544C2.12132 9.22894 2.07842 9.22894 2.05195 9.25544C1.94206 9.36534 1.96827 9.47938 1.99671 9.60014C1.91008 9.57194 1.82021 9.5927 1.77206 9.65363C1.74817 9.68391 1.70195 9.76889 1.78856 9.90467C1.80869 9.93618 1.85033 9.94546 1.88214 9.92543C1.91373 9.90528 1.92291 9.8634 1.90278 9.8319C1.8703 9.78074 1.86933 9.74923 1.87842 9.73776C1.88915 9.72408 1.92241 9.71712 1.95726 9.72921C1.97976 9.73702 2.03206 9.76401 2.03206 9.84558C2.03206 9.91078 2.00194 9.97049 1.94942 10.0092C1.8968 10.0481 1.82869 10.0593 1.76305 10.0387C1.68199 10.014 1.62535 9.92861 1.62535 9.83104C1.62535 9.76132 1.64031 9.69075 1.66871 9.62688L2.11263 8.62815C2.14911 8.54608 2.16763 8.4588 2.16763 8.36893C2.16763 8.25329 2.11506 8.14768 2.03228 8.08322C2.11506 8.01876 2.16763 7.91315 2.16763 7.79751C2.16763 7.7076 2.14907 7.62036 2.11263 7.53829L1.66871 6.53954C1.64035 6.47573 1.62535 6.40518 1.62535 6.33538C1.62535 6.2378 1.68195 6.15245 1.76305 6.1277C1.82898 6.10734 1.89684 6.11828 1.94942 6.15721C2.00194 6.19601 2.03206 6.25569 2.03206 6.32083C2.03206 6.40239 1.97976 6.42937 1.95726 6.43719C1.92245 6.4495 1.88911 6.44238 1.87842 6.42872C1.86933 6.41721 1.8703 6.38569 1.90278 6.33457C1.92291 6.30305 1.91373 6.26108 1.88214 6.24098C1.85048 6.22113 1.80873 6.2304 1.78856 6.2618C1.70195 6.39752 1.74817 6.48248 1.77206 6.51283C1.82024 6.57356 1.91008 6.59449 1.99671 6.56627C1.96824 6.687 1.94206 6.80115 2.05195 6.91105C2.06519 6.92428 2.08254 6.9309 2.09989 6.9309C2.11724 6.9309 2.13458 6.92428 2.14782 6.91105C2.17429 6.88458 2.17429 6.84164 2.14782 6.81521C2.09355 6.76094 2.1006 6.71634 2.12922 6.59532C2.14635 6.52277 2.16767 6.43233 2.16767 6.32087C2.16767 6.24667 2.14164 6.17577 2.09774 6.1175H2.09993C2.13738 6.1175 2.16771 6.08719 2.16771 6.04971C2.16771 6.01226 2.13741 5.98191 2.09993 5.98191H2.09774C2.14164 5.92365 2.16767 5.85278 2.16767 5.77855C2.16767 5.66708 2.14635 5.57665 2.12922 5.50409C2.10063 5.38307 2.09352 5.33847 2.14782 5.28421C2.17429 5.25773 2.17429 5.21484 2.14782 5.18837C2.12134 5.16189 2.07846 5.16189 2.05199 5.18837C1.94209 5.2983 1.96831 5.41242 1.99675 5.53314C1.91011 5.50496 1.82024 5.52585 1.7721 5.58659C1.7482 5.61689 1.70199 5.70189 1.78858 5.83761C1.80873 5.86912 1.85037 5.87828 1.88218 5.85843C1.91375 5.83828 1.92295 5.79633 1.90281 5.76485C1.87033 5.71372 1.86937 5.68221 1.87845 5.67069C1.88919 5.65707 1.92245 5.65004 1.9573 5.66222C1.9798 5.67001 2.0321 5.69702 2.0321 5.77858C2.0321 5.84373 2.00197 5.90342 1.94946 5.94221C1.89684 5.98113 1.82873 5.99211 1.76309 5.97172C1.68202 5.94697 1.62539 5.86158 1.62539 5.76402C1.62539 5.69423 1.64035 5.62368 1.66875 5.55987L2.11266 4.56112C2.14915 4.47906 2.16767 4.39178 2.16767 4.30191C2.16767 4.18626 2.11509 4.08065 2.0323 4.01619C2.11509 3.95176 2.16767 3.84613 2.16767 3.73047C2.16767 3.64057 2.14911 3.55333 2.11266 3.47126L1.66875 2.47252C1.64038 2.40869 1.62539 2.33815 1.62539 2.26836C1.62539 2.17077 1.68199 2.08542 1.76309 2.06066C1.82901 2.0403 1.89688 2.05125 1.94946 2.09017C2.00197 2.12899 2.0321 2.18866 2.0321 2.2538C2.0321 2.33536 1.9798 2.36233 1.9573 2.37017C1.92248 2.38237 1.88915 2.37521 1.87845 2.36169C1.86937 2.35017 1.87033 2.31865 1.90281 2.26754C1.92295 2.23602 1.91375 2.19406 1.88218 2.17396C1.85051 2.1541 1.80877 2.16322 1.78858 2.19474C1.70199 2.33046 1.7482 2.41542 1.7721 2.44576C1.82028 2.5065 1.91011 2.52743 1.99675 2.4992C1.96827 2.61993 1.94209 2.73409 2.05199 2.84398C2.06522 2.85722 2.08258 2.86384 2.09993 2.86384C2.11724 2.86384 2.13462 2.85722 2.14785 2.84398C2.17433 2.81751 2.17433 2.77462 2.14785 2.74814C2.09359 2.69388 2.10063 2.64928 2.12926 2.52824C2.14639 2.4557 2.16771 2.36527 2.16771 2.2538C2.16771 2.17961 2.14167 2.1087 2.09778 2.05044H2.09995C2.13741 2.05044 2.16774 2.02013 2.16774 1.98264C2.16774 1.94514 2.13745 1.91485 2.09995 1.91485H2.09778C2.14167 1.85658 2.16771 1.78571 2.16771 1.71148C2.16757 1.60009 2.14624 1.50964 2.12915 1.4371ZM1.44123 1.1482C1.41716 1.07594 1.42556 1.03477 1.44145 1.02031C1.45182 1.0105 1.46756 1.01091 1.47754 1.01541C1.48978 1.02081 1.48978 1.02943 1.48978 1.03369C1.48978 1.07114 1.52007 1.10148 1.55757 1.10148C1.59502 1.10148 1.62535 1.07118 1.62535 1.03369C1.62535 1.02947 1.62535 1.02085 1.63759 1.01541C1.64739 1.01091 1.66302 1.0105 1.67368 1.02031C1.6896 1.03477 1.69802 1.07594 1.6739 1.1482C1.65637 1.20061 1.59295 1.33705 1.55761 1.41109C1.52298 1.33876 1.45887 1.20096 1.44123 1.1482ZM1.55754 3.94514C1.57699 3.97159 1.59899 3.99619 1.62576 4.01623C1.59899 4.03629 1.57699 4.06087 1.55754 4.08731C1.53807 4.06087 1.51607 4.03626 1.48932 4.01623C1.51607 3.99612 1.53807 3.97159 1.55754 3.94514ZM1.55754 8.01218C1.57699 8.03862 1.59899 8.06322 1.62576 8.08326C1.59899 8.10333 1.57699 8.1279 1.55754 8.15433C1.53807 8.1279 1.51607 8.10329 1.48932 8.08326C1.51607 8.06322 1.53807 8.03871 1.55754 8.01218ZM1.67383 10.9514C1.69791 11.0236 1.68949 11.0648 1.67361 11.0792C1.66295 11.0888 1.64732 11.0885 1.63751 11.0841C1.62528 11.0787 1.62528 11.0702 1.62528 11.0659C1.62528 11.0284 1.59499 10.9981 1.5575 10.9981C1.52 10.9981 1.48971 11.0284 1.48971 11.0659C1.48971 11.07 1.48971 11.0787 1.47747 11.0841C1.46753 11.0885 1.45178 11.089 1.44138 11.0792C1.42545 11.0648 1.41709 11.0236 1.44116 10.9514C1.45869 10.899 1.52211 10.7625 1.55746 10.6885C1.59205 10.7608 1.65616 10.8986 1.67383 10.9514ZM1.62511 10.1169C1.59945 10.1368 1.57671 10.1607 1.55754 10.1877C1.53839 10.1607 1.5156 10.1368 1.48995 10.1169C1.5156 10.0969 1.53835 10.0729 1.55754 10.0459C1.57667 10.0729 1.59938 10.0969 1.62511 10.1169ZM1.98863 8.57313L1.5575 9.54312L1.12636 8.57313C1.09799 8.50932 1.083 8.43877 1.083 8.36897C1.083 8.27138 1.1396 8.186 1.22069 8.16128C1.28655 8.14089 1.35456 8.15187 1.40707 8.19079C1.45958 8.2296 1.48971 8.28927 1.48971 8.35445C1.48971 8.43602 1.43741 8.46299 1.4149 8.47082C1.37996 8.48302 1.34672 8.47601 1.33606 8.46234C1.32698 8.45082 1.32794 8.4193 1.36042 8.36819C1.38056 8.33667 1.37137 8.29474 1.33979 8.27461C1.30812 8.25475 1.26638 8.26402 1.2462 8.29543C1.15963 8.43115 1.20581 8.51611 1.22971 8.54645C1.27879 8.60841 1.37112 8.62973 1.45941 8.59886C1.46946 8.59534 1.47966 8.59106 1.48971 8.5859V8.75733C1.48971 8.75729 1.4896 8.75722 1.4896 8.75722C1.48756 8.72151 1.45801 8.69337 1.42195 8.69337C1.3845 8.69337 1.35416 8.72366 1.35416 8.76115C1.35416 8.80537 1.38507 8.88207 1.48974 8.90582V9.03228C1.48974 9.06972 1.52004 9.10012 1.55754 9.10012C1.59499 9.10012 1.62532 9.06972 1.62532 9.03228V8.90582C1.72996 8.88207 1.7609 8.80537 1.7609 8.76115C1.7609 8.7237 1.73067 8.69114 1.69326 8.69114C1.65579 8.69114 1.62561 8.71923 1.62561 8.75668C1.62557 8.75679 1.62535 8.75697 1.62532 8.75708V8.58598C1.63538 8.59109 1.64557 8.59541 1.65562 8.59892C1.7439 8.62976 1.8362 8.60844 1.88531 8.54651C1.90921 8.51622 1.95544 8.43122 1.86883 8.2955C1.84868 8.26398 1.80687 8.25472 1.77525 8.27468C1.74366 8.29482 1.73447 8.33678 1.7546 8.36826C1.78708 8.41937 1.78806 8.45089 1.77896 8.46242C1.76824 8.47604 1.73504 8.48305 1.70012 8.47089C1.67763 8.46309 1.62532 8.43608 1.62532 8.35453C1.62532 8.28938 1.65544 8.22967 1.70796 8.19086C1.76058 8.15194 1.82869 8.14082 1.89434 8.16134C1.97539 8.18611 2.03202 8.27149 2.03202 8.36904C2.03202 8.43877 2.01707 8.50938 1.98863 8.57313ZM1.98863 7.59346C2.01701 7.65727 2.03199 7.72782 2.03199 7.7976C2.03199 7.8952 1.97539 7.98055 1.8943 8.0053C1.82851 8.02584 1.76044 8.01472 1.70792 7.97579C1.6554 7.93698 1.62528 7.87731 1.62528 7.81217C1.62528 7.73061 1.67759 7.70363 1.70008 7.69581C1.73497 7.6836 1.76824 7.69062 1.77892 7.70428C1.78802 7.71579 1.78706 7.74731 1.75456 7.79844C1.73443 7.82995 1.74362 7.87187 1.77521 7.89202C1.80705 7.91215 1.84883 7.90286 1.86879 7.8712C1.9554 7.73546 1.90917 7.65052 1.88528 7.62017C1.83617 7.55822 1.74387 7.53714 1.65559 7.56777C1.64554 7.57127 1.63534 7.5756 1.62528 7.58068V7.40922L1.62539 7.40943C1.62743 7.44503 1.65698 7.47326 1.69304 7.47326C1.7305 7.47326 1.76083 7.44295 1.76083 7.40546C1.76083 7.36125 1.72992 7.28455 1.62526 7.26081V7.13434C1.62526 7.09689 1.59495 7.06655 1.55746 7.06655C1.52 7.06655 1.48967 7.09685 1.48967 7.13434V7.26081C1.38504 7.28455 1.35408 7.36125 1.35408 7.40546C1.35408 7.44291 1.38432 7.47548 1.42174 7.47548C1.45919 7.47548 1.48939 7.44739 1.48939 7.40993C1.48943 7.40983 1.48963 7.40965 1.48963 7.40965L1.48967 7.58065C1.47962 7.57557 1.46942 7.5712 1.45938 7.56773C1.37108 7.53714 1.27876 7.55818 1.22967 7.62014C1.20578 7.65044 1.15956 7.73544 1.24617 7.87116C1.2663 7.90268 1.30812 7.91183 1.33975 7.89198C1.37134 7.87183 1.38053 7.82988 1.36038 7.7984C1.3279 7.74727 1.32694 7.71576 1.33602 7.70424C1.34668 7.69062 1.37992 7.68359 1.41487 7.69577C1.43737 7.70356 1.48967 7.73057 1.48967 7.81214C1.48967 7.87728 1.45955 7.93698 1.40703 7.97576C1.35441 8.01468 1.28644 8.02581 1.22066 8.00527C1.1396 7.98052 1.08297 7.89513 1.08297 7.79757C1.08297 7.72778 1.09792 7.65723 1.12632 7.59342L1.55746 6.62339L1.98863 7.59346ZM1.62511 6.04978C1.59945 6.06974 1.57671 6.09364 1.55754 6.12064C1.53839 6.09364 1.5156 6.06977 1.48995 6.04978C1.5156 6.02982 1.53835 6.00592 1.55754 5.97891C1.57667 6.00592 1.59938 6.02978 1.62511 6.04978ZM1.98863 4.5061L1.5575 5.47612L1.12636 4.5061C1.09799 4.44228 1.083 4.37174 1.083 4.30194C1.083 4.20436 1.1396 4.11901 1.22069 4.09424C1.28655 4.07385 1.35456 4.08484 1.40707 4.12376C1.45958 4.16257 1.48971 4.22225 1.48971 4.28743C1.48971 4.36898 1.43741 4.39595 1.4149 4.40379C1.37996 4.4161 1.34672 4.40898 1.33606 4.39532C1.32698 4.38379 1.32794 4.35228 1.36042 4.30116C1.38056 4.26965 1.37137 4.22772 1.33979 4.20758C1.30812 4.18758 1.26638 4.19685 1.2462 4.22833C1.15963 4.36405 1.20581 4.44901 1.22971 4.47934C1.27879 4.54131 1.37112 4.56248 1.45941 4.53175C1.46946 4.52824 1.47966 4.52395 1.48971 4.51884V4.69026L1.4896 4.69004C1.48756 4.65445 1.45801 4.62623 1.42195 4.62623C1.3845 4.62623 1.35416 4.65652 1.35416 4.69402C1.35416 4.73824 1.38507 4.81493 1.48974 4.83868V4.96514C1.48974 5.00259 1.52004 5.03293 1.55754 5.03293C1.59499 5.03293 1.62532 5.00263 1.62532 4.96514V4.83868C1.72996 4.81493 1.7609 4.73824 1.7609 4.69402C1.7609 4.65656 1.73067 4.62397 1.69326 4.62397C1.65579 4.62397 1.62561 4.65206 1.62561 4.6895C1.62557 4.68961 1.62535 4.6898 1.62535 4.6898L1.62532 4.5188C1.63538 4.52392 1.64557 4.52824 1.65562 4.53172C1.7439 4.56241 1.8362 4.54127 1.88531 4.47931C1.90921 4.44901 1.95544 4.36401 1.86883 4.22829C1.84868 4.19663 1.80687 4.1874 1.77525 4.20754C1.74366 4.22768 1.73447 4.26965 1.7546 4.30113C1.78708 4.35224 1.78806 4.38375 1.77896 4.39528C1.76824 4.40891 1.73504 4.4161 1.70012 4.40375C1.67763 4.39595 1.62532 4.36894 1.62532 4.28739C1.62532 4.22225 1.65544 4.16254 1.70796 4.12372C1.76058 4.0848 1.82869 4.07383 1.89434 4.09421C1.97539 4.11897 2.03202 4.20436 2.03202 4.30191C2.03202 4.3717 2.01707 4.44224 1.98863 4.5061ZM1.98863 3.52636C2.01701 3.59017 2.03199 3.66072 2.03199 3.7305C2.03199 3.8281 1.97539 3.91345 1.8943 3.9382C1.82851 3.95874 1.76044 3.94762 1.70792 3.90869C1.6554 3.86987 1.62528 3.81021 1.62528 3.74503C1.62528 3.66347 1.67759 3.6365 1.70008 3.62867C1.73497 3.61646 1.76824 3.62348 1.77892 3.63714C1.78802 3.64866 1.78706 3.68017 1.75456 3.7313C1.73443 3.76281 1.74362 3.80477 1.77521 3.82488C1.80705 3.84488 1.84883 3.83572 1.86879 3.8041C1.9554 3.66836 1.90917 3.5834 1.88528 3.55307C1.83617 3.49112 1.74387 3.46993 1.65559 3.50067C1.64554 3.50413 1.63534 3.50847 1.62528 3.51358V3.34216C1.62528 3.3422 1.62539 3.34226 1.62539 3.34226C1.62743 3.37796 1.65698 3.40612 1.69304 3.40612C1.7305 3.40612 1.76083 3.37581 1.76083 3.33833C1.76083 3.29411 1.72992 3.21742 1.62526 3.19367V3.0672C1.62526 3.02975 1.59495 2.99941 1.55746 2.99941C1.52 2.99941 1.48967 3.02972 1.48967 3.0672V3.19367C1.38504 3.21742 1.35408 3.29411 1.35408 3.33833C1.35408 3.37579 1.38432 3.40837 1.42174 3.40837C1.45919 3.40837 1.48939 3.38029 1.48939 3.34283C1.48943 3.34273 1.48963 3.34255 1.48967 3.34244V3.51355C1.47962 3.50843 1.46942 3.5041 1.45938 3.50063C1.37108 3.46993 1.27876 3.49108 1.22967 3.55304C1.20578 3.58334 1.15956 3.66834 1.24617 3.80406C1.2663 3.83558 1.30812 3.84473 1.33975 3.82484C1.37134 3.80469 1.38053 3.76274 1.36038 3.73126C1.3279 3.68014 1.32694 3.64862 1.33602 3.63711C1.34668 3.62348 1.37992 3.61646 1.41487 3.62863C1.43737 3.63642 1.48967 3.66343 1.48967 3.745C1.48967 3.81014 1.45955 3.86984 1.40703 3.90866C1.35441 3.94758 1.28644 3.95871 1.22066 3.93817C1.1396 3.91342 1.08297 3.82803 1.08297 3.73047C1.08297 3.66068 1.09792 3.59013 1.12632 3.52632L1.55746 2.55629L1.98863 3.52636ZM1.48993 1.98272C1.51557 1.96275 1.53832 1.93886 1.5575 1.91185C1.57663 1.93886 1.59938 1.96272 1.62507 1.98272C1.59942 2.00267 1.57667 2.02656 1.5575 2.05357C1.53835 2.0265 1.51564 2.00261 1.48993 1.98272Z" fill="#FFE15A"/>
<path d="M9.68544 6.88137C10.5865 6.88137 11.3169 6.15093 11.3169 5.24991C11.3169 4.34887 10.5865 3.61844 9.68544 3.61844C8.78442 3.61844 8.05399 4.34887 8.05399 5.24991C8.05399 6.15093 8.78442 6.88137 9.68544 6.88137Z" fill="#FFE15A"/>
<path d="M9.80761 3.16947C9.80761 3.23704 9.75281 3.29185 9.68524 3.29185C9.61767 3.29185 9.56287 3.23704 9.56287 3.16947C9.56287 3.10189 9.68524 2.80237 9.68524 2.80237C9.68524 2.80237 9.80761 3.10189 9.80761 3.16947Z" fill="#FFE15A"/>
<path d="M9.56287 7.33049C9.56287 7.2629 9.61767 7.2081 9.68524 7.2081C9.75281 7.2081 9.80761 7.2629 9.80761 7.33049C9.80761 7.39806 9.68524 7.69758 9.68524 7.69758C9.68524 7.69758 9.56287 7.3981 9.56287 7.33049Z" fill="#FFE15A"/>
<path d="M11.7656 5.37252C11.698 5.37252 11.6432 5.31771 11.6432 5.25014C11.6432 5.18256 11.698 5.12776 11.7656 5.12776C11.8332 5.12776 12.1327 5.25014 12.1327 5.25014C12.1327 5.25014 11.8332 5.37252 11.7656 5.37252Z" fill="#FFE15A"/>
<path d="M7.60518 5.12776C7.67275 5.12776 7.72755 5.18256 7.72755 5.25014C7.72755 5.31771 7.67275 5.37252 7.60518 5.37252C7.5376 5.37252 7.23807 5.25014 7.23807 5.25014C7.23807 5.25014 7.5376 5.12776 7.60518 5.12776Z" fill="#FFE15A"/>
<path d="M11.2431 3.86575C11.1953 3.91354 11.1178 3.91354 11.07 3.86575C11.0222 3.81796 11.0222 3.74047 11.07 3.69268C11.1178 3.64492 11.4161 3.51961 11.4161 3.51961C11.4161 3.51961 11.2909 3.81796 11.2431 3.86575Z" fill="#FFE15A"/>
<path d="M8.1279 6.63432C8.17569 6.58653 8.25313 6.58653 8.30096 6.63432C8.34879 6.68212 8.34875 6.75955 8.30096 6.80738C8.25317 6.85521 7.95486 6.98041 7.95486 6.98041C7.95486 6.98041 8.08011 6.68212 8.1279 6.63432Z" fill="#FFE15A"/>
<path d="M11.0702 6.80755C11.0224 6.75975 11.0224 6.6823 11.0702 6.63448C11.118 6.58665 11.1954 6.58668 11.2432 6.63448C11.291 6.68227 11.4163 6.98057 11.4163 6.98057C11.4163 6.98057 11.1179 6.85534 11.0702 6.80755Z" fill="#FFE15A"/>
<path d="M8.30086 3.6928C8.34865 3.74059 8.34865 3.81803 8.30086 3.86585C8.25306 3.91368 8.17561 3.91365 8.12778 3.86585C8.07996 3.81806 7.95471 3.51976 7.95471 3.51976C7.95471 3.51976 8.25306 3.64504 8.30086 3.6928Z" fill="#FFE15A"/>
<path d="M9.00259 3.28152C9.02845 3.34397 8.9988 3.41553 8.93633 3.44139C8.87388 3.46725 8.80232 3.43759 8.77646 3.37513C8.7506 3.31268 8.74902 2.98914 8.74902 2.98914C8.74902 2.98914 8.97672 3.21906 9.00259 3.28152Z" fill="#FFE15A"/>
<path d="M10.3688 7.21902C10.3429 7.15655 10.3725 7.08501 10.435 7.05915C10.4975 7.03329 10.569 7.06294 10.5949 7.1254C10.6208 7.18786 10.6223 7.5114 10.6223 7.5114C10.6223 7.5114 10.3946 7.28152 10.3688 7.21902Z" fill="#FFE15A"/>
<path d="M11.6541 4.56687C11.5917 4.59274 11.5201 4.56309 11.4943 4.50063C11.4684 4.43818 11.498 4.36664 11.5605 4.34076C11.623 4.3149 11.9465 4.31332 11.9465 4.31332C11.9465 4.31332 11.7166 4.54098 11.6541 4.56687Z" fill="#FFE15A"/>
<path d="M7.71662 5.9329C7.77908 5.90704 7.85063 5.9367 7.87649 5.99915C7.90235 6.06162 7.8727 6.13316 7.81024 6.15904C7.74778 6.1849 7.42424 6.18647 7.42424 6.18647C7.42424 6.18647 7.65415 5.95881 7.71662 5.9329Z" fill="#FFE15A"/>
<path d="M10.5947 3.37463C10.5688 3.43708 10.4972 3.46671 10.4348 3.44088C10.3724 3.41502 10.3428 3.34343 10.3686 3.28101C10.3944 3.21855 10.6221 2.98868 10.6221 2.98868C10.6221 2.98868 10.6205 3.31221 10.5947 3.37463Z" fill="#FFE15A"/>
<path d="M8.77642 7.12525C8.80229 7.06279 8.87388 7.03317 8.9363 7.059C8.99872 7.08486 9.02838 7.15644 9.00255 7.21887C8.97669 7.28133 8.74902 7.51119 8.74902 7.51119C8.74902 7.51119 8.75056 7.18763 8.77642 7.12525Z" fill="#FFE15A"/>
<path d="M11.5604 6.15901C11.4979 6.13314 11.4683 6.06156 11.4941 5.99914C11.52 5.93668 11.5915 5.90706 11.654 5.93288C11.7164 5.95874 11.9463 6.18641 11.9463 6.18641C11.9463 6.18641 11.6228 6.18491 11.5604 6.15901Z" fill="#FFE15A"/>
<path d="M7.81033 4.34074C7.8728 4.3666 7.90241 4.43818 7.87658 4.5006C7.85072 4.56307 7.77914 4.59268 7.71672 4.56685C7.65425 4.54099 7.42438 4.31332 7.42438 4.31332C7.42438 4.31332 7.74794 4.31483 7.81033 4.34074Z" fill="#FFE15A"/>
<path d="M9.39978 3.18566C9.41299 3.25195 9.36992 3.31638 9.30363 3.32954C9.23733 3.34274 9.1729 3.29967 9.15974 3.23338C9.14654 3.1671 9.20814 2.84947 9.20814 2.84947C9.20814 2.84947 9.38658 3.11939 9.39978 3.18566Z" fill="#FFE15A"/>
<path d="M9.97142 7.31412C9.95822 7.24783 10.0013 7.1834 10.0676 7.17024C10.1339 7.15704 10.1983 7.20011 10.2115 7.2664C10.2247 7.33269 10.1631 7.65031 10.1631 7.65031C10.1631 7.65031 9.98459 7.38044 9.97142 7.31412Z" fill="#FFE15A"/>
<path d="M11.7498 4.96407C11.6835 4.97727 11.6191 4.93423 11.6059 4.86791C11.5927 4.80162 11.6358 4.7372 11.7021 4.72404C11.7684 4.71084 12.086 4.77244 12.086 4.77244C12.086 4.77244 11.8161 4.95087 11.7498 4.96407Z" fill="#FFE15A"/>
<path d="M7.62136 5.53572C7.68765 5.52252 7.75208 5.56555 7.76524 5.63188C7.77844 5.69816 7.73537 5.76258 7.66908 5.77574C7.60279 5.78894 7.28517 5.72735 7.28517 5.72735C7.28517 5.72735 7.55507 5.54892 7.62136 5.53572Z" fill="#FFE15A"/>
<path d="M10.9428 3.58837C10.9052 3.64456 10.8292 3.65966 10.773 3.6221C10.7168 3.58457 10.7017 3.50856 10.7393 3.45235C10.7768 3.39619 11.045 3.2151 11.045 3.2151C11.045 3.2151 10.9803 3.53212 10.9428 3.58837Z" fill="#FFE15A"/>
<path d="M8.42821 6.91162C8.46573 6.85546 8.54175 6.84032 8.59794 6.87788C8.65415 6.91541 8.66924 6.99142 8.63168 7.04763C8.59416 7.10378 8.326 7.28487 8.326 7.28487C8.326 7.28487 8.39068 6.96789 8.42821 6.91162Z" fill="#FFE15A"/>
<path d="M11.347 6.50735C11.2908 6.46981 11.2757 6.3938 11.3133 6.3376C11.3508 6.28143 11.4268 6.2663 11.483 6.30386C11.5392 6.3414 11.7203 6.60955 11.7203 6.60955C11.7203 6.60955 11.4032 6.54487 11.347 6.50735Z" fill="#FFE15A"/>
<path d="M8.02404 3.99251C8.08025 4.03003 8.09538 4.10605 8.05778 4.16226C8.02026 4.21845 7.94423 4.23355 7.88804 4.19599C7.83185 4.15842 7.6508 3.8903 7.6508 3.8903C7.6508 3.8903 7.96789 3.95498 8.02404 3.99251Z" fill="#FFE15A"/>
<path d="M8.63168 3.45232C8.66922 3.50852 8.65411 3.58451 8.59796 3.62207C8.54175 3.65959 8.46577 3.6445 8.42821 3.58833C8.39068 3.53212 8.326 3.2151 8.326 3.2151C8.326 3.2151 8.59416 3.39619 8.63168 3.45232Z" fill="#FFE15A"/>
<path d="M10.7395 7.0476C10.702 6.99141 10.7171 6.91542 10.7733 6.87787C10.8295 6.84034 10.9055 6.85543 10.943 6.9116C10.9805 6.9678 11.0452 7.2848 11.0452 7.2848C11.0452 7.2848 10.7771 7.1038 10.7395 7.0476Z" fill="#FFE15A"/>
<path d="M11.4833 4.19599C11.4271 4.23352 11.3511 4.21843 11.3136 4.16226C11.276 4.10605 11.2911 4.03007 11.3473 3.99251C11.4035 3.95498 11.7205 3.8903 11.7205 3.8903C11.7205 3.8903 11.5395 4.15846 11.4833 4.19599Z" fill="#FFE15A"/>
<path d="M7.88802 6.30384C7.94418 6.26632 8.0202 6.28141 8.05775 6.33758C8.09529 6.39377 8.08019 6.46976 8.02403 6.50732C7.96782 6.54484 7.6508 6.60952 7.6508 6.60952C7.6508 6.60952 7.83181 6.3414 7.88802 6.30384Z" fill="#FFE15A"/>
<path d="M10.2115 3.2335C10.1983 3.29977 10.1339 3.34285 10.0676 3.32965C10.0013 3.31645 9.95822 3.25206 9.97142 3.18576C9.98462 3.11949 10.163 2.84961 10.163 2.84961C10.163 2.84961 10.2246 3.16717 10.2115 3.2335Z" fill="#FFE15A"/>
<path d="M9.15988 7.2664C9.17308 7.20011 9.23748 7.15704 9.30376 7.17024C9.37005 7.18344 9.41311 7.24783 9.39991 7.31412C9.38672 7.38041 9.20828 7.65027 9.20828 7.65027C9.20828 7.65027 9.14672 7.33273 9.15988 7.2664Z" fill="#FFE15A"/>
<path d="M11.7021 5.77577C11.6358 5.76257 11.5927 5.69817 11.6059 5.63188C11.6191 5.56559 11.6835 5.52252 11.7498 5.53572C11.8161 5.54892 12.086 5.72736 12.086 5.72736C12.086 5.72736 11.7684 5.78893 11.7021 5.77577Z" fill="#FFE15A"/>
<path d="M7.66908 4.72418C7.73537 4.73738 7.77844 4.80177 7.76524 4.86806C7.75204 4.93435 7.68765 4.97743 7.62136 4.96423C7.55507 4.95102 7.28517 4.77258 7.28517 4.77258C7.28517 4.77258 7.60279 4.71102 7.66908 4.72418Z" fill="#FFE15A"/>
<path d="M13.5233 5.6794C13.4754 5.6593 13.4208 5.68233 13.4009 5.72984C13.4009 5.73006 13.4009 5.73006 13.4009 5.73006C13.4006 5.73095 13.3987 5.73535 13.3955 5.74286C13.3247 5.90807 13.1784 6.14949 13.0307 6.37662C13.1683 5.93363 13.2941 5.4605 13.3029 5.42724C13.3161 5.37754 13.2866 5.32654 13.2371 5.31305C13.1874 5.2997 13.1363 5.32862 13.1224 5.37808C13.0582 5.60818 12.9268 5.911 12.8057 6.16734C12.8279 5.88152 12.832 5.61672 12.8323 5.59755C12.833 5.54693 12.7934 5.50508 12.7428 5.50268C12.6952 5.50415 12.6492 5.53888 12.6455 5.58947C12.5257 7.23746 10.9399 7.97467 10.7854 8.04249C10.7047 8.05055 10.3284 8.09293 9.98685 8.21152C9.94807 8.22497 9.91516 8.23845 9.88233 8.25184C9.87013 8.24726 9.85703 8.24468 9.84325 8.2455C8.79504 8.32134 7.95924 7.89136 7.35855 6.97012C6.9047 6.27405 6.76236 5.54342 6.76095 5.53613C6.75137 5.48534 6.70272 5.4526 6.65171 5.46158C6.60091 5.47123 6.56754 5.52003 6.57716 5.57084C6.58095 5.59101 6.6434 5.90992 6.8154 6.32965C6.58528 5.96637 6.42491 5.52629 6.36846 5.2971C6.36731 5.29252 6.36438 5.28904 6.36266 5.28483C6.36005 5.27835 6.3578 5.27184 6.3539 5.26622C6.35115 5.26225 6.34753 5.25936 6.34427 5.25589C6.33917 5.25048 6.33426 5.24519 6.32799 5.24115C6.32442 5.23882 6.32041 5.23767 6.31652 5.23585C6.30962 5.23263 6.30285 5.22945 6.29516 5.22805C6.28982 5.22701 6.28439 5.2277 6.27885 5.22759C6.27323 5.22751 6.26794 5.22608 6.26222 5.22709C6.26096 5.2273 6.25999 5.22816 6.25875 5.22844C6.25753 5.2287 6.25638 5.22831 6.25517 5.22855C6.25015 5.22977 6.24633 5.23292 6.24175 5.23489C6.23591 5.23743 6.22994 5.23932 6.22483 5.24286C6.21978 5.24633 6.21604 5.25083 6.21185 5.25517C6.20766 5.25947 6.2033 5.26325 6.2 5.26822C6.19668 5.27327 6.19489 5.27896 6.19253 5.28457C6.19027 5.29004 6.18766 5.2952 6.18649 5.30111C6.18527 5.30715 6.1858 5.31338 6.18584 5.3197C6.18584 5.32474 6.18445 5.32958 6.18534 5.33473C6.18569 5.33691 6.18641 5.33917 6.1868 5.34131V5.34167C6.18691 5.34206 6.18706 5.3426 6.18716 5.34302C6.24505 5.68405 6.38298 6.03756 6.50772 6.30714C6.30965 6.08238 6.14413 5.82339 6.08546 5.67006C6.08378 5.66559 6.08038 5.66248 6.07809 5.65847C6.07463 5.65228 6.07159 5.64595 6.0669 5.64084C6.06356 5.63719 6.05952 5.63483 6.05574 5.63179C6.05005 5.62721 6.04464 5.6226 6.03806 5.61945C6.03384 5.61744 6.02926 5.6168 6.02478 5.6154C6.01788 5.61333 6.01119 5.61103 6.00387 5.61057C5.9981 5.61018 5.99238 5.61164 5.98655 5.6124C5.98114 5.61307 5.97582 5.6124 5.97045 5.61409C5.96941 5.6144 5.9687 5.61522 5.96774 5.61559C5.96673 5.6159 5.96573 5.61568 5.96473 5.61609C5.95965 5.61802 5.95604 5.62177 5.9515 5.62445C5.94616 5.6276 5.94047 5.63022 5.93593 5.63429C5.93127 5.63848 5.92806 5.64366 5.92441 5.64864C5.92094 5.65332 5.91707 5.65751 5.9145 5.66273C5.91182 5.6682 5.91082 5.67414 5.90928 5.68005C5.90774 5.68581 5.90571 5.69117 5.9053 5.69721C5.90488 5.70326 5.90638 5.7093 5.90717 5.71542C5.90784 5.72072 5.90713 5.72598 5.90878 5.7312C6.01058 6.0596 6.25541 6.45031 6.44723 6.72555C6.28739 6.60238 6.16992 6.46916 6.13583 6.42895C6.13214 6.42458 6.12854 6.42019 6.12485 6.41583C6.09187 6.37616 6.03355 6.3705 5.99363 6.40284C5.95382 6.43535 5.94755 6.49388 5.97975 6.53384C5.98151 6.53605 5.98852 6.54482 6.00022 6.55852C6.14059 6.72558 6.29351 6.88144 6.43206 7.01302L6.24253 6.93225C6.19932 6.9136 6.14852 6.93041 6.12485 6.97152C6.1012 7.01266 6.11186 7.06471 6.14978 7.09322C6.16821 7.10692 6.50386 7.35765 6.79441 7.50582C6.767 7.50747 6.73485 7.50547 6.69885 7.50271C6.65493 7.4985 6.61172 7.52994 6.60102 7.57451C6.5905 7.61926 6.61389 7.66497 6.6564 7.68251C6.66355 7.68544 6.75209 7.72196 6.86141 7.76089C6.8359 7.77129 6.81562 7.79268 6.80721 7.82045C6.79462 7.86194 6.81232 7.90691 6.84996 7.92845C6.85976 7.93413 6.99205 8.00997 7.15567 8.07719C7.15131 8.08395 7.14773 8.09128 7.14508 8.0993C7.13228 8.13858 7.14692 8.18172 7.18101 8.20529C7.20941 8.22483 7.84492 8.6561 8.58713 8.6561C8.63585 8.6561 8.68507 8.65428 8.73459 8.65028C8.78603 8.64624 8.82452 8.60112 8.8204 8.54958C8.81629 8.49802 8.77161 8.45911 8.71963 8.46386C8.25337 8.50188 7.80417 8.32682 7.53702 8.19303C7.57229 8.18441 7.59258 8.17657 7.59762 8.17457C7.63883 8.15775 7.66258 8.11443 7.65453 8.07075C7.64648 8.02704 7.60885 7.9951 7.56434 7.99416C7.45588 7.99195 7.30568 7.93915 7.17628 7.88248C7.22515 7.85801 7.2537 7.83458 7.2562 7.83258C7.28436 7.809 7.29623 7.77136 7.28664 7.73592C7.27698 7.70068 7.24751 7.67413 7.21138 7.66831C7.17163 7.66173 7.12212 7.64892 7.07021 7.63322C7.12065 7.60417 7.14212 7.57219 7.15035 7.55591C7.16333 7.52997 7.16362 7.49959 7.15117 7.47349C7.13865 7.44737 7.11483 7.42852 7.08646 7.42247C7.06199 7.41717 7.03426 7.40824 7.00432 7.39654C7.00979 7.39107 7.01484 7.38484 7.01891 7.37772C7.04274 7.33733 7.03291 7.28542 6.99592 7.25639C6.99398 7.25491 6.92136 7.19789 6.8114 7.10306C6.82886 7.09665 6.84428 7.08478 6.85544 7.06871C6.87901 7.03473 6.87733 6.98923 6.85149 6.95703C6.84942 6.95446 6.77669 6.86302 6.67646 6.72415C6.70955 6.74983 6.7426 6.7761 6.77566 6.79734C6.79122 6.80721 6.80882 6.81216 6.82628 6.81216C6.84996 6.81216 6.87332 6.80321 6.89131 6.78582C6.89873 6.77867 6.90451 6.77044 6.90909 6.76168C6.96587 6.82231 7.0255 6.87737 7.08814 6.92433C7.09629 6.93045 7.10621 6.93034 7.11536 6.93342C7.14191 6.97793 7.16952 7.02249 7.19849 7.06707C7.76667 7.94129 8.56782 8.40956 9.52867 8.43768C9.44021 8.49141 9.34416 8.54693 9.19208 8.60616C9.15889 8.61912 9.12955 8.63207 9.10007 8.64505C9.08584 8.64785 9.0725 8.65299 9.0613 8.66183C8.79586 8.78471 8.68597 8.90612 8.6414 8.99105C8.59689 9.07546 8.63528 9.16203 8.68962 9.20709C8.7065 9.22089 8.72801 9.22809 8.74957 9.22809C8.76438 9.22809 8.77919 9.22479 8.79261 9.21796C8.8257 9.20159 8.8478 9.16667 8.84634 9.12992C8.85017 9.12564 8.86645 9.11221 8.91742 9.1105C8.95458 9.10745 9.03282 9.11588 9.12412 9.1232C9.21097 9.13029 9.31515 9.13847 9.4259 9.14408C9.3566 9.22492 9.27607 9.31857 9.27607 9.31857C9.2519 9.34665 9.24656 9.38646 9.26267 9.41992C9.27883 9.4535 9.31367 9.47438 9.3502 9.47303C9.42414 9.47047 9.47437 9.469 9.50735 9.46839C9.53611 9.506 9.57142 9.52102 9.59413 9.52676C9.6585 9.54324 9.7226 9.51748 9.77093 9.48695C9.80749 9.51333 9.84405 9.52444 9.87302 9.52859C9.93835 9.53763 9.99888 9.51858 10.0426 9.49697C10.0879 9.52627 10.1323 9.53372 10.1661 9.53372C10.1666 9.53372 10.1672 9.53372 10.1677 9.53372C10.2407 9.53335 10.3046 9.49819 10.3498 9.46363C10.3897 9.48732 10.4279 9.49501 10.4574 9.49636C10.5244 9.49867 10.5799 9.47291 10.6169 9.44873C10.7487 9.47523 10.8624 9.41308 10.9375 9.34458C10.9717 9.36448 11.0043 9.36949 11.0303 9.36815C11.0971 9.36583 11.148 9.32516 11.1806 9.2889C11.3301 9.30697 11.4374 9.27937 11.4994 9.20574C11.5332 9.16569 11.5469 9.12064 11.5507 9.07949C11.9654 9.07705 12.0029 8.85064 12.006 8.82267C12.0087 8.79727 12.001 8.77187 11.9844 8.75233C11.968 8.73281 11.9441 8.72071 11.9187 8.71924L10.8313 8.65385C10.7858 8.65056 10.7452 8.68107 10.7346 8.72551C10.7344 8.72625 10.7159 8.7953 10.6579 8.85053C10.5799 8.92505 10.4542 8.96439 10.3175 8.98525C10.318 8.97273 10.3163 8.96 10.3115 8.94754C10.2928 8.89932 10.2385 8.87589 10.1905 8.894C9.96599 8.98111 9.60255 8.97016 9.31823 8.95037C9.36183 8.91474 9.41435 8.87943 9.4563 8.8564C9.49175 8.83687 9.51079 8.79684 9.50328 8.75699C9.49783 8.72805 9.47691 8.70791 9.45169 8.69496C9.53075 8.65503 9.59556 8.61647 9.65706 8.57898C9.76381 8.51359 9.86465 8.45199 10.0483 8.3882C10.4028 8.26504 10.8131 8.22759 10.8172 8.22718C10.8265 8.22647 10.8357 8.22408 10.8444 8.2206C10.859 8.21456 12.0162 7.72976 12.5614 6.61115C12.5542 6.64495 12.5467 6.67586 12.5382 6.70286C12.5241 6.74894 12.547 6.79809 12.5915 6.8167C12.6258 6.83114 12.6649 6.82363 12.6912 6.79916C12.6568 6.89 12.6257 6.96143 12.6002 7.00364C12.5743 7.04661 12.5868 7.10234 12.6285 7.13011C12.6384 7.1365 12.6489 7.14088 12.6596 7.14345C12.6174 7.20522 12.5746 7.26368 12.5319 7.31727C12.5036 7.3529 12.5052 7.40373 12.5348 7.43736C12.4616 7.51409 12.3966 7.57734 12.3473 7.61755C12.315 7.64365 12.3045 7.68737 12.3193 7.72465C12.2717 7.75188 12.2326 7.77108 12.2055 7.77928C12.16 7.79298 12.132 7.83884 12.1406 7.88563C12.1451 7.91031 12.159 7.93113 12.1782 7.94483C12.121 7.96018 12.0583 7.97499 11.9904 7.98848C11.9521 7.99614 11.9226 8.02665 11.9163 8.06521C11.9101 8.10377 11.9284 8.14216 11.9622 8.1615C11.9652 8.16315 11.9971 8.18126 12.046 8.20208C11.8651 8.27497 11.5419 8.3702 11.0115 8.42248C10.9602 8.42759 10.9225 8.47348 10.9276 8.52481C10.9327 8.57618 10.9771 8.61181 11.03 8.60888C12.0367 8.50929 12.3475 8.25731 12.3602 8.24646C12.3893 8.22214 12.4008 8.18251 12.3893 8.14634C12.3816 8.12237 12.3649 8.10305 12.3432 8.09185C12.6649 7.99062 12.803 7.87859 12.8102 7.87257C12.8453 7.84331 12.8543 7.79272 12.8311 7.75305C12.8076 7.71338 12.759 7.69621 12.7165 7.71338C12.7046 7.71796 12.6854 7.72268 12.6613 7.72744C12.8771 7.57962 13.1063 7.40358 13.207 7.32503C13.2247 7.3119 13.2408 7.29923 13.255 7.28736C13.2941 7.25448 13.2996 7.19638 13.2673 7.15671C13.2352 7.11726 13.1769 7.11064 13.1369 7.14227C13.1223 7.15378 13.107 7.16566 13.0914 7.1779C13.0449 7.21245 12.9854 7.25155 12.9204 7.29172C13.1655 7.01359 13.412 6.71205 13.4825 6.62546C13.489 6.61758 13.4952 6.60975 13.5017 6.60188C13.5339 6.56167 13.5277 6.50283 13.4875 6.47048C13.4471 6.43761 13.3882 6.44438 13.356 6.48436L13.3557 6.48455L13.3556 6.48476C13.3539 6.48676 13.346 6.49664 13.3327 6.5131C13.2589 6.60316 13.1811 6.69038 13.1044 6.77184C13.354 6.31956 13.543 5.87436 13.5706 5.8084C13.5717 5.80603 13.5726 5.80368 13.5736 5.80125C13.5935 5.75399 13.571 5.69914 13.5233 5.6794ZM9.13785 8.83343L9.1634 8.83676C9.13205 8.86606 9.10659 8.8989 9.0863 8.93282C9.04188 8.92924 9.00156 8.92616 8.96997 8.92468C9.0135 8.89621 9.06952 8.86538 9.13785 8.83343Z" fill="#FFE15A"/>
</svg>
