<svg width="17" height="17" viewBox="0 0 17 17" fill="none" xmlns="http://www.w3.org/2000/svg">
<path d="M6.63688 9.1161C6.7851 9.36907 6.96771 9.60744 7.18471 9.82444C8.55392 11.1936 10.7738 11.1936 12.143 9.82444L14.091 7.87646C15.4602 6.50725 15.4602 4.28733 14.091 2.91812C12.7218 1.54892 10.5018 1.54892 9.13263 2.91812L8.49999 3.55079M10.3722 7.8764C10.224 7.62344 10.0414 7.38507 9.82437 7.16807C8.45517 5.79886 6.23525 5.79886 4.86605 7.16807L2.91814 9.11604C1.54893 10.4852 1.54893 12.7052 2.91814 14.0744C4.28735 15.4436 6.50726 15.4436 7.87647 14.0744L8.49999 13.4508" stroke="#515151" stroke-width="1.2" stroke-linecap="round" stroke-linejoin="round"/>
</svg>
