<svg width="16" height="16" viewBox="0 0 16 16" fill="none" xmlns="http://www.w3.org/2000/svg">
<path d="M10.7445 10.4534L10.3321 11.072C10.2498 11.1954 10.141 11.3008 9.99748 11.3387C9.52753 11.4629 8.27988 11.519 6.38036 9.61945C4.48084 7.71994 4.53691 6.47227 4.66109 6.00232C4.699 5.85885 4.80435 5.74998 4.92782 5.66767L5.54642 5.25527C6.00698 4.94823 6.13144 4.32596 5.8244 3.8654L4.65607 2.11291C4.38807 1.71091 3.87142 1.55733 3.42735 1.74765L2.90031 1.97352C2.49994 2.14511 2.17335 2.45305 1.97855 2.84265C1.8158 3.16815 1.68966 3.51092 1.67257 3.87443C1.61871 5.02002 1.8699 7.8424 5.01366 10.9862C8.15742 14.1299 10.9798 14.3811 12.1254 14.3272C12.4889 14.3101 12.8316 14.184 13.1571 14.0212C13.5467 13.8264 13.8547 13.4999 14.0263 13.0995L14.2522 12.5725C14.4425 12.1284 14.2889 11.6117 13.8869 11.3437L12.1344 10.1754C11.6738 9.86836 11.0516 9.99281 10.7445 10.4534Z" fill="#FFE600"/>
</svg>
