<svg width="21" height="15" viewBox="0 0 21 15" fill="none" xmlns="http://www.w3.org/2000/svg">
<path d="M17.27 0H2.76C1.25 0 0.01 1.23 0.01 2.75V4.32C0.01 4.34 0 4.36 0 4.38C0 4.4 0.01 4.42 0.01 4.44V11.65C0.01 13.17 1.24 14.4 2.76 14.4H17.26C18.78 14.4 20.01 13.17 20.01 11.65V2.75C20.02 1.23 18.78 0 17.27 0ZM2.76 1.5H17.26C17.95 1.5 18.51 2.06 18.51 2.75V3.63H1.51V2.75C1.51 2.06 2.07 1.5 2.76 1.5ZM17.27 12.91H2.76C2.07 12.91 1.51 12.35 1.51 11.66V5.13H18.51V11.66C18.52 12.34 17.96 12.91 17.27 12.91Z" fill="#FF0000"/>
</svg>
