<svg width="17" height="15" viewBox="0 0 17 15" fill="none" xmlns="http://www.w3.org/2000/svg">
<path d="M15.5833 2.54156V12.3874C15.5833 13.379 14.5208 14.0874 13.5999 13.6624L6.37496 10.4749L4.24996 9.55405H2.83329C2.05413 9.55405 1.41663 8.91655 1.41663 8.13738V6.72072C1.41663 5.94155 2.05413 5.30405 2.83329 5.30405H4.24996L13.5999 1.19572C14.5208 0.841552 15.5833 1.47906 15.5833 2.54156Z" stroke="white" stroke-opacity="0.5" stroke-width="1.2" stroke-miterlimit="10" stroke-linecap="round" stroke-linejoin="round"/>
<path d="M6.37484 10.4751V12.3876C6.37484 13.1668 5.73734 13.8043 4.95817 13.8043C4.53317 13.8043 4.17901 13.6626 3.96651 13.3793C3.68317 13.0959 3.5415 12.7418 3.5415 12.3876V9.55426" stroke="white" stroke-opacity="0.5" stroke-width="1.2" stroke-miterlimit="10" stroke-linecap="round" stroke-linejoin="round"/>
</svg>
