<svg width="15" height="16" viewBox="0 0 15 16" fill="none" xmlns="http://www.w3.org/2000/svg">
<path fill-rule="evenodd" clip-rule="evenodd" d="M13.8631 9.77621C13.5114 9.56704 13.3709 9.21901 13.4411 8.87063C13.5114 8.59221 13.5114 8.24376 13.5114 7.96499C13.5114 7.68656 13.5114 7.33819 13.4411 7.05976C13.3709 6.71131 13.5816 6.36335 13.8631 6.15412C14.2846 5.87569 14.4255 5.3185 14.2143 4.90051L13.7222 4.06489C13.4411 3.64684 12.8787 3.5077 12.4568 3.71645C12.1055 3.92527 11.7539 3.85566 11.4724 3.64684C10.9803 3.22885 10.4884 2.95043 9.85576 2.74127C9.50405 2.60205 9.29334 2.25361 9.29334 1.90564C9.29334 1.41798 8.87137 1 8.37921 1H7.39483C6.90267 1 6.48111 1.41798 6.48111 1.90564C6.48111 2.25361 6.26999 2.60205 5.9187 2.74127C5.35628 2.95043 4.79386 3.29846 4.30163 3.64684C4.02025 3.85566 3.59828 3.92527 3.24705 3.71645C2.82508 3.5077 2.26266 3.64684 2.05189 4.06489L1.55973 4.90051C1.27827 5.3185 1.48947 5.87569 1.91095 6.15412C2.26267 6.36335 2.40318 6.71131 2.33292 7.05976C2.33292 7.40779 2.26266 7.68656 2.26266 7.96499C2.26266 8.24376 2.26267 8.59221 2.33292 8.87063C2.40318 9.21901 2.19241 9.56704 1.91095 9.77621C1.41921 10.0546 1.27827 10.6118 1.55973 11.0299L2.05189 11.8655C2.33292 12.2835 2.89534 12.4227 3.31731 12.2139C3.66895 12.0051 4.02025 12.0747 4.37189 12.2835C4.86405 12.6319 5.35628 12.9799 5.9187 13.1891C6.26999 13.3283 6.48111 13.6767 6.48111 14.0248V14.0948C6.48111 14.5819 6.90267 15 7.39483 15H8.37921C8.87137 15 9.29334 14.5819 9.29334 14.0948C9.29334 13.7463 9.50405 13.3979 9.85576 13.2587C10.4178 13.0499 10.9803 12.7711 11.4022 12.3531C11.6836 12.1443 12.1055 12.0747 12.3865 12.2835C12.8084 12.5623 13.3709 12.3531 13.6519 11.9355L14.1441 11.0995C14.4958 10.6118 14.3548 10.0546 13.8631 9.77621V9.77621ZM7.88706 10.7515C6.34025 10.7515 5.07482 9.49743 5.07482 7.96499C5.07482 6.43296 6.34025 5.17928 7.88706 5.17928C9.43386 5.17928 10.6992 6.43296 10.6992 7.96499C10.6992 9.49743 9.43386 10.7515 7.88706 10.7515Z" stroke="white" stroke-opacity="0.5" stroke-width="1.2" stroke-miterlimit="22.9256" stroke-linecap="round" stroke-linejoin="round"/>
</svg>
