<svg width="17" height="17" viewBox="0 0 17 17" fill="none" xmlns="http://www.w3.org/2000/svg">
<path d="M14.5208 10.3417C14.1667 10.1292 14.025 9.77502 14.0958 9.42085C14.1667 9.13752 14.1667 8.78335 14.1667 8.50002C14.1667 8.21668 14.1667 7.86252 14.0958 7.57919C14.025 7.22502 14.2375 6.87085 14.5208 6.65835C14.9458 6.37502 15.0875 5.80835 14.875 5.38335L14.3792 4.53335C14.0958 4.10835 13.5292 3.96669 13.1042 4.17919C12.75 4.39169 12.3958 4.32085 12.1125 4.10835C11.6167 3.68335 11.1208 3.40002 10.4833 3.18752C10.1292 3.04585 9.91666 2.69169 9.91666 2.33752C9.91666 1.84169 9.49166 1.41669 8.99583 1.41669H8.00416C7.50833 1.41669 7.08333 1.84169 7.08333 2.33752C7.08333 2.69169 6.87083 3.04585 6.51666 3.18752C5.95 3.40002 5.38333 3.75419 4.8875 4.10835C4.60416 4.32085 4.17916 4.39169 3.825 4.17919C3.4 3.96669 2.83333 4.10835 2.62083 4.53335L2.125 5.38335C1.84166 5.80835 2.05416 6.37502 2.47916 6.65835C2.83333 6.87085 2.975 7.22502 2.90416 7.57919C2.90416 7.93335 2.83333 8.21668 2.83333 8.50002C2.83333 8.78335 2.83333 9.13752 2.90416 9.42085C2.975 9.77502 2.7625 10.1292 2.47916 10.3417C1.98333 10.625 1.84166 11.1917 2.125 11.6167L2.62083 12.4667C2.90416 12.8917 3.47083 13.0334 3.89583 12.8209C4.25 12.6084 4.60416 12.6792 4.95833 12.8917C5.45416 13.2459 5.95 13.6 6.51666 13.8125C6.87083 13.9542 7.08333 14.3084 7.08333 14.6625V14.7334C7.08333 15.2292 7.50833 15.6542 8.00416 15.6542H8.99583C9.49166 15.6542 9.91666 15.2292 9.91666 14.7334C9.91666 14.3792 10.1292 14.025 10.4833 13.8834C11.05 13.6709 11.6167 13.3875 12.0417 12.9625C12.325 12.75 12.75 12.6792 13.0333 12.8917C13.4583 13.175 14.025 12.9625 14.3083 12.5375L14.8042 11.6875C15.1583 11.1917 15.0167 10.625 14.5208 10.3417ZM8.5 11.3334C6.94166 11.3334 5.66666 10.0584 5.66666 8.50002C5.66666 6.94168 6.94166 5.66669 8.5 5.66669C10.0583 5.66669 11.3333 6.94168 11.3333 8.50002C11.3333 10.0584 10.0583 11.3334 8.5 11.3334Z" stroke="#515151" stroke-width="1.2" stroke-miterlimit="10" stroke-linecap="round" stroke-linejoin="round"/>
</svg>
