<svg width="17" height="17" viewBox="0 0 17 17" fill="none" xmlns="http://www.w3.org/2000/svg">
<path fill-rule="evenodd" clip-rule="evenodd" d="M2.83337 2.83329C2.64551 2.83329 2.46534 2.90792 2.33251 3.04076C2.19967 3.1736 2.12504 3.35376 2.12504 3.54163V10.625C2.12504 10.8128 2.19967 10.993 2.33251 11.1258C2.46535 11.2587 2.64551 11.3333 2.83337 11.3333H3.54171C3.93291 11.3333 4.25004 11.6504 4.25004 12.0416C4.25004 12.4328 3.93291 12.75 3.54171 12.75H2.83337C2.26979 12.75 1.72929 12.5261 1.33077 12.1276C0.932257 11.729 0.708374 11.1885 0.708374 10.625V3.54163C0.708374 2.97804 0.932257 2.43754 1.33077 2.03902C1.72929 1.64051 2.26979 1.41663 2.83337 1.41663H14.1667C14.7303 1.41663 15.2708 1.64051 15.6693 2.03902C16.0678 2.43754 16.2917 2.97804 16.2917 3.54163V10.625C16.2917 11.1885 16.0678 11.729 15.6693 12.1276C15.2708 12.5261 14.7303 12.75 14.1667 12.75H13.4584C13.0672 12.75 12.75 12.4328 12.75 12.0416C12.75 11.6504 13.0672 11.3333 13.4584 11.3333H14.1667C14.3546 11.3333 14.5347 11.2587 14.6676 11.1258C14.8004 10.993 14.875 10.8128 14.875 10.625V3.54163C14.875 3.35376 14.8004 3.1736 14.6676 3.04076C14.5347 2.90792 14.3546 2.83329 14.1667 2.83329H2.83337Z" fill="white" fill-opacity="0.5"/>
<path fill-rule="evenodd" clip-rule="evenodd" d="M8.50001 9.91663C8.71023 9.91663 8.90959 10.01 9.04417 10.1715L12.5858 14.4215C12.7618 14.6326 12.7997 14.9265 12.6831 15.1754C12.5666 15.4243 12.3165 15.5833 12.0417 15.5833H4.95834C4.6835 15.5833 4.43346 15.4243 4.31688 15.1754C4.20031 14.9265 4.23823 14.6326 4.41419 14.4215L7.95585 10.1715C8.09043 10.01 8.28979 9.91663 8.50001 9.91663ZM6.47066 14.1666H10.5294L8.50001 11.7314L6.47066 14.1666Z" fill="white" fill-opacity="0.5"/>
</svg>
