<svg width="15" height="16" viewBox="0 0 15 16" fill="none" xmlns="http://www.w3.org/2000/svg">
<path fill-rule="evenodd" clip-rule="evenodd" d="M5.03219 12.4989C4.98022 12.6595 4.95187 12.8284 4.95187 13.0021C4.95187 14.1134 6.07744 15.0146 7.46756 15.0146C8.8565 15.0146 9.98325 14.1134 9.98325 13.0021C9.98325 12.8284 9.95491 12.6595 9.90294 12.4989H5.03219ZM7.46756 1C4.68849 1 2.43619 3.25231 2.43619 6.03137V9.24269C2.43619 9.6785 2.14092 10.0576 1.7181 10.1639C1.29527 10.269 1 10.6482 1 11.084V11.2883C1 11.9568 1.54093 12.4989 2.2106 12.4989H5.03219H9.89939H12.7245C13.3942 12.4989 13.9351 11.9568 13.9351 11.2883V11.084C13.9351 10.6482 13.6387 10.269 13.217 10.1639C12.7942 10.0576 12.4989 9.6785 12.4989 9.24269V6.03137C12.4989 3.25231 10.2466 1 7.46756 1V1Z" stroke="#FFE600" stroke-width="1.5" stroke-miterlimit="22.9256" stroke-linecap="round" stroke-linejoin="round"/>
</svg>
