<svg width="12" height="13" viewBox="0 0 12 13" fill="none" xmlns="http://www.w3.org/2000/svg">
<path fill-rule="evenodd" clip-rule="evenodd" d="M10.9706 5.76471C10.9706 9.11765 9.26471 11.9706 5.97059 12.1471C2.67647 12.3235 0 9.41176 0 6.05882C0 2.70588 2.70588 1 6.02941 1C9.35294 1 10.9706 2.41176 10.9706 5.76471Z" fill="#143354"/>
<mask id="mask0" mask-type="alpha" maskUnits="userSpaceOnUse" x="0" y="0" width="12" height="13">
<path fill-rule="evenodd" clip-rule="evenodd" d="M0.0292969 0H11.9705V12.1471H0.0292969V0Z" fill="white"/>
</mask>
<g mask="url(#mask0)">
<path fill-rule="evenodd" clip-rule="evenodd" d="M11.0588 2.82366C10.6176 2.11778 10.0882 1.55895 9.44118 1.08837C8.82353 0.64719 8.08823 0.323661 7.29412 0.14719C5.97059 -0.146928 4.67647 0.000131348 3.44118 0.558955C2.76471 0.853073 2.14706 1.29425 1.61765 1.82366C0.970588 2.50013 0.470588 3.26484 0.205882 4.11778V4.14719C0.205882 4.1766 0.17647 4.20601 0.17647 4.23543C-0.117647 5.20601 0.147059 5.76484 0.588235 5.29425C0.617647 5.26484 0.617647 5.26484 0.647059 5.23543C0.647059 5.23543 0.647058 5.20601 0.67647 5.20601C1.17647 4.55896 2 4.02954 2 4.02954C2.20588 3.88248 2.41176 3.76484 2.64706 3.61778C2.91176 3.47072 3.17647 3.32366 3.41176 3.23543C3.41176 3.23543 3.64706 3.11778 3.70588 2.82366V2.79425C3.73529 2.52954 4.02941 1.79425 4.85294 1.73543C5.11765 1.70601 5.35294 1.73543 5.58824 1.85307C5.97059 2.02954 6.26471 2.4119 6.32353 2.85307C6.38235 3.20601 6.29412 3.52954 6.11765 3.79425C6.11765 3.82366 6.08824 3.82366 6.08824 3.85307C5.94118 4.05896 5.73529 4.20601 5.47059 4.29425C5.32353 4.35307 5.17647 4.38248 5.02941 4.38248C4.94118 4.38248 4.85294 4.38248 4.73529 4.35307C4.61765 4.32366 4.52941 4.29425 4.44118 4.23543C4.29412 4.1766 4.14706 4.08837 4.11765 4.02954C4.08823 4.00013 4.02941 3.97072 4 3.97072C3.91176 3.97072 3.85294 3.97072 3.79412 4.00013C3.76471 4.00013 3.73529 4.02954 3.73529 4.02954C3.52941 4.1766 3.35294 4.35307 3.17647 4.52954C2.64706 5.05896 2.26471 5.61778 2.05882 5.88248C1.97059 6.02954 1.88235 6.20601 1.79412 6.35307C1.70588 6.50013 1.64706 6.64719 1.55882 6.79425C1.44118 7.02954 1.35294 7.29425 1.26471 7.55896V7.58837L1.23529 7.64719L1.20588 7.70601C0.647058 9.61778 1.64706 10.706 2.5 9.55896C2.55882 9.50013 2.58823 9.4119 2.64706 9.35307C3.52941 7.82366 5.32353 6.73543 5.32353 6.73543C5.44118 6.6766 5.55882 6.58837 5.64706 6.52954H5.67647C5.97059 6.35307 6.29412 6.20601 6.61765 6.05896C6.91177 5.94131 7.20588 5.79425 7.47059 5.73543C7.47059 5.73543 7.76471 5.64719 7.85294 5.29425C7.91177 5.02954 8.08824 4.64719 8.52941 4.44131C8.61765 4.38248 8.73529 4.35307 8.85294 4.32366C8.97059 4.29425 9.08823 4.29425 9.20588 4.29425C9.29412 4.29425 9.35294 4.29425 9.38235 4.32366C9.94118 4.44131 10.3824 4.88248 10.4412 5.47072C10.5294 6.20601 10.0294 6.85307 9.29412 6.94131C8.94118 7.00013 8.61765 6.9119 8.32353 6.70601C8 6.58837 7.76471 6.64719 7.67647 6.70601C7.41177 6.85307 7.14706 7.02954 6.91177 7.20601C6.44118 7.55896 6.08824 7.9119 5.94118 8.05896C5.61765 8.38248 5.35294 8.73543 5.08824 9.11778L5.05882 9.1766V9.20601C4.79412 9.61778 4.52941 10.1178 4.32353 10.7354C4.29412 10.7942 4.29412 10.8237 4.26471 10.8825C4.02941 11.6766 4.52941 12.0001 5.14706 12.1178C5.14706 12.1178 5.61765 12.206 6.29412 12.1472C6.32353 12.1472 6.38235 12.1472 6.41176 12.1472C6.58824 12.1178 6.73529 12.1178 6.91177 12.0884C8.05882 11.8825 9.08823 11.4119 9.94118 10.6178C11.0294 9.64719 11.7059 8.4119 11.9118 6.94131C12.1471 5.44131 11.8529 4.08837 11.0588 2.82366Z" fill="#FFC40C"/>
</g>
</svg>
