<svg width="12" height="13" viewBox="0 0 12 13" fill="none" xmlns="http://www.w3.org/2000/svg">
<path fill-rule="evenodd" clip-rule="evenodd" d="M5.49929 1.48529C5.49914 1.48536 5.49898 1.48544 5.49883 1.48552L1.33225 3.56881L1.33109 3.56938C1.2443 3.61251 1.17125 3.679 1.12018 3.76137C1.06911 3.84371 1.04203 3.93866 1.04196 4.03555C1.04196 4.03552 1.04196 4.03558 1.04196 4.03555V8.9986C1.04128 9.09569 1.06774 9.19104 1.11837 9.27388C1.16891 9.35659 1.24153 9.42356 1.32805 9.46725C1.32791 9.46718 1.32819 9.46732 1.32805 9.46725L5.49477 11.5506C5.56715 11.5868 5.64712 11.6058 5.72805 11.6058C5.80898 11.6058 5.88881 11.5869 5.96118 11.5507L10.1291 9.46675L10.1302 9.46617C10.217 9.42304 10.2901 9.35655 10.3411 9.27419C10.3922 9.19182 10.4193 9.09683 10.4194 8.99991V4.03565C10.4193 3.93873 10.3922 3.84374 10.3411 3.76137C10.2901 3.679 10.217 3.61251 10.1302 3.56938L10.1291 3.56881L5.96249 1.48552C5.96233 1.48544 5.96217 1.48536 5.96202 1.48529C5.8901 1.44964 5.81092 1.43109 5.73066 1.43109C5.65039 1.43109 5.57121 1.44964 5.49929 1.48529ZM6.19432 1.01898L6.42615 0.552435C6.21003 0.445045 5.97198 0.38916 5.73066 0.38916C5.48933 0.38916 5.25128 0.445045 5.03517 0.552435L5.03401 0.55301L0.867434 2.6363C0.86722 2.63641 0.867006 2.63651 0.866792 2.63662C0.606685 2.76602 0.387788 2.96536 0.234679 3.21226C0.081443 3.45937 0.000179611 3.74433 2.53139e-05 4.0351L2.52518e-05 8.99334C-0.00162631 9.28392 0.0777662 9.56922 0.229306 9.8172C0.381192 10.0657 0.599511 10.2669 0.859632 10.398L0.861072 10.3987L5.02865 12.4825C5.24579 12.5911 5.48525 12.6477 5.72805 12.6477C5.9708 12.6477 6.21021 12.5912 6.4273 12.4825C6.42735 12.4825 6.42725 12.4826 6.4273 12.4825L10.5939 10.3993C10.5941 10.3992 10.5942 10.3991 10.5944 10.399C10.8546 10.2696 11.0735 10.0702 11.2266 9.82329C11.3799 9.57618 11.4611 9.29122 11.4613 9.00046V4.03537C11.4611 3.74461 11.3799 3.45937 11.2266 3.21226C11.0735 2.96537 10.8546 2.76603 10.5945 2.63663C10.5943 2.63652 10.5941 2.63641 10.5939 2.6363L6.4273 0.55301L6.19432 1.01898Z" fill="#9C9B9E"/>
<path fill-rule="evenodd" clip-rule="evenodd" d="M0.221734 3.23975C0.350407 2.9824 0.663338 2.87809 0.920684 3.00676L5.73066 5.41175L10.5406 3.00676C10.798 2.87809 11.1109 2.9824 11.2396 3.23975C11.3683 3.49709 11.2639 3.81002 11.0066 3.9387L5.96364 6.46017C5.81697 6.53351 5.64434 6.53351 5.49767 6.46017L0.454718 3.9387C0.197371 3.81002 0.0930612 3.49709 0.221734 3.23975Z" fill="#9C9B9E"/>
<path fill-rule="evenodd" clip-rule="evenodd" d="M5.73066 5.47324C6.01838 5.47324 6.25162 5.70648 6.25162 5.99421V12.1208C6.25162 12.4085 6.01838 12.6417 5.73066 12.6417C5.44293 12.6417 5.20969 12.4085 5.20969 12.1208V5.99421C5.20969 5.70648 5.44293 5.47324 5.73066 5.47324Z" fill="#9C9B9E"/>
<path fill-rule="evenodd" clip-rule="evenodd" d="M2.65986 1.85397C2.78853 1.59663 3.10146 1.49232 3.35881 1.62099L8.56847 4.22582C8.82582 4.3545 8.93013 4.66743 8.80146 4.92477C8.67278 5.18212 8.35985 5.28643 8.10251 5.15776L2.89284 2.55292C2.63549 2.42425 2.53118 2.11132 2.65986 1.85397Z" fill="#9C9B9E"/>
</svg>
