<svg width="16" height="16" viewBox="0 0 16 16" fill="none" xmlns="http://www.w3.org/2000/svg">
<path fill-rule="evenodd" clip-rule="evenodd" d="M4.36364 0C4.7653 0 5.09091 0.321551 5.09091 0.718204V1.79551H10.9091V0.718204C10.9091 0.321551 11.2347 0 11.6364 0C12.038 0 12.3636 0.321551 12.3636 0.718204V1.79551H12.8485C14.589 1.79551 16 3.1889 16 4.90773V12.8878C16 14.6066 14.589 16 12.8485 16H3.15152C1.41098 16 0 14.6066 0 12.8878V4.90773C0 3.1889 1.41098 1.79551 3.15152 1.79551H3.63636V0.718204C3.63636 0.321551 3.96197 0 4.36364 0ZM14.5455 5.62593H1.45455V12.8878C1.45455 13.8133 2.2143 14.5636 3.15152 14.5636H12.8485C13.7857 14.5636 14.5455 13.8133 14.5455 12.8878V5.62593Z" fill="white"/>
</svg>
