<svg width="17" height="17" viewBox="0 0 17 17" fill="none" xmlns="http://www.w3.org/2000/svg">
<path d="M1.01719 5.08871L1.55179 5.36111L1.01719 5.08871ZM1.01719 11.9113L0.482585 12.1837H0.482585L1.01719 11.9113ZM2.2554 13.1495L2.5278 12.6149H2.52779L2.2554 13.1495ZM10.4947 13.1495L10.2223 12.6149L10.4947 13.1495ZM11.7329 11.9113L11.1983 11.6389V11.6389L11.7329 11.9113ZM14.9702 11.869L14.6373 12.3682L14.9702 11.869ZM14.9702 5.131L15.303 5.63023L14.9702 5.131ZM11.7329 5.08871L11.1983 5.36111V5.36111L11.7329 5.08871ZM10.4947 3.8505L10.7671 3.3159V3.3159L10.4947 3.8505ZM2.2554 3.8505L2.5278 4.38511L2.2554 3.8505ZM11.9516 5.7876L12.5431 5.68722L11.9516 5.7876ZM11.9516 11.2124L11.36 11.112L11.9516 11.2124ZM13.1214 10.6365L12.7886 11.1357L13.1214 10.6365ZM1.30837 8.07502C1.30837 7.27171 1.30884 6.70532 1.34498 6.26295C1.38055 5.82759 1.44767 5.56547 1.55179 5.36111L0.482585 4.81632C0.277897 5.21804 0.190602 5.65566 0.148969 6.16523C0.107907 6.6678 0.108374 7.29151 0.108374 8.07502H1.30837ZM1.30837 8.92502V8.07502H0.108374V8.92502H1.30837ZM1.55179 11.6389C1.44767 11.4346 1.38055 11.1724 1.34498 10.7371C1.30884 10.2947 1.30837 9.72833 1.30837 8.92502H0.108374C0.108374 9.70853 0.107907 10.3322 0.148969 10.8348C0.190602 11.3444 0.277897 11.782 0.482585 12.1837L1.55179 11.6389ZM2.52779 12.6149C2.10757 12.4008 1.76591 12.0592 1.55179 11.6389L0.482585 12.1837C0.81175 12.8297 1.33698 13.355 1.98301 13.6841L2.52779 12.6149ZM5.2417 12.8584C4.4384 12.8584 3.872 12.8579 3.42964 12.8217C2.99428 12.7862 2.73216 12.7191 2.5278 12.6149L1.98301 13.6841C2.38473 13.8888 2.82235 13.9761 3.33192 14.0178C3.83448 14.0588 4.4582 14.0584 5.2417 14.0584V12.8584ZM7.50837 12.8584H5.2417V14.0584H7.50837V12.8584ZM10.2223 12.6149C10.0179 12.7191 9.7558 12.7862 9.32044 12.8217C8.87808 12.8579 8.31168 12.8584 7.50837 12.8584V14.0584C8.29188 14.0584 8.9156 14.0588 9.41816 14.0178C9.92773 13.9761 10.3654 13.8888 10.7671 13.6841L10.2223 12.6149ZM11.1983 11.6389C10.9842 12.0592 10.6425 12.4008 10.2223 12.6149L10.7671 13.6841C11.4131 13.355 11.9383 12.8297 12.2675 12.1837L11.1983 11.6389ZM11.36 11.112C11.3219 11.3369 11.2685 11.5012 11.1983 11.6389L12.2675 12.1837C12.4052 11.9134 12.4898 11.6271 12.5431 11.3128L11.36 11.112ZM15.303 11.3698L13.4543 10.1373L12.7886 11.1357L14.6373 12.3682L15.303 11.3698ZM15.6917 11.1618C15.6917 11.3614 15.4691 11.4805 15.303 11.3698L14.6373 12.3682C15.601 13.0106 16.8917 12.3199 16.8917 11.1618H15.6917ZM15.6917 5.83824V11.1618H16.8917V5.83824H15.6917ZM15.303 5.63023C15.4691 5.51947 15.6917 5.63857 15.6917 5.83824H16.8917C16.8917 4.68013 15.601 3.98936 14.6374 4.63177L15.303 5.63023ZM13.4543 6.86272L15.303 5.63023L14.6374 4.63177L12.7886 5.86426L13.4543 6.86272ZM11.1983 5.36111C11.2685 5.49884 11.3219 5.66312 11.36 5.88797L12.5431 5.68722C12.4898 5.37287 12.4052 5.08664 12.2675 4.81632L11.1983 5.36111ZM10.2223 4.38511C10.6425 4.59922 10.9842 4.94088 11.1983 5.36111L12.2675 4.81632C11.9383 4.1703 11.4131 3.64506 10.7671 3.3159L10.2223 4.38511ZM7.50838 4.14169C8.31168 4.14169 8.87808 4.14215 9.32044 4.1783C9.7558 4.21387 10.0179 4.28098 10.2223 4.38511L10.7671 3.3159C10.3654 3.11121 9.92773 3.02391 9.41816 2.98228C8.9156 2.94122 8.29188 2.94169 7.50838 2.94169V4.14169ZM5.24171 4.14169H7.50838V2.94169H5.24171V4.14169ZM2.5278 4.38511C2.73216 4.28098 2.99428 4.21387 3.42964 4.1783C3.872 4.14215 4.4384 4.14169 5.24171 4.14169V2.94169C4.4582 2.94169 3.83448 2.94122 3.33192 2.98228C2.82235 3.02391 2.38473 3.11121 1.98301 3.3159L2.5278 4.38511ZM1.55179 5.36111C1.76591 4.94088 2.10757 4.59922 2.5278 4.38511L1.98301 3.3159C1.33698 3.64506 0.81175 4.1703 0.482585 4.81632L1.55179 5.36111ZM12.7886 5.86426C12.766 5.87936 12.7493 5.88261 12.7362 5.88302C12.7206 5.8835 12.6976 5.87995 12.6697 5.86571C12.6107 5.83552 12.5574 5.77141 12.5431 5.68722L11.36 5.88797C11.5102 6.77326 12.5472 7.4674 13.4543 6.86272L12.7886 5.86426ZM12.5431 11.3128C12.5574 11.2286 12.6107 11.1645 12.6697 11.1343C12.6976 11.1201 12.7206 11.1165 12.7362 11.117C12.7493 11.1174 12.766 11.1206 12.7886 11.1357L13.4543 10.1373C12.5472 9.5326 11.5102 10.2267 11.36 11.112L12.5431 11.3128Z" fill="#515151"/>
</svg>
