<svg width="18" height="18" viewBox="0 0 18 18" fill="none" xmlns="http://www.w3.org/2000/svg">
<path fill-rule="evenodd" clip-rule="evenodd" d="M0.824829 5.24971C0.824829 4.04849 1.79861 3.07471 2.99983 3.07471H14.9998C16.201 3.07471 17.1748 4.04849 17.1748 5.24971V6.74971V12.7497C17.1748 13.9509 16.201 14.9247 14.9998 14.9247H2.99983C1.79861 14.9247 0.824829 13.9509 0.824829 12.7497V6.74971V5.24971ZM2.99983 4.42471C2.54419 4.42471 2.17483 4.79407 2.17483 5.24971V6.07471H15.8248V5.24971C15.8248 4.79407 15.4555 4.42471 14.9998 4.42471H2.99983ZM15.8248 7.42471H2.17483V12.7497C2.17483 13.2053 2.54419 13.5747 2.99983 13.5747H14.9998C15.4555 13.5747 15.8248 13.2053 15.8248 12.7497V7.42471ZM9.82483 11.2497C9.82483 10.8769 10.127 10.5747 10.4998 10.5747H13.4998C13.8726 10.5747 14.1748 10.8769 14.1748 11.2497C14.1748 11.6225 13.8726 11.9247 13.4998 11.9247H10.4998C10.127 11.9247 9.82483 11.6225 9.82483 11.2497Z" fill="#9C9B9E"/>
</svg>
