<svg width="18" height="18" viewBox="0 0 18 18" fill="none" xmlns="http://www.w3.org/2000/svg">
<circle cx="9" cy="9" r="6.75" stroke="#9C9B9E" stroke-width="1.5"/>
<path d="M7.84425 7.45584C7.84425 7.01026 8.187 6.73117 8.65217 6.6773V8.24907C8.6032 8.23928 8.55913 8.22459 8.51507 8.2099C8.06949 8.063 7.84425 7.80839 7.84425 7.45584ZM10.2925 10.5112C10.2925 10.9911 9.92525 11.3094 9.40622 11.3534V9.66415C9.4405 9.67394 9.47477 9.68374 9.50415 9.68863C10.0526 9.84042 10.2925 10.1097 10.2925 10.5112ZM9.41602 13.0329L9.41112 12.4111C10.7528 12.2838 11.6047 11.5444 11.6047 10.379C11.6047 9.19409 10.8066 8.69465 9.82242 8.4841L9.40622 8.39596V6.6871C9.92525 6.77034 10.2141 7.16205 10.2288 7.55377H11.4823C11.4627 6.53531 10.6646 5.76167 9.42581 5.62946V4.99292H8.63258V5.62456C7.44764 5.73229 6.51731 6.38352 6.51731 7.55867C6.51731 8.67017 7.32033 9.23816 8.23107 9.43891L8.65217 9.53195V11.3534C8.02542 11.2702 7.69736 10.8932 7.67287 10.4427H6.39C6.39979 11.3485 7.00695 12.3033 8.62769 12.4209L8.62279 13.0329H9.41602Z" fill="#9C9B9E"/>
</svg>
