<svg width="18" height="18" viewBox="0 0 18 18" fill="none" xmlns="http://www.w3.org/2000/svg">
<circle cx="9" cy="9" r="6.75" stroke="#9C9B9E" stroke-width="1.8"/>
<path d="M7.84427 7.45609C7.84427 7.01051 8.18702 6.73141 8.65218 6.67755V8.24931C8.60322 8.23952 8.55915 8.22483 8.51508 8.21014C8.0695 8.06325 7.84427 7.80863 7.84427 7.45609ZM10.2925 10.5115C10.2925 10.9913 9.92526 11.3096 9.40624 11.3537V9.66439C9.44051 9.67419 9.47479 9.68398 9.50417 9.68888C10.0526 9.84067 10.2925 10.11 10.2925 10.5115ZM9.41603 13.0332L9.41114 12.4113C10.7528 12.284 11.6048 11.5446 11.6048 10.3793C11.6048 9.19433 10.8066 8.69489 9.82244 8.48435L9.40624 8.39621V6.68734C9.92526 6.77058 10.2142 7.1623 10.2288 7.55402H11.4823C11.4628 6.53555 10.6646 5.76191 9.42582 5.6297V4.99316H8.6326V5.62481C7.44765 5.73253 6.51732 6.38376 6.51732 7.55891C6.51732 8.67041 7.32034 9.2384 8.23109 9.43916L8.65218 9.53219V11.3537C8.02543 11.2704 7.69737 10.8934 7.67289 10.4429H6.39001C6.39981 11.3488 7.00697 12.3036 8.6277 12.4211L8.6228 13.0332H9.41603Z" fill="#9C9B9E"/>
</svg>
