<svg width="17" height="20" viewBox="0 0 17 20" fill="none" xmlns="http://www.w3.org/2000/svg">
<path fill-rule="evenodd" clip-rule="evenodd" d="M0.164997 4.15411C0.0738717 3.81402 0.275693 3.46446 0.615778 3.37333L1.29998 3.19C2.3958 2.89638 3.52218 3.54669 3.81581 4.64252L6.1991 13.5371C6.29022 13.8772 6.0884 14.2267 5.74832 14.3179C5.40823 14.409 5.05867 14.2072 4.96754 13.8671L2.58425 4.97251C2.47287 4.55685 2.04563 4.31018 1.62997 4.42156L0.945772 4.60489C0.605687 4.69601 0.256123 4.49419 0.164997 4.15411ZM8.0873 5.25794C7.29377 5.47057 6.82286 6.28622 7.03548 7.07975L7.95213 10.5007C8.16476 11.2943 8.98041 11.7652 9.77394 11.5526L13.1949 10.6359C13.9885 10.4233 14.4594 9.60763 14.2467 8.8141L13.3301 5.39311C13.1175 4.59958 12.3018 4.12867 11.5083 4.34129L8.0873 5.25794ZM5.80393 7.40975C5.40905 5.93605 6.28361 4.42126 7.75731 4.02639L11.1783 3.10974C12.652 2.71486 14.1668 3.58942 14.5617 5.06312L15.4783 8.48411C15.8732 9.95781 14.9986 11.4726 13.5249 11.8675L10.1039 12.7841C8.63023 13.179 7.11545 12.3044 6.72058 10.8307L5.80393 7.40975ZM9.72236 6.25978C9.8984 5.95487 10.2883 5.8504 10.5932 6.02644L11.8945 6.77774C12.1994 6.95378 12.3039 7.34367 12.1278 7.64858C11.9578 7.94318 11.588 8.05067 11.2882 7.89883L11.6236 9.15032C11.7147 9.49041 11.5129 9.83997 11.1728 9.9311C10.8327 10.0222 10.4831 9.8204 10.392 9.48032L10.0567 8.22882C9.87293 8.51023 9.499 8.602 9.2044 8.43191C8.89949 8.25587 8.79502 7.86598 8.97106 7.56107L9.72236 6.25978ZM7.57012 15.3697C7.479 15.0296 7.68082 14.68 8.02091 14.5889L15.205 12.6639C15.5451 12.5728 15.8946 12.7746 15.9858 13.1147C16.0769 13.4548 15.8751 13.8044 15.535 13.8955L8.3509 15.8205C8.01081 15.9116 7.66125 15.7098 7.57012 15.3697Z" fill="white" fill-opacity="0.5"/>
<path fill-rule="evenodd" clip-rule="evenodd" d="M5.74861 14.3176C4.95508 14.5302 4.48416 15.3459 4.69679 16.1394C4.90941 16.9329 5.72506 17.4038 6.5186 17.1912C7.31213 16.9786 7.78304 16.1629 7.57042 15.3694C7.35779 14.5759 6.54214 14.105 5.74861 14.3176ZM3.46523 16.4694C3.07035 14.9957 3.94491 13.4809 5.41861 13.086C6.89231 12.6912 8.4071 13.5657 8.80197 15.0394C9.19685 16.5131 8.32229 18.0279 6.84859 18.4228C5.37489 18.8177 3.86011 17.9431 3.46523 16.4694Z" fill="white" fill-opacity="0.5"/>
</svg>
