<svg width="12" height="12" viewBox="0 0 12 12" fill="none" xmlns="http://www.w3.org/2000/svg">
<path d="M11.4761 12C11.1898 12 10.9523 11.745 10.9523 11.4375V9.1725L9.95343 10.245C7.77416 12.585 4.22584 12.585 2.04657 10.245C1.45285 9.6075 1.00582 8.85 0.726426 8.0025C0.628638 7.71 0.77532 7.3875 1.04773 7.2825C1.32014 7.1775 1.62049 7.335 1.71828 7.6275C1.94179 8.3175 2.30501 8.9325 2.78696 9.45C4.56112 11.355 7.43888 11.355 9.21304 9.45L10.2119 8.3775H8.10245C7.81607 8.3775 7.57858 8.1225 7.57858 7.815C7.57858 7.5075 7.81607 7.2525 8.10245 7.2525H11.4761C11.546 7.2525 11.6158 7.2675 11.6787 7.2975C11.7416 7.3275 11.7974 7.365 11.8463 7.4175C11.8952 7.47 11.9371 7.53 11.9581 7.5975C11.986 7.665 12 7.74 12 7.815V11.4375C12 11.7525 11.7625 12 11.4761 12ZM10.7776 4.7475C10.5611 4.7475 10.3586 4.605 10.2817 4.3725C10.0582 3.6825 9.69499 3.075 9.21304 2.55C7.43888 0.645 4.56112 0.6525 2.78696 2.55L1.78813 3.6225H3.89756C4.18393 3.6225 4.42142 3.8775 4.42142 4.185C4.42142 4.4925 4.18393 4.7475 3.89756 4.7475H0.523865C0.454016 4.7475 0.384168 4.7325 0.328289 4.7025C0.27241 4.68 0.216531 4.6425 0.167637 4.59C0.160652 4.5825 0.153667 4.575 0.146682 4.5675C0.097788 4.5225 0.0628638 4.4625 0.0419092 4.4025C0.0139697 4.335 0 4.2675 0 4.185V0.5625C0 0.2475 0.237485 0 0.523865 0C0.810244 0 1.04773 0.255 1.04773 0.5625V2.8275L2.04657 1.755C4.22584 -0.585 7.77416 -0.585 9.95343 1.755C10.5471 2.3925 10.9942 3.15 11.2736 3.9975C11.3714 4.29 11.2247 4.6125 10.9523 4.7175C10.8964 4.74 10.8335 4.7475 10.7776 4.7475Z" fill="#9C9B9E"/>
</svg>
