<svg width="13" height="12" viewBox="0 0 13 12" fill="none" xmlns="http://www.w3.org/2000/svg">
<path d="M5.79389 0.0032196C5.45068 0.0388937 5.21695 0.0930204 4.93894 0.201274C3.85272 0.628139 3.07157 1.62579 2.94733 2.74524C2.94118 2.80551 2.93133 2.98635 2.92764 3.14504C2.9178 3.46857 2.93379 3.65186 2.99038 3.9065C3.05681 4.20297 3.22288 4.69995 3.35943 5.00749C3.42339 5.15142 3.68172 5.64717 3.95236 6.14662C4.5908 7.32634 5.98456 9.8051 5.99932 9.79034C6.01654 9.77189 6.88503 8.23296 7.37463 7.35217C7.94419 6.32622 8.34029 5.59182 8.54081 5.19325C8.761 4.75285 8.98243 4.08119 9.04148 3.67277C9.06362 3.51654 9.06731 2.99865 9.0464 2.79321C8.99227 2.23964 8.78684 1.71929 8.43994 1.25675C8.29232 1.05992 8.002 0.769607 7.80887 0.626908C7.37709 0.305838 6.89979 0.102861 6.40281 0.0265923C6.27734 0.00813961 5.89353 -0.00662231 5.79389 0.0032196ZM6.31916 1.82139C6.78047 1.93948 7.14213 2.29746 7.2713 2.76492C7.31066 2.90762 7.32419 3.16103 7.30205 3.31849C7.23685 3.77242 6.9084 4.18944 6.48523 4.35551C6.30317 4.42809 6.22813 4.44039 6.00301 4.44162C5.81357 4.44162 5.78159 4.43793 5.6721 4.40841C5.29814 4.30753 4.98076 4.04305 4.81592 3.69492C4.47025 2.9679 4.8356 2.0994 5.5946 1.84599C5.74714 1.79556 5.86155 1.77956 6.03992 1.78572C6.15678 1.78941 6.23182 1.79802 6.31916 1.82139Z" fill="#9C9B9E"/>
<path d="M4.96108 8.61547C4.96847 8.61792 4.98323 8.61792 4.99185 8.61547C4.99923 8.61179 4.99308 8.60933 4.97585 8.60933C4.95862 8.60933 4.95247 8.61179 4.96108 8.61547Z" fill="#9C9B9E"/>
<path d="M7.05233 8.61547C7.05971 8.61792 7.07448 8.61792 7.0831 8.61547C7.09048 8.61179 7.08433 8.60933 7.0671 8.60933C7.04987 8.60933 7.04371 8.61179 7.05233 8.61547Z" fill="#9C9B9E"/>
<path d="M4.76419 8.62779C4.78633 8.63025 4.81953 8.63025 4.83798 8.62779C4.85643 8.62533 4.83798 8.62286 4.7974 8.62286C4.75681 8.62286 4.74205 8.62533 4.76419 8.62779Z" fill="#9C9B9E"/>
<path d="M7.21219 8.62779C7.23433 8.63025 7.26753 8.63025 7.28598 8.62779C7.30443 8.62533 7.28598 8.62286 7.24539 8.62286C7.20481 8.62286 7.19005 8.62533 7.21219 8.62779Z" fill="#9C9B9E"/>
<path d="M4.29308 8.65727C1.93119 8.86516 0.259411 9.43965 0.0219913 10.1236C-0.00753233 10.211 -0.00753233 10.3746 0.0232215 10.4619C0.149927 10.8285 0.73917 11.1963 1.62488 11.4608C3.5513 12.0377 6.59962 12.1669 9.01933 11.7745C10.5115 11.5321 11.594 11.1077 11.9274 10.6329C12.3973 9.96369 11.4526 9.29203 9.49048 8.89715C8.89385 8.77782 7.96386 8.6585 7.46688 8.63882C7.31065 8.63267 7.32787 8.63513 7.66985 8.66957C8.88893 8.79013 9.94071 9.07183 10.4611 9.41504C11.2545 9.94032 10.8178 10.5443 9.35516 10.9454C8.13854 11.2787 6.34129 11.403 4.68673 11.2701C3.30158 11.1569 2.15631 10.8715 1.58059 10.4951C1.44528 10.4065 1.2829 10.2405 1.23738 10.1445C1.09468 9.84437 1.28782 9.55282 1.80202 9.2908C2.40234 8.98449 3.37539 8.75937 4.60062 8.64497C4.70518 8.63513 4.70641 8.63513 4.63137 8.6339C4.58709 8.6339 4.43578 8.64497 4.29308 8.65727Z" fill="#9C9B9E"/>
</svg>
