<svg width="16" height="16" viewBox="0 0 16 16" fill="none" xmlns="http://www.w3.org/2000/svg">
<path d="M11.9999 14.667H3.99992C2.53325 14.667 1.33325 13.467 1.33325 12.0003V5.33366C1.33325 3.86699 2.53325 2.66699 3.99992 2.66699H11.9999C13.4666 2.66699 14.6666 3.86699 14.6666 5.33366V12.0003C14.6666 13.467 13.4666 14.667 11.9999 14.667Z" stroke="white" stroke-width="0.666667" stroke-miterlimit="10" stroke-linecap="round" stroke-linejoin="round"/>
<path d="M11.3333 1.33398V4.00065" stroke="white" stroke-width="0.666667" stroke-miterlimit="10" stroke-linecap="round" stroke-linejoin="round"/>
<path d="M4.66663 1.33398V4.00065" stroke="white" stroke-width="0.666667" stroke-miterlimit="10" stroke-linecap="round" stroke-linejoin="round"/>
<path d="M4.66654 8.00033C5.03473 8.00033 5.33321 7.70185 5.33321 7.33366C5.33321 6.96547 5.03473 6.66699 4.66654 6.66699C4.29835 6.66699 3.99988 6.96547 3.99988 7.33366C3.99988 7.70185 4.29835 8.00033 4.66654 8.00033Z" fill="white"/>
<path d="M11.3332 8.00033C11.7014 8.00033 11.9998 7.70185 11.9998 7.33366C11.9998 6.96547 11.7014 6.66699 11.3332 6.66699C10.965 6.66699 10.6665 6.96547 10.6665 7.33366C10.6665 7.70185 10.965 8.00033 11.3332 8.00033Z" fill="white"/>
<path d="M7.99992 8.00033C8.36811 8.00033 8.66659 7.70185 8.66659 7.33366C8.66659 6.96547 8.36811 6.66699 7.99992 6.66699C7.63173 6.66699 7.33325 6.96547 7.33325 7.33366C7.33325 7.70185 7.63173 8.00033 7.99992 8.00033Z" fill="white"/>
<path d="M4.66654 11.3333C5.03473 11.3333 5.33321 11.0349 5.33321 10.6667C5.33321 10.2985 5.03473 10 4.66654 10C4.29835 10 3.99988 10.2985 3.99988 10.6667C3.99988 11.0349 4.29835 11.3333 4.66654 11.3333Z" fill="white"/>
<path d="M11.3332 11.3333C11.7014 11.3333 11.9998 11.0349 11.9998 10.6667C11.9998 10.2985 11.7014 10 11.3332 10C10.965 10 10.6665 10.2985 10.6665 10.6667C10.6665 11.0349 10.965 11.3333 11.3332 11.3333Z" fill="white"/>
<path d="M7.99992 11.3333C8.36811 11.3333 8.66659 11.0349 8.66659 10.6667C8.66659 10.2985 8.36811 10 7.99992 10C7.63173 10 7.33325 10.2985 7.33325 10.6667C7.33325 11.0349 7.63173 11.3333 7.99992 11.3333Z" fill="white"/>
</svg>
