<svg width="17" height="17" viewBox="0 0 17 17" fill="none" xmlns="http://www.w3.org/2000/svg">
<path fill-rule="evenodd" clip-rule="evenodd" d="M0.708374 8.49996C0.708374 8.10876 1.02551 7.79163 1.41671 7.79163H5.66671C5.90354 7.79163 6.1247 7.90999 6.25608 8.10705L7.1656 9.47133C7.35106 9.74952 7.66329 9.91663 7.99765 9.91663H9.00243C9.33679 9.91663 9.64902 9.74952 9.83449 9.47133L10.744 8.10705C10.8754 7.90999 11.0965 7.79163 11.3334 7.79163H15.5834C15.9746 7.79163 16.2917 8.10876 16.2917 8.49996C16.2917 8.89116 15.9746 9.20829 15.5834 9.20829H12.2476C11.9133 9.20829 11.6011 9.37539 11.4156 9.65359L10.5061 11.0179C10.3747 11.2149 10.1535 11.3333 9.91671 11.3333H7.08337C6.84654 11.3333 6.62538 11.2149 6.494 11.0179L5.58449 9.65359C5.39902 9.37539 5.08679 9.20829 4.75243 9.20829H1.41671C1.02551 9.20829 0.708374 8.89116 0.708374 8.49996Z" fill="#515151"/>
<path fill-rule="evenodd" clip-rule="evenodd" d="M5.12837 2.125L11.8717 2.125C12.267 2.12521 12.6549 2.2357 12.9908 2.44405C13.3265 2.65221 13.5976 2.94981 13.7735 3.30344L13.774 3.30438L16.2167 8.18286C16.266 8.28131 16.2917 8.3899 16.2917 8.5V12.75C16.2917 13.3136 16.0678 13.8541 15.6693 14.2526C15.2708 14.6511 14.7303 14.875 14.1667 14.875H2.83337C2.26979 14.875 1.72929 14.6511 1.33077 14.2526C0.932257 13.8541 0.708374 13.3136 0.708374 12.75V8.5C0.708374 8.3899 0.734041 8.28131 0.783339 8.18286L3.22612 3.30438L3.22664 3.30334C3.40258 2.94976 3.67358 2.65219 4.00923 2.44405C4.34522 2.2357 4.73303 2.12521 5.12837 2.125ZM3.86046 3.61958L4.49383 3.93673L2.33671 8.24472C2.19751 8.5227 2.12504 8.8293 2.12504 9.14018V12.75C2.12504 12.9379 2.19967 13.118 2.33251 13.2509C2.46535 13.3837 2.64551 13.4583 2.83337 13.4583H14.1667C14.3546 13.4583 14.5347 13.3837 14.6676 13.2509C14.8004 13.118 14.875 12.9379 14.875 12.75V9.14018C14.875 8.8293 14.8026 8.5227 14.6634 8.24471L12.5063 3.93673L12.5053 3.93479C12.4466 3.81678 12.3562 3.71746 12.2443 3.64802C12.1323 3.57859 12.0032 3.54176 11.8715 3.54167H5.12861C4.99688 3.54176 4.86778 3.57859 4.75583 3.64802C4.64383 3.71746 4.55343 3.81678 4.49479 3.93479L3.86046 3.61958Z" fill="#515151"/>
</svg>
