<svg width="12" height="12" viewBox="0 0 12 12" fill="none" xmlns="http://www.w3.org/2000/svg">
<path d="M5.51207 0.00612868C5.20046 0.0403446 4.76298 0.11733 4.47948 0.188206C3.49455 0.432605 2.56339 0.959285 1.80209 1.69859C1.32429 2.16417 0.923473 2.71041 0.630194 3.29696C0.270927 4.0155 0.0619656 4.78169 0.0130858 5.55766C-0.029684 6.26153 0.0326377 6.9434 0.196385 7.53851C0.592312 8.98413 1.42571 10.1462 2.65748 10.9711C3.47989 11.5222 4.55402 11.8998 5.47785 11.9621C5.77235 11.9817 6.52877 11.9707 6.73406 11.9426C7.64567 11.8204 8.54628 11.4831 9.31247 10.9772C10.3634 10.2831 11.1516 9.29818 11.5927 8.12751C11.8603 7.41753 11.9764 6.7711 11.9764 5.99146C11.9764 5.2937 11.8946 4.76091 11.6893 4.12792C11.3019 2.93525 10.5895 1.94055 9.58009 1.1878C8.94832 0.716108 8.18335 0.358063 7.39028 0.162544C6.98824 0.0635625 6.7695 0.0330126 6.30636 0.00979467C6.07907 -0.0012033 5.6025 -0.00364729 5.51207 0.00612868ZM6.52021 1.15114C7.48803 1.26967 8.31288 1.61183 9.05586 2.20328C9.22693 2.33892 9.60698 2.71041 9.73651 2.86926C10.3206 3.58413 10.6848 4.38576 10.8204 5.2546C10.8681 5.55888 10.8803 5.7544 10.873 6.12833C10.8669 6.49981 10.851 6.64645 10.785 6.98128C10.7007 7.40776 10.5736 7.77802 10.3756 8.17884C9.88804 9.16254 9.0974 9.94584 8.11492 10.4188C6.80494 11.0493 5.3361 11.0725 4.0029 10.4823C3.20861 10.1316 2.48396 9.53647 1.98539 8.82405C1.52347 8.16662 1.24119 7.43342 1.12999 6.60613C1.10433 6.41305 1.09333 5.83505 1.11288 5.61509C1.23142 4.2159 1.9414 2.93647 3.06197 2.09696C3.8025 1.54218 4.66645 1.21835 5.62816 1.13403C5.80535 1.11814 6.33447 1.12914 6.52021 1.15114Z" fill="#E60000"/>
<path d="M5.82245 2.68596C5.65504 2.70918 5.45708 2.82283 5.31533 2.9768C5.17602 3.12833 5.10148 3.27985 5.08315 3.45338C5.0355 3.91529 5.28111 5.69085 5.5304 6.67578C5.68193 7.27456 5.87867 7.63505 6.02408 7.57517C6.13162 7.52996 6.25993 7.30022 6.37357 6.95073C6.60697 6.22609 6.94424 4.04482 6.90391 3.51081C6.87703 3.14177 6.60086 2.81305 6.23426 2.71163C6.13039 2.6823 5.93121 2.67008 5.82245 2.68596Z" fill="#E60000"/>
<path d="M5.83589 8.02487C5.66481 8.06764 5.54017 8.15928 5.4363 8.31814C5.25789 8.59064 5.29333 8.89491 5.53039 9.13198C5.62815 9.22973 5.70025 9.2725 5.82978 9.30794C5.94465 9.33971 6.03263 9.33971 6.14627 9.30916C6.28191 9.27128 6.35279 9.22973 6.45299 9.12709C6.56053 9.01833 6.61674 8.91569 6.64607 8.77149C6.67295 8.64196 6.65584 8.53687 6.58497 8.39268C6.48965 8.19717 6.3198 8.06275 6.11328 8.01998C6.00086 7.99676 5.94342 7.99798 5.83589 8.02487Z" fill="#E60000"/>
</svg>
