<svg width="12" height="12" viewBox="0 0 12 12" fill="none" xmlns="http://www.w3.org/2000/svg">
<path d="M6 0C2.6916 0 0 2.69164 0 6.00004C0 9.30844 2.6916 12 6 12C9.3084 12 12 9.30844 12 6.00004C12 2.69164 9.3084 0 6 0ZM6 10.9091C3.29309 10.9091 1.09091 8.70691 1.09091 6.00004C1.09091 3.29316 3.29309 1.09091 6 1.09091C8.70691 1.09091 10.9091 3.29316 10.9091 6.00004C10.9091 8.70691 8.70687 10.9091 6 10.9091Z" fill="#919191"/>
<path d="M5.99989 2.54541C5.59895 2.54541 5.27277 2.87181 5.27277 3.27301C5.27277 3.67385 5.59895 3.99996 5.99989 3.99996C6.40084 3.99996 6.72702 3.67385 6.72702 3.27301C6.72702 2.87181 6.40084 2.54541 5.99989 2.54541Z" fill="#919191"/>
<path d="M6.00004 5.09082C5.69881 5.09082 5.45459 5.33504 5.45459 5.63628V8.909C5.45459 9.21024 5.69881 9.45446 6.00004 9.45446C6.30128 9.45446 6.5455 9.21024 6.5455 8.909V5.63628C6.5455 5.33504 6.30128 5.09082 6.00004 5.09082Z" fill="#919191"/>
</svg>
