<svg width="12" height="12" viewBox="0 0 12 12" fill="none" xmlns="http://www.w3.org/2000/svg">
<path d="M5.72065 -0.0262871C5.21276 0.0127821 4.96495 0.0496178 4.57092 0.147847C3.68685 0.367747 2.88204 0.77741 2.16541 1.37348C1.98569 1.52306 1.57826 1.93049 1.42869 2.11021C0.832612 2.82684 0.42295 3.63165 0.20305 4.51571C0.0735652 5.03365 0.0289154 5.41429 0.0289154 5.97241C0.0289154 6.53054 0.0735652 6.91118 0.20305 7.42911C0.42295 8.31318 0.832612 9.11799 1.42869 9.83462C1.57826 10.0143 1.98569 10.4218 2.16541 10.5713C2.88204 11.1674 3.68685 11.5771 4.57092 11.797C5.08885 11.9265 5.46949 11.9711 6.02762 11.9711C6.58574 11.9711 6.96638 11.9265 7.48432 11.797C8.36838 11.5771 9.1732 11.1663 9.88982 10.5713C10.0695 10.4218 10.477 10.0143 10.6265 9.83462C11.2226 9.11799 11.6323 8.31318 11.8522 7.42911C11.9817 6.91118 12.0263 6.53054 12.0263 5.97241C12.0263 5.41429 11.9817 5.03365 11.8522 4.51571C11.6323 3.63165 11.2215 2.82684 10.6265 2.11021C10.477 1.93049 10.0695 1.52306 9.88982 1.37348C9.1732 0.77741 8.36838 0.367747 7.48432 0.147847C7.16395 0.0674782 6.90945 0.0250607 6.55225 -0.0106592C6.43281 -0.0229378 5.82223 -0.0341005 5.72065 -0.0262871ZM7.57585 2.60917C7.57027 2.85251 7.55911 2.91055 7.49548 3.03557C7.42069 3.18627 7.31018 3.30347 7.174 3.38049C7.12712 3.40728 5.56438 4.00782 5.54205 4.00782C5.5387 4.00782 5.53759 3.81583 5.5387 3.58142L5.54205 3.15501L6.54667 2.77326C7.09921 2.5634 7.55799 2.39038 7.56692 2.39038C7.5792 2.38927 7.58031 2.42722 7.57585 2.60917ZM7.11819 3.85378C7.11037 4.10159 7.09921 4.1574 7.02777 4.30363C6.96861 4.42418 6.87485 4.53134 6.76657 4.60278C6.67616 4.66306 6.71188 4.64855 6.12585 4.87403C5.86353 4.97449 5.62465 5.06714 5.5934 5.07942L5.53647 5.10174V4.6731V4.24558L6.32119 3.94308C6.75206 3.77676 7.10926 3.64058 7.11484 3.64058C7.12042 3.63946 7.12265 3.72876 7.11819 3.85378ZM6.8782 5.55605C6.89717 5.5728 6.89829 5.62638 6.89829 6.8029C6.89829 7.5653 6.89382 8.08323 6.88601 8.16584C6.81903 8.94274 6.36919 9.39147 5.52196 9.52431C5.39805 9.54328 5.30764 9.54775 4.94039 9.55221C4.53073 9.55779 4.50506 9.55668 4.49055 9.5377C4.47938 9.52207 4.47604 9.41491 4.47604 9.02981C4.47604 8.47169 4.46934 8.50629 4.57203 8.50629C4.60552 8.50629 4.68143 8.50071 4.74059 8.49401C5.0922 8.45494 5.34336 8.31876 5.44494 8.11226C5.51526 7.96938 5.51414 8.00175 5.51414 6.73258C5.51414 5.67438 5.51526 5.57615 5.53312 5.55717C5.54986 5.53819 5.58558 5.53708 6.20398 5.53708C6.79671 5.53708 6.85922 5.53931 6.8782 5.55605Z" fill="#104EFF" fill-opacity="0.7"/>
</svg>
