<svg width="15" height="15" viewBox="0 0 15 15" fill="none" xmlns="http://www.w3.org/2000/svg">
<path d="M11.4 14H3.6C2.17 14 1 12.83 1 11.4V4.90005C1 3.47005 2.17 2.30005 3.6 2.30005H11.4C12.83 2.30005 14 3.47005 14 4.90005V11.4C14 12.83 12.83 14 11.4 14Z" stroke="black" stroke-width="0.666667" stroke-miterlimit="10" stroke-linecap="round" stroke-linejoin="round"/>
<path d="M10.75 1V3.6" stroke="black" stroke-width="0.666667" stroke-miterlimit="10" stroke-linecap="round" stroke-linejoin="round"/>
<path d="M4.25 1V3.6" stroke="black" stroke-width="0.666667" stroke-miterlimit="10" stroke-linecap="round" stroke-linejoin="round"/>
<path d="M4.25004 7.50007C4.60902 7.50007 4.90004 7.20906 4.90004 6.85007C4.90004 6.49109 4.60902 6.20007 4.25004 6.20007C3.89105 6.20007 3.60004 6.49109 3.60004 6.85007C3.60004 7.20906 3.89105 7.50007 4.25004 7.50007Z" fill="#4D4D4D"/>
<path d="M10.75 7.49971C11.109 7.49971 11.4 7.20869 11.4 6.84971C11.4 6.49072 11.109 6.19971 10.75 6.19971C10.3911 6.19971 10.1 6.49072 10.1 6.84971C10.1 7.20869 10.3911 7.49971 10.75 7.49971Z" fill="#4D4D4D"/>
<path d="M7.49998 7.49971C7.85896 7.49971 8.14998 7.20869 8.14998 6.84971C8.14998 6.49072 7.85896 6.19971 7.49998 6.19971C7.14099 6.19971 6.84998 6.49072 6.84998 6.84971C6.84998 7.20869 7.14099 7.49971 7.49998 7.49971Z" fill="#4D4D4D"/>
<path d="M4.25004 10.7497C4.60902 10.7497 4.90004 10.4587 4.90004 10.0997C4.90004 9.74072 4.60902 9.44971 4.25004 9.44971C3.89105 9.44971 3.60004 9.74072 3.60004 10.0997C3.60004 10.4587 3.89105 10.7497 4.25004 10.7497Z" fill="#4D4D4D"/>
<path d="M10.75 10.7497C11.109 10.7497 11.4 10.4587 11.4 10.0997C11.4 9.74072 11.109 9.44971 10.75 9.44971C10.3911 9.44971 10.1 9.74072 10.1 10.0997C10.1 10.4587 10.3911 10.7497 10.75 10.7497Z" fill="#4D4D4D"/>
<path d="M7.49998 10.7497C7.85896 10.7497 8.14998 10.4587 8.14998 10.0997C8.14998 9.74072 7.85896 9.44971 7.49998 9.44971C7.14099 9.44971 6.84998 9.74072 6.84998 10.0997C6.84998 10.4587 7.14099 10.7497 7.49998 10.7497Z" fill="#4D4D4D"/>
</svg>
