<svg width="12" height="12" viewBox="0 0 12 12" fill="none" xmlns="http://www.w3.org/2000/svg">
<path d="M6.0869 4.60522C5.65261 4.60522 5.30518 4.2368 5.30518 3.77628V0.828941C5.30518 0.368418 5.65261 0 6.0869 0C6.52119 0 6.86863 0.368418 6.86863 0.828941V3.77628C6.86863 4.2368 6.50382 4.60522 6.0869 4.60522Z" fill="#229FFF"/>
<path d="M4.22803 5.83957C4.12379 6.28168 3.6895 6.53956 3.27258 6.42905L0.579968 5.67378C0.163047 5.56325 -0.0801564 5.10273 0.0240738 4.66064C0.128304 4.21853 0.562596 3.96064 0.979517 4.07117L3.67213 4.82642C4.08905 4.93695 4.33226 5.39747 4.22803 5.83957Z" fill="#229FFF"/>
<path d="M7.77197 5.80243C7.87621 6.24454 8.31049 6.50243 8.72742 6.3919L11.42 5.63665C11.837 5.52612 12.0802 5.0656 11.9759 4.6235C11.8717 4.18139 11.4374 3.92351 11.0205 4.03402L8.32787 4.78928C7.91095 4.89981 7.65037 5.36034 7.77197 5.80243Z" fill="#229FFF"/>
<path d="M2.29985 11.8259C1.95241 11.5496 1.9003 11.0338 2.16087 10.6654L3.8633 8.34438C4.12387 7.97597 4.61028 7.9207 4.95772 8.19702C5.30515 8.47333 5.35727 8.98912 5.09668 9.35753L3.39426 11.6786C3.13369 12.047 2.64728 12.1023 2.29985 11.8259Z" fill="#229FFF"/>
<path d="M9.82158 11.8077C10.169 11.5315 10.2212 11.0156 9.96055 10.6472L8.25813 8.30776C7.99755 7.93934 7.51114 7.88409 7.16371 8.1604C6.81628 8.43671 6.76416 8.9525 7.02473 9.32092L8.72716 11.642C8.98774 12.0288 9.47415 12.084 9.82158 11.8077Z" fill="#229FFF"/>
</svg>
