<svg width="12" height="12" viewBox="0 0 12 12" fill="none" xmlns="http://www.w3.org/2000/svg">
<path d="M5.99993 12C9.3136 12 11.9999 9.31371 11.9999 6C11.9999 2.68629 9.3136 0 5.99993 0C2.68626 0 0 2.68629 0 6C0 9.31371 2.68626 12 5.99993 12Z" fill="#FFCB08"/>
<path d="M9.20481 4.22906C8.47407 4.22906 7.88172 4.82314 7.88172 5.55593L7.88194 5.56263C5.51644 6.25264 3.19418 8.0016 2.04326 10.5116C2.65912 11.0581 3.38342 11.4599 4.16617 11.7154C4.60386 9.08759 6.52857 7.08895 8.20239 6.41983C8.45329 6.71325 8.81928 6.88236 9.2047 6.88302C9.9354 6.88302 10.5277 6.28899 10.5278 5.55619C10.5278 4.82343 9.93544 4.22936 9.2047 4.22936L9.20481 4.22906Z" fill="#0C4EA3"/>
<path fill-rule="evenodd" clip-rule="evenodd" d="M5.03427 1.70172C4.30353 1.70172 3.71119 2.29579 3.71119 3.02859C3.71126 3.05845 3.71231 3.08832 3.71439 3.11815C2.07056 3.76856 0.818342 4.84859 0.00210571 6.1545C0.0374487 7.31782 0.392115 8.44635 1.05548 9.39917C1.11601 7.26513 2.17921 5.22056 3.99302 3.8466C4.24369 4.16764 4.62766 4.35531 5.03427 4.35545C5.76497 4.35545 6.35732 3.76142 6.35735 3.02863C6.35735 2.29587 5.76501 1.7018 5.03427 1.7018V1.70172Z" fill="#0C4EA3"/>
</svg>
