<svg width="12" height="12" viewBox="0 0 12 12" fill="none" xmlns="http://www.w3.org/2000/svg">
<path fill-rule="evenodd" clip-rule="evenodd" d="M3 2.5498C2.75147 2.5498 2.55 2.75128 2.55 2.9998C2.55 3.24833 2.75147 3.4498 3 3.4498H7.25C7.49853 3.4498 7.7 3.24833 7.7 2.9998C7.7 2.75128 7.49853 2.5498 7.25 2.5498H3ZM2.05 4.4998C2.05 4.25128 2.25147 4.0498 2.5 4.0498H8.25C8.49853 4.0498 8.7 4.25128 8.7 4.4998C8.7 4.74833 8.49853 4.9498 8.25 4.9498H2.5C2.25147 4.9498 2.05 4.74833 2.05 4.4998ZM1.31063 8.74241L0.655312 6.12114C0.576418 5.80557 0.815097 5.49987 1.14038 5.49987H10.5979C10.9906 5.49987 11.23 5.93185 11.0219 6.26487L9.29375 9.02987C9.11101 9.32225 8.79054 9.49987 8.44575 9.49987H2.28077C1.8219 9.49987 1.42192 9.18758 1.31063 8.74241Z" fill="#515151"/>
</svg>
