<svg width="18" height="17" viewBox="0 0 18 17" fill="none" xmlns="http://www.w3.org/2000/svg">
<path d="M9.64296 15.25H3.21439C2.03582 15.25 1.07153 14.2857 1.07153 13.1072V7.75004C1.07153 6.57146 2.03582 5.60718 3.21439 5.60718H9.64296C10.8215 5.60718 11.7858 6.57146 11.7858 7.75004V13.1072C11.7858 14.2857 10.8215 15.25 9.64296 15.25Z" stroke="#9C9B9E" stroke-width="1.28571" stroke-miterlimit="10" stroke-linecap="round" stroke-linejoin="round"/>
<path d="M3.2146 8.28613L5.67889 10.7504C6.10746 11.179 6.75031 11.179 7.17888 10.7504L9.64317 8.28613" stroke="#9C9B9E" stroke-width="1.28571" stroke-miterlimit="10" stroke-linecap="round" stroke-linejoin="round"/>
<rect x="8.35721" y="0.785679" width="9" height="9" rx="4.5" fill="#9C9B9E" stroke="#F1F1F1" stroke-width="1.28571"/>
<path d="M14.4194 6.79204V7.42847H11.9958V6.79204H12.8765V3.53918C12.8422 3.59061 12.7844 3.64847 12.703 3.71275C12.6258 3.77275 12.538 3.83275 12.4394 3.89275C12.3408 3.94847 12.238 3.99561 12.1308 4.03418C12.028 4.07275 11.9337 4.09204 11.848 4.09204V3.43632C11.9637 3.43632 12.0794 3.40632 12.1951 3.34632C12.3151 3.28632 12.4265 3.21775 12.5294 3.14061C12.6322 3.05918 12.7137 2.98632 12.7737 2.92204C12.838 2.85775 12.8722 2.82347 12.8765 2.81918H13.603V6.79204H14.4194Z" fill="white"/>
</svg>
