<svg width="18" height="18" viewBox="0 0 18 18" fill="none" xmlns="http://www.w3.org/2000/svg">
<rect width="18" height="18" rx="9" fill="white" fill-opacity="0.8"/>
<path d="M14.1428 14.7859V13.5001C14.1428 12.8182 13.8719 12.1641 13.3896 11.6819C12.9074 11.1996 12.2533 10.9287 11.5713 10.9287H6.42848C5.7465 10.9287 5.09245 11.1996 4.61021 11.6819C4.12797 12.1641 3.85706 12.8182 3.85706 13.5001V14.7859" stroke="#515151" stroke-width="1.2" stroke-linecap="round" stroke-linejoin="round"/>
<path d="M9.00002 8.35703C10.4202 8.35703 11.5714 7.20576 11.5714 5.7856C11.5714 4.36544 10.4202 3.21417 9.00002 3.21417C7.57986 3.21417 6.42859 4.36544 6.42859 5.7856C6.42859 7.20576 7.57986 8.35703 9.00002 8.35703Z" stroke="#515151" stroke-width="1.2" stroke-linecap="round" stroke-linejoin="round"/>
</svg>
