<svg width="12" height="12" viewBox="0 0 12 12" fill="none" xmlns="http://www.w3.org/2000/svg">
<path d="M5.0607 2.36456V4.95766H6.86431V2.36456H8.66792L6.72002 0.315074C6.62598 0.21532 6.51373 0.136071 6.38985 0.0819688C6.26597 0.027867 6.13295 0 5.99858 0C5.86421 0 5.73118 0.027867 5.6073 0.0819688C5.48342 0.136071 5.37118 0.21532 5.27713 0.315074L3.31721 2.36456H5.0607Z" fill="#DA291C"/>
<path d="M2.92644 2.77071L0.154893 5.63249C0.0551898 5.74731 0 5.89647 0 6.05113C0 6.2058 0.0551898 6.35496 0.154893 6.46978L2.91441 9.33156V2.77071H2.92644Z" fill="#DA291C"/>
<path d="M11.8543 5.63249L9.0106 2.70822V9.40655L11.8242 6.48228C11.9315 6.37072 11.9942 6.22113 11.9998 6.06352C12.0054 5.9059 11.9534 5.75193 11.8543 5.63249Z" fill="#DA291C"/>
<path d="M6.88836 9.83144V7.25708H5.08476V9.84393H3.39538L5.13285 11.631C5.3683 11.8677 5.68304 12 6.01061 12C6.33817 12 6.65292 11.8677 6.88836 11.631L8.62584 9.81894L6.88836 9.83144Z" fill="#DA291C"/>
</svg>
