<svg width="18" height="16" viewBox="0 0 18 16" fill="none" xmlns="http://www.w3.org/2000/svg">
<path d="M4.11567 11.7312H2.92751C1.8669 11.7312 1 10.8631 1 9.80254V5.755C1 4.6944 1.8669 3.82749 2.92751 3.82749H15.0725C16.1319 3.82749 17 4.6944 17 5.755V9.80254C17 10.8631 16.1319 11.7312 15.0725 11.7312H13.8831M4.11567 11.7312V14.2009C4.11567 14.3981 4.2763 14.5575 4.47236 14.5575H13.5265C13.7225 14.5575 13.8831 14.3981 13.8831 14.2009V11.7312M4.11567 11.7312V11.6923V8.13604C4.11567 7.93998 4.2763 7.77936 4.47236 7.77936H13.5265C13.7225 7.77936 13.8831 7.93998 13.8831 8.13604V11.7312M4.11567 3.82749V1.51377C4.11567 1.23149 4.34716 1 4.63062 1H13.3694C13.6517 1 13.8831 1.23149 13.8831 1.51377V3.82749H4.11567Z" stroke="#FFE600" stroke-width="1.5" stroke-miterlimit="22.9256"/>
</svg>
