<svg width="12" height="11" viewBox="0 0 12 11" fill="none" xmlns="http://www.w3.org/2000/svg">
<path d="M7.85714 4.85718H1.85714C1.38376 4.85718 1 5.24093 1 5.71432V8.71432C1 9.18771 1.38376 9.57146 1.85714 9.57146H7.85714C8.33053 9.57146 8.71429 9.18771 8.71429 8.71432V5.71432C8.71429 5.24093 8.33053 4.85718 7.85714 4.85718Z" stroke="#9C9B9E" stroke-width="1.2" stroke-linecap="round" stroke-linejoin="round"/>
<path d="M7 4.85714V3.14286C7 2.57454 7.22576 2.02949 7.62763 1.62763C8.02949 1.22576 8.57454 1 9.14286 1C9.71118 1 10.2562 1.22576 10.6581 1.62763C11.0599 2.02949 11.2857 2.57454 11.2857 3.14286V4.85714" stroke="#9C9B9E" stroke-width="1.2" stroke-linecap="round" stroke-linejoin="round"/>
</svg>
