<svg width="17" height="17" viewBox="0 0 17 17" fill="none" xmlns="http://www.w3.org/2000/svg">
<path d="M15.5833 3.54156V13.3874C15.5833 14.379 14.5208 15.0874 13.5999 14.6624L6.37496 11.4749L4.24996 10.554H2.83329C2.05413 10.554 1.41663 9.91655 1.41663 9.13738V7.72072C1.41663 6.94155 2.05413 6.30405 2.83329 6.30405H4.24996L13.5999 2.19572C14.5208 1.84155 15.5833 2.47906 15.5833 3.54156Z" stroke="#515151" stroke-width="1.2" stroke-miterlimit="10" stroke-linecap="round" stroke-linejoin="round"/>
<path d="M6.37484 11.4751V13.3876C6.37484 14.1668 5.73734 14.8043 4.95817 14.8043C4.53317 14.8043 4.17901 14.6626 3.96651 14.3793C3.68317 14.0959 3.5415 13.7418 3.5415 13.3876V10.5543" stroke="#515151" stroke-width="1.2" stroke-miterlimit="10" stroke-linecap="round" stroke-linejoin="round"/>
</svg>
