<svg width="19" height="12" viewBox="0 0 19 12" fill="none" xmlns="http://www.w3.org/2000/svg">
<path d="M16.9446 0H1.37176C0.614135 0 0 0.614135 0 1.37176V4.00012H18.3163V1.37176C18.3163 0.614135 17.7023 0 16.9446 0Z" fill="#F5F5F5"/>
<path d="M1.37177 0.122101H16.9446C17.6347 0.122101 18.1942 0.681567 18.1942 1.37175V3.878H0.122116V1.37175C0.122116 0.681567 0.68158 0.122101 1.37177 0.122101Z" stroke="black" stroke-opacity="0.37" stroke-width="0.2"/>
<path d="M0 10.6282C0 11.3858 0.614135 12 1.37176 12H16.9446C17.7021 12 18.3163 11.3858 18.3163 10.6282V7.99983H0V10.6282Z" fill="#FF4B55"/>
<path d="M18.3163 4.00014H0V8.00005H18.3163V4.00014Z" fill="#41479B"/>
</svg>
