<svg width="14" height="16" viewBox="0 0 14 16" fill="none" xmlns="http://www.w3.org/2000/svg">
<path d="M12.6668 9.73313C12.3334 9.53313 12.2001 9.1998 12.2668 8.86646C12.3334 8.5998 12.3334 8.26646 12.3334 7.99979C12.3334 7.73313 12.3334 7.3998 12.2668 7.13313C12.2001 6.7998 12.4001 6.46646 12.6668 6.26646C13.0668 5.99979 13.2001 5.46646 13.0001 5.06646L12.5334 4.26646C12.2668 3.86646 11.7334 3.73313 11.3334 3.93313C11.0001 4.13313 10.6668 4.06646 10.4001 3.86646C9.93344 3.46646 9.46678 3.1998 8.86678 2.9998C8.53344 2.86646 8.33344 2.53313 8.33344 2.1998C8.33344 1.73313 7.93344 1.33313 7.46677 1.33313H6.53344C6.06678 1.33313 5.66677 1.73313 5.66677 2.1998C5.66677 2.53313 5.46678 2.86646 5.13344 2.9998C4.60011 3.1998 4.06677 3.53313 3.60011 3.86646C3.33344 4.06646 2.93344 4.13313 2.60011 3.93313C2.20011 3.73313 1.66678 3.86646 1.46677 4.26646L1.00011 5.06646C0.733442 5.46646 0.933442 5.99979 1.33344 6.26646C1.66677 6.46646 1.80011 6.7998 1.73344 7.13313C1.73344 7.46646 1.66677 7.73313 1.66677 7.99979C1.66677 8.26646 1.66677 8.5998 1.73344 8.86646C1.80011 9.1998 1.60011 9.53313 1.33344 9.73313C0.866775 9.9998 0.733442 10.5331 1.00011 10.9331L1.46677 11.7331C1.73344 12.1331 2.26677 12.2665 2.66677 12.0665C3.00011 11.8665 3.33344 11.9331 3.66677 12.1331C4.13344 12.4665 4.60011 12.7998 5.13344 12.9998C5.46678 13.1331 5.66677 13.4665 5.66677 13.7998V13.8665C5.66677 14.3331 6.06678 14.7331 6.53344 14.7331H7.46677C7.93344 14.7331 8.33344 14.3331 8.33344 13.8665C8.33344 13.5331 8.53344 13.1998 8.86678 13.0665C9.40011 12.8665 9.93344 12.5998 10.3334 12.1998C10.6001 11.9998 11.0001 11.9331 11.2668 12.1331C11.6668 12.3998 12.2001 12.1998 12.4668 11.7998L12.9334 10.9998C13.2668 10.5331 13.1334 9.9998 12.6668 9.73313ZM7.00011 10.6665C5.53344 10.6665 4.33344 9.46646 4.33344 7.99979C4.33344 6.53313 5.53344 5.33313 7.00011 5.33313C8.46678 5.33313 9.66678 6.53313 9.66678 7.99979C9.66678 9.46646 8.46678 10.6665 7.00011 10.6665Z" stroke="white" stroke-opacity="0.5" stroke-width="1.2" stroke-miterlimit="10" stroke-linecap="round" stroke-linejoin="round"/>
</svg>
