<svg width="14" height="14" viewBox="0 0 14 14" fill="none" xmlns="http://www.w3.org/2000/svg">
<path fill-rule="evenodd" clip-rule="evenodd" d="M0 1.74984C0 1.42767 0.261167 1.1665 0.583333 1.1665H9.33333C9.6555 1.1665 9.91667 1.42767 9.91667 1.74984V9.33317C9.91667 9.65534 9.6555 9.9165 9.33333 9.9165H0.583333C0.261167 9.9165 0 9.65534 0 9.33317V1.74984ZM1.16667 2.33317V8.74984H8.75V2.33317H1.16667Z" fill="#9C9B9E"/>
<path fill-rule="evenodd" clip-rule="evenodd" d="M8.75 4.6665C8.75 4.34434 9.01117 4.08317 9.33333 4.08317H11.6667C11.8214 4.08317 11.9697 4.14463 12.0791 4.25403L13.8291 6.00403C13.9385 6.11342 14 6.26179 14 6.4165V9.33317C14 9.65534 13.7388 9.9165 13.4167 9.9165H9.33333C9.01117 9.9165 8.75 9.65534 8.75 9.33317V4.6665ZM9.91667 5.24984V8.74984H12.8333V6.65813L11.425 5.24984H9.91667Z" fill="#9C9B9E"/>
<path fill-rule="evenodd" clip-rule="evenodd" d="M3.20833 9.9165C2.72508 9.9165 2.33333 10.3083 2.33333 10.7915C2.33333 11.2748 2.72508 11.6665 3.20833 11.6665C3.69158 11.6665 4.08333 11.2748 4.08333 10.7915C4.08333 10.3083 3.69158 9.9165 3.20833 9.9165ZM1.16667 10.7915C1.16667 9.66392 2.08075 8.74984 3.20833 8.74984C4.33591 8.74984 5.25 9.66392 5.25 10.7915C5.25 11.9191 4.33591 12.8332 3.20833 12.8332C2.08075 12.8332 1.16667 11.9191 1.16667 10.7915Z" fill="#9C9B9E"/>
<path fill-rule="evenodd" clip-rule="evenodd" d="M10.7917 9.9165C10.3084 9.9165 9.91667 10.3083 9.91667 10.7915C9.91667 11.2748 10.3084 11.6665 10.7917 11.6665C11.2749 11.6665 11.6667 11.2748 11.6667 10.7915C11.6667 10.3083 11.2749 9.9165 10.7917 9.9165ZM8.75 10.7915C8.75 9.66392 9.66408 8.74984 10.7917 8.74984C11.9192 8.74984 12.8333 9.66392 12.8333 10.7915C12.8333 11.9191 11.9192 12.8332 10.7917 12.8332C9.66408 12.8332 8.75 11.9191 8.75 10.7915Z" fill="#9C9B9E"/>
</svg>
