<svg width="9" height="12" viewBox="0 0 9 12" fill="none" xmlns="http://www.w3.org/2000/svg">
<path d="M7.86351 6.90176L3.90184 6.01204C3.40665 5.89981 2.9657 5.61932 2.65417 5.21837C2.34263 4.81742 2.17978 4.32084 2.19339 3.81327C2.207 3.3057 2.39621 2.81856 2.72878 2.43488C3.06135 2.0512 3.51669 1.79473 4.01719 1.70919C4.51769 1.62365 5.03236 1.71433 5.47348 1.96578C5.9146 2.21723 6.25486 2.61388 6.43627 3.08812C6.61768 3.56237 6.629 4.08484 6.46831 4.5665C6.30761 5.04815 5.98485 5.45917 5.55504 5.7295C5.54961 5.73747 5.54671 5.7469 5.54671 5.75655C5.54671 5.7662 5.54961 5.77562 5.55504 5.7836C5.5578 5.79366 5.56313 5.80284 5.57051 5.81021C5.57789 5.81759 5.58706 5.82292 5.59712 5.82568L7.35853 6.22846C7.3787 6.23245 7.39959 6.23062 7.41876 6.22316C7.43792 6.21571 7.45456 6.20295 7.46674 6.18638C7.89387 5.63035 8.16094 4.96816 8.23909 4.27137C8.31723 3.57459 8.20348 2.86969 7.91013 2.23285C7.61677 1.59602 7.15497 1.05145 6.57461 0.657995C5.99426 0.26454 5.31742 0.0371574 4.61723 0.000415389H4.45491C3.64606 -0.010705 2.84984 0.201648 2.15395 0.614083C1.45806 1.02652 0.889514 1.62303 0.510942 2.3379C0.132369 3.05278 -0.0415389 3.85827 0.00837518 4.66566C0.0582893 5.47304 0.330089 6.25099 0.793832 6.91379L4.31063 11.9636C4.3181 11.9743 4.32796 11.9831 4.33944 11.9894C4.35092 11.9957 4.3637 11.9992 4.37676 11.9996C4.39015 12.0011 4.40365 11.9984 4.41546 11.9919C4.42728 11.9855 4.43685 11.9756 4.44289 11.9636L7.9116 7.022C7.91899 7.0092 7.92287 6.99469 7.92287 6.97992C7.92287 6.96514 7.91899 6.95063 7.9116 6.93783C7.90636 6.92895 7.89941 6.92118 7.89116 6.91499C7.88291 6.9088 7.87351 6.9043 7.86351 6.90176Z" fill="#FFC627"/>
</svg>
