<svg width="12" height="12" viewBox="0 0 12 12" fill="none" xmlns="http://www.w3.org/2000/svg">
<g clip-path="url(#clip0)">
<path fill-rule="evenodd" clip-rule="evenodd" d="M5.99999 0C2.69154 0 3.91907e-06 2.69154 3.91907e-06 5.99995C3.91907e-06 7.16377 0.330381 8.28157 0.95832 9.25172L0.0468639 11.2594C-0.0371439 11.4446 -0.0065503 11.6614 0.125322 11.8161C0.22636 11.9345 0.372872 12 0.523993 12C0.57016 12 0.616742 11.9939 0.662561 11.9813L3.17394 11.2923C4.04093 11.756 5.01323 12 5.99999 12C9.3084 12 12 9.3084 12 5.99995C12 2.69154 9.3084 0 5.99999 0ZM5.99999 10.9521C5.1237 10.9521 4.26146 10.719 3.50654 10.2778C3.42562 10.2306 3.33426 10.2063 3.24224 10.2063C3.19576 10.2063 3.14914 10.2125 3.1036 10.225L1.46299 10.6751L2.03443 9.4163C2.11209 9.24513 2.09218 9.04555 1.98223 8.89317C1.37097 8.04592 1.04792 7.04553 1.04792 5.99994C1.04792 3.26935 3.2694 1.04787 5.99999 1.04787C8.73062 1.04787 10.9521 3.26935 10.9521 5.99994C10.9521 8.73057 8.73061 10.9521 5.99999 10.9521Z" fill="#9C9B9E"/>
<path fill-rule="evenodd" clip-rule="evenodd" d="M8.3068 6.89845C8.0555 6.74816 7.72852 6.58035 7.43252 6.70147C7.20547 6.79439 7.06045 7.14988 6.91335 7.33143C6.83777 7.42459 6.74766 7.43916 6.63171 7.39247C5.77925 7.0529 5.12595 6.48379 4.65556 5.6997C4.57588 5.57781 4.59017 5.48173 4.68622 5.36873C4.82839 5.20148 5.00678 5.01147 5.04521 4.78592C5.08364 4.56046 4.97792 4.29682 4.88469 4.09606C4.76558 3.8395 4.63239 3.4736 4.37544 3.32848C4.13909 3.19501 3.82797 3.26972 3.61746 3.44114C3.25417 3.737 3.07891 4.2005 3.08414 4.66001C3.08564 4.79057 3.1017 4.92077 3.13218 5.04678C3.20548 5.34986 3.34553 5.63282 3.50321 5.90191C3.62204 6.10475 3.75121 6.30162 3.89058 6.49093C4.34658 7.11038 4.91386 7.64866 5.57066 8.05093C5.89885 8.25194 6.25236 8.42824 6.61839 8.54915C7.02893 8.68477 7.39472 8.82601 7.83799 8.74179C8.30215 8.65366 8.75968 8.36643 8.9439 7.91913C8.99839 7.78677 9.02575 7.63925 8.99523 7.4994C8.93213 7.21023 8.54068 7.03833 8.3068 6.89845Z" fill="#9C9B9E"/>
</g>
<defs>
<clipPath id="clip0">
<rect width="12" height="12" fill="white"/>
</clipPath>
</defs>
</svg>
