<svg width="15" height="15" viewBox="0 0 15 15" fill="none" xmlns="http://www.w3.org/2000/svg">
<path fill-rule="evenodd" clip-rule="evenodd" d="M5.15652 11.6669C5.10851 11.8158 5.08284 11.9723 5.08284 12.1333C5.08284 13.1643 6.12748 14 7.41628 14C8.70508 14 9.74979 13.1643 9.74979 12.1333C9.74979 11.9723 9.72405 11.8158 9.67605 11.6669H5.15652ZM7.41628 1C4.83907 1 2.74971 3.0893 2.74971 5.66657V8.64596C2.74971 9.04999 2.47494 9.40223 2.08304 9.50011C1.69107 9.59799 1.41631 9.94991 1.41631 10.3539V10.5437C1.41631 11.1639 1.91899 11.6666 2.53958 11.6666H5.15652H9.67155H12.293C12.9136 11.6666 13.4163 11.1639 13.4163 10.5437V10.3539C13.4163 9.94991 13.1415 9.59799 12.7496 9.50011C12.3576 9.40223 12.0829 9.04999 12.0829 8.64596V5.66657C12.0829 3.0893 9.99356 1 7.41628 1Z" stroke="white" stroke-width="1.2" stroke-miterlimit="22.9256"/>
</svg>
