<svg width="17" height="13" viewBox="0 0 17 13" fill="none" xmlns="http://www.w3.org/2000/svg">
<path d="M1.01719 3.08871L1.55179 3.36111L1.01719 3.08871ZM1.01719 9.91133L0.482585 10.1837H0.482585L1.01719 9.91133ZM2.2554 11.1495L2.5278 10.6149H2.52779L2.2554 11.1495ZM10.4947 11.1495L10.2223 10.6149L10.4947 11.1495ZM11.7329 9.91133L11.1983 9.63893V9.63893L11.7329 9.91133ZM14.9702 9.869L14.6373 10.3682L14.9702 9.869ZM14.9702 3.131L15.303 3.63023L14.9702 3.131ZM11.7329 3.08871L11.1983 3.36111V3.36111L11.7329 3.08871ZM10.4947 1.8505L10.7671 1.3159V1.3159L10.4947 1.8505ZM2.2554 1.8505L2.5278 2.38511L2.2554 1.8505ZM11.9516 3.7876L12.5431 3.68722L11.9516 3.7876ZM11.9516 9.21241L11.36 9.11204L11.9516 9.21241ZM13.1214 8.63651L12.7886 9.13574L13.1214 8.63651ZM1.30837 6.07502C1.30837 5.27171 1.30884 4.70532 1.34498 4.26295C1.38055 3.82759 1.44767 3.56547 1.55179 3.36111L0.482585 2.81632C0.277897 3.21804 0.190602 3.65566 0.148969 4.16523C0.107907 4.6678 0.108374 5.29151 0.108374 6.07502H1.30837ZM1.30837 6.92502V6.07502H0.108374V6.92502H1.30837ZM1.55179 9.63893C1.44767 9.43457 1.38055 9.17245 1.34498 8.73709C1.30884 8.29472 1.30837 7.72833 1.30837 6.92502H0.108374C0.108374 7.70853 0.107907 8.33224 0.148969 8.83481C0.190602 9.34438 0.277897 9.782 0.482585 10.1837L1.55179 9.63893ZM2.52779 10.6149C2.10757 10.4008 1.76591 10.0592 1.55179 9.63893L0.482585 10.1837C0.81175 10.8297 1.33698 11.355 1.98301 11.6841L2.52779 10.6149ZM5.2417 10.8584C4.4384 10.8584 3.872 10.8579 3.42964 10.8217C2.99428 10.7862 2.73216 10.7191 2.5278 10.6149L1.98301 11.6841C2.38473 11.8888 2.82235 11.9761 3.33192 12.0178C3.83448 12.0588 4.4582 12.0584 5.2417 12.0584V10.8584ZM7.50837 10.8584H5.2417V12.0584H7.50837V10.8584ZM10.2223 10.6149C10.0179 10.7191 9.7558 10.7862 9.32044 10.8217C8.87808 10.8579 8.31168 10.8584 7.50837 10.8584V12.0584C8.29188 12.0584 8.9156 12.0588 9.41816 12.0178C9.92773 11.9761 10.3654 11.8888 10.7671 11.6841L10.2223 10.6149ZM11.1983 9.63893C10.9842 10.0592 10.6425 10.4008 10.2223 10.6149L10.7671 11.6841C11.4131 11.355 11.9383 10.8297 12.2675 10.1837L11.1983 9.63893ZM11.36 9.11204C11.3219 9.33691 11.2685 9.50119 11.1983 9.63893L12.2675 10.1837C12.4052 9.91339 12.4898 9.62715 12.5431 9.31278L11.36 9.11204ZM15.303 9.36977L13.4543 8.13728L12.7886 9.13574L14.6373 10.3682L15.303 9.36977ZM15.6917 9.16176C15.6917 9.36143 15.4691 9.48053 15.303 9.36977L14.6373 10.3682C15.601 11.0106 16.8917 10.3199 16.8917 9.16176H15.6917ZM15.6917 3.83824V9.16176H16.8917V3.83824H15.6917ZM15.303 3.63023C15.4691 3.51947 15.6917 3.63857 15.6917 3.83824H16.8917C16.8917 2.68013 15.601 1.98936 14.6374 2.63177L15.303 3.63023ZM13.4543 4.86272L15.303 3.63023L14.6374 2.63177L12.7886 3.86426L13.4543 4.86272ZM11.1983 3.36111C11.2685 3.49884 11.3219 3.66312 11.36 3.88797L12.5431 3.68722C12.4898 3.37287 12.4052 3.08664 12.2675 2.81632L11.1983 3.36111ZM10.2223 2.38511C10.6425 2.59922 10.9842 2.94088 11.1983 3.36111L12.2675 2.81632C11.9383 2.1703 11.4131 1.64506 10.7671 1.3159L10.2223 2.38511ZM7.50838 2.14169C8.31168 2.14169 8.87808 2.14215 9.32044 2.1783C9.7558 2.21387 10.0179 2.28098 10.2223 2.38511L10.7671 1.3159C10.3654 1.11121 9.92773 1.02391 9.41816 0.982282C8.9156 0.94122 8.29188 0.941687 7.50838 0.941687V2.14169ZM5.24171 2.14169H7.50838V0.941687H5.24171V2.14169ZM2.5278 2.38511C2.73216 2.28098 2.99428 2.21387 3.42964 2.1783C3.872 2.14215 4.4384 2.14169 5.24171 2.14169V0.941687C4.4582 0.941687 3.83448 0.94122 3.33192 0.982282C2.82235 1.02391 2.38473 1.11121 1.98301 1.3159L2.5278 2.38511ZM1.55179 3.36111C1.76591 2.94088 2.10757 2.59922 2.5278 2.38511L1.98301 1.3159C1.33698 1.64506 0.81175 2.1703 0.482585 2.81632L1.55179 3.36111ZM12.7886 3.86426C12.766 3.87936 12.7493 3.88261 12.7362 3.88302C12.7206 3.8835 12.6976 3.87995 12.6697 3.86571C12.6107 3.83552 12.5574 3.77141 12.5431 3.68722L11.36 3.88797C11.5102 4.77326 12.5472 5.4674 13.4543 4.86272L12.7886 3.86426ZM12.5431 9.31278C12.5574 9.22859 12.6107 9.16448 12.6697 9.13429C12.6976 9.12005 12.7206 9.1165 12.7362 9.11698C12.7493 9.11739 12.766 9.12064 12.7886 9.13574L13.4543 8.13728C12.5472 7.5326 11.5102 8.22674 11.36 9.11204L12.5431 9.31278Z" fill="white" fill-opacity="0.5"/>
</svg>
