<svg width="13" height="14" viewBox="0 0 13 14" fill="none" xmlns="http://www.w3.org/2000/svg">
<g clip-path="url(#clip0_61489_852)">
<path d="M2.59938 8.61327C2.69015 8.71596 2.7364 8.85051 2.72797 8.9873C2.71954 9.1241 2.65711 9.25195 2.55442 9.34272C2.50357 9.38766 2.44436 9.42215 2.38019 9.44422C2.31601 9.46628 2.24811 9.47549 2.18038 9.47131C2.04358 9.46288 1.91573 9.40045 1.82496 9.29776C0.600924 7.91397 -0.0243201 6.44448 1.2561e-05 4.95067C0.0254032 3.496 0.665459 2.04661 1.96884 0.662823C2.06453 0.569567 2.19252 0.516857 2.32613 0.515688C2.45974 0.51452 2.58863 0.564984 2.68593 0.656552C2.78323 0.74812 2.84142 0.873721 2.84836 1.00715C2.85529 1.14058 2.81044 1.27154 2.72316 1.3727C1.60385 2.56077 1.05796 3.77952 1.03468 4.96759C1.01352 6.19375 1.55096 7.42731 2.59938 8.61327ZM6.97186 6.107V13.0217C6.97186 13.1491 6.92125 13.2713 6.83118 13.3613C6.7411 13.4514 6.61894 13.502 6.49155 13.502C6.36416 13.502 6.242 13.4514 6.15192 13.3613C6.06185 13.2713 6.01124 13.1491 6.01124 13.0217V6.107C5.75329 5.99639 5.54142 5.80014 5.41142 5.55139C5.28142 5.30264 5.24125 5.01665 5.29771 4.74172C5.35417 4.46679 5.50379 4.21977 5.7213 4.04239C5.93881 3.86501 6.21088 3.76813 6.49155 3.76813C6.77222 3.76813 7.04429 3.86501 7.2618 4.04239C7.47931 4.21977 7.62893 4.46679 7.68539 4.74172C7.74185 5.01665 7.70168 5.30264 7.57168 5.55139C7.44168 5.80014 7.22981 5.99639 6.97186 6.107ZM9.27288 7.60611C9.23002 7.65883 9.1772 7.7026 9.11742 7.7349C9.05765 7.76721 8.99209 7.78743 8.92451 7.79441C8.85692 7.80138 8.78862 7.79498 8.7235 7.77556C8.65839 7.75613 8.59774 7.72408 8.54502 7.68122C8.49229 7.63836 8.44853 7.58553 8.41622 7.52576C8.38391 7.46598 8.36369 7.40043 8.35671 7.33284C8.34263 7.19634 8.38334 7.05984 8.4699 6.95335C8.98724 6.31859 9.25595 5.64468 9.25807 4.97817C9.26019 4.31167 9.00734 3.66103 8.48366 3.01886C8.3971 2.91238 8.35638 2.77587 8.37047 2.63937C8.38455 2.50287 8.45229 2.37756 8.55877 2.291C8.66525 2.20444 8.80176 2.16372 8.93826 2.17781C9.07476 2.1919 9.20007 2.25963 9.28663 2.36611C9.96689 3.19977 10.2938 4.08739 10.2917 4.97817C10.2917 5.88906 9.94044 6.78303 9.27288 7.60611ZM4.5132 6.95335C4.55606 7.00608 4.58811 7.06673 4.60753 7.13184C4.62695 7.19695 4.63336 7.26525 4.62639 7.33284C4.61941 7.40043 4.59919 7.46598 4.56688 7.52576C4.53457 7.58553 4.49081 7.63836 4.43808 7.68122C4.38536 7.72408 4.32471 7.75613 4.2596 7.77556C4.19448 7.79498 4.12618 7.80138 4.05859 7.79441C3.99101 7.78743 3.92545 7.76721 3.86568 7.7349C3.8059 7.7026 3.75308 7.65883 3.71022 7.60611C3.04266 6.78303 2.69459 5.88906 2.69142 4.97817C2.69142 4.08739 3.01621 3.19977 3.69752 2.36611C3.73943 2.31067 3.79209 2.26425 3.85234 2.2296C3.91259 2.19496 3.9792 2.17282 4.0482 2.16449C4.1172 2.15616 4.18717 2.16182 4.25393 2.18113C4.3207 2.20044 4.38288 2.233 4.43678 2.27687C4.49069 2.32075 4.53519 2.37503 4.56765 2.43649C4.60011 2.49794 4.61985 2.56531 4.6257 2.63456C4.63155 2.70381 4.62338 2.77354 4.60169 2.83956C4.58 2.90559 4.54522 2.96657 4.49944 3.01886C3.97047 3.66103 3.72397 4.32648 3.72503 4.97817C3.72609 5.62987 3.99692 6.31859 4.5132 6.95335ZM11.1581 9.29776C11.0674 9.40045 10.9395 9.46288 10.8027 9.47131C10.6659 9.47974 10.5314 9.43349 10.4287 9.34272C10.326 9.25195 10.2636 9.1241 10.2551 8.9873C10.2467 8.85051 10.293 8.71596 10.3837 8.61327C11.4332 7.42731 11.9706 6.19375 11.9484 4.96759C11.9283 3.77423 11.3792 2.56077 10.2557 1.37059C10.2056 1.32176 10.1659 1.26329 10.139 1.19871C10.1121 1.13413 10.0985 1.06477 10.0992 0.994816C10.0998 0.924858 10.1145 0.855748 10.1426 0.791649C10.1706 0.727549 10.2113 0.669787 10.2623 0.621841C10.3132 0.573894 10.3733 0.536757 10.439 0.512665C10.5047 0.488572 10.5746 0.478024 10.6444 0.481656C10.7143 0.485287 10.7827 0.503023 10.8455 0.533795C10.9084 0.564566 10.9643 0.607737 11.01 0.660707C12.3134 2.0445 12.9535 3.49388 12.9778 4.94855C13.0032 6.44237 12.3779 7.91079 11.1539 9.29564L11.1581 9.29776Z" fill="#9C9B9E"/>
</g>
<defs>
<clipPath id="clip0_61489_852">
<rect width="12.9831" height="13" fill="white" transform="translate(0 0.5)"/>
</clipPath>
</defs>
</svg>
