<svg width="10" height="11" viewBox="0 0 10 11" fill="none" xmlns="http://www.w3.org/2000/svg">
<path d="M7.85714 4.85718H1.85714C1.38376 4.85718 1 5.24093 1 5.71432V8.71432C1 9.18771 1.38376 9.57146 1.85714 9.57146H7.85714C8.33053 9.57146 8.71429 9.18771 8.71429 8.71432V5.71432C8.71429 5.24093 8.33053 4.85718 7.85714 4.85718Z" stroke="#9C9B9E" stroke-width="1.2" stroke-linecap="round" stroke-linejoin="round"/>
<path d="M2.70001 4.86V3.14444C2.70001 2.5757 2.92578 2.03025 3.32764 1.62809C3.7295 1.22593 4.27455 1 4.84287 1C5.41119 1 5.95623 1.22593 6.3581 1.62809C6.75996 2.03025 6.98573 2.5757 6.98573 3.14444V4.86" stroke="#9C9B9E" stroke-width="1.2" stroke-linecap="round" stroke-linejoin="round"/>
</svg>
